<svg height="48" viewBox="0 0 48 48" width="48" xmlns="http://www.w3.org/2000/svg" xmlns:xlink="http://www.w3.org/1999/xlink"><linearGradient id="a" x1="30.5988%" x2="65.823932%" y1="68.39004%" y2="37.429312%"><stop offset="0" stop-opacity=".25"/><stop offset="1" stop-opacity=".03"/></linearGradient><g fill="none" fill-rule="evenodd"><path d="m0 0h48v48h-48z"/><path d="m46 9.74444444v28.11111116c0 4.3786111-3.5658333 7.9444444-7.9444444 7.9444444h-28.11111116c-4.37861111 0-7.94444444-3.5658333-7.94444444-7.9444444v-28.11111116c0-4.37861111 3.56583333-7.94444444 7.94444444-7.94444444h28.11111116c4.3786111 0 7.9444444 3.56583333 7.9444444 7.94444444z" fill="url(#a)" fill-rule="nonzero" opacity=".5"/><path d="m38.9189189.64864865c4.6475676 0 8.4324325 3.78486486 8.4324325 8.43243243v29.83783782c0 4.6475676-3.7848649 8.4324325-8.4324325 8.4324325h-29.83783782c-4.64756757 0-8.43243243-3.7848649-8.43243243-8.4324325v-29.83783782c0-4.64756757 3.78486486-8.43243243 8.43243243-8.43243243zm0 2.59459459h-29.83783782c-3.2172973 0-5.83783784 2.62054054-5.83783784 5.83783784v29.83783782c0 3.2172973 2.62054054 5.8378379 5.83783784 5.8378379h29.83783782c3.2172973 0 5.8378379-2.6205406 5.8378379-5.8378379v-29.83783782c0-3.2172973-2.6205406-5.83783784-5.8378379-5.83783784zm-14.6376689 7.25675676c.71875 0 1.34375.390625 1.34375 1.3125v1.296875c1.953125.25 3.6875.96875 4.84375 2.0625.875.859375 1.390625 1.8125 1.390625 2.6875 0 .90625-.671875 1.515625-1.546875 1.515625-.71875 0-1.25-.265625-1.9375-.984375-1.359375-1.515625-2.578125-2.109375-4.328125-2.109375-2.15625 0-3.53125 1.15625-3.53125 2.75 0 1.328125.96875 2.234375 2.953125 2.671875l3.171875.71875c3.859375.84375 5.71875 2.71875 5.71875 5.8125 0 3.59375-2.625 6.0625-6.828125 6.515625v1.25c0 .9375-.625 1.328125-1.328125 1.328125-.71875 0-1.34375-.390625-1.34375-1.328125v-1.234375c-2.171875-.203125-4.125-.90625-5.375-2.046875-.953125-.828125-1.484375-1.78125-1.484375-2.703125 0-1.046875.71875-1.65625 1.671875-1.65625.59375 0 1.03125.171875 1.828125.96875 1.40625 1.515625 2.953125 2.21875 4.8125 2.21875 2.484375 0 3.875-1.125 3.875-2.90625 0-1.375-.953125-2.1875-3.265625-2.734375l-3.171875-.734375c-3.5625-.796875-5.421875-2.8125-5.421875-5.84375 0-3.46875 2.578125-5.890625 6.625-6.265625v-1.25c0-.9375.625-1.3125 1.328125-1.3125z" fill="#fff"/></g></svg>