<svg height="48" viewBox="0 0 48 48" width="48" xmlns="http://www.w3.org/2000/svg" xmlns:xlink="http://www.w3.org/1999/xlink"><linearGradient id="a" x1="30.949944%" x2="65.537534%" y1="68.39004%" y2="37.429312%"><stop offset="0" stop-opacity=".25"/><stop offset="1" stop-opacity=".03"/></linearGradient><g fill="none" fill-rule="evenodd"><path d="m0 0h48v48h-48z"/><path d="m11.0410022 17.2280731 19.6290238 19.6281701-3.888066 4.0146136-6.4840552 5.607514-18.22903599-18.2588275c-.2834101-.2760417.74725696-1.8492228 3.0920012-4.7195433 1.05988439-1.2974583 3.01992846-3.3881006 5.88013219-6.2719269zm26.5907796-13.98482986 7.2333275 7.25675676v11.5l-6.4955179 6.9097828-2.1325654 2.1994604-19.5084155-19.5069339c2.5149328-2.45206049 5.4092465-5.23841583 8.6829409-8.35906606z" fill="url(#a)" fill-rule="nonzero" opacity=".5"/><path d="m9.15163785 14.7451172 2.31738285 2.3378906-6.78808598 6.7675781c-1.45605469 1.4560547-1.4765625 3.0351563.02050781 4.5322266l12.73535157 12.7148437c1.4970703 1.5175782 3.0556641 1.4970704 4.5322266.0205079l6.7470703-6.7470703 2.3378906 2.3583984-6.8701172 6.8701172c-2.9326172 2.9326172-5.9472656 2.9736328-8.9619141-.0205078l-12.98144527-12.9609375c-3.01464843-2.9941407-2.953125-6.0292969-.02050781-8.9619141zm-5.18847657-10.76660158c.63574219-.63574218 1.640625-.61523437 2.25585938 0l35.60156254 35.60156248c.6357421.6152344.6152343 1.6201172 0 2.2353516-.5947266.6152344-1.5996094.6152344-2.2353516 0l-35.62207032-35.60156251c-.59472656-.61523438-.59472656-1.640625 0-2.23535157zm30.67968752-3.97851562c2.1738281 0 2.8505859.53320313 4.3886719 2.07128906l4.7167968 4.71679688c1.5585938 1.55859375 2.0712891 2.23535156 2.0712891 4.40917966l-.0005775 8.0453875c-.0099225 1.9724985-.163485 2.844261-1.6400475 4.3208235l-7.4443359 7.4853515-2.3583985-2.3378906 7.4853516-7.4853516c.4101562-.4101562.65625-.8408203.65625-1.5175781v-8.6542969c0-.6357421-.225586-1.06640621-.65625-1.49707028l-5.5986328-5.57812499c-.4306641-.43066407-.8613282-.67675782-1.4970703-.67675782h-8.6337891c-.6972656 0-1.1279297.26660157-1.5380859.67675782l-7.4648438 7.46484377-2.3378906-2.33789065 7.4853515-7.46484375c1.538086-1.53808594 2.3994141-1.640625 4.5527344-1.640625zm-2.3994141 10.7871094c1.5996094 0 2.8095703 1.2304687 2.8095703 2.8095703 0 1.5585937-1.2099609 2.8095703-2.8095703 2.8095703-1.6201172 0-2.8095703-1.2509766-2.8095703-2.8095703 0-1.5791016 1.1894531-2.8095703 2.8095703-2.8095703z" fill="#fff" transform="translate(.711643 1.332031)"/></g></svg>