<svg height="48" viewBox="0 0 48 48" width="48"
    xmlns="http://www.w3.org/2000/svg"
    xmlns:xlink="http://www.w3.org/1999/xlink">
    <linearGradient id="a" x1="30.5988%" x2="65.823932%" y1="60.344398%" y2="42.928988%">
        <stop offset="0" stop-opacity=".25"/>
        <stop offset="1" stop-opacity=".03"/>
    </linearGradient>
    <g fill="none" fill-rule="evenodd">
        <path d="m0 0h48v48h-48z"/>
        <path d="m7.1277704 8h33.7444592c1.7830375 0 2.42961.18565122 3.0814618.53426541.6518519.34861418 1.163429.86019133 1.5120432 1.51204319.3486142.6518518.5342654 1.2984243.5342654 3.0814618v22.7444592c0 1.7830375-.1856512 2.42961-.5342654 3.0814618-.3486142.6518519-.8601913 1.163429-1.5120432 1.5120432-.6518518.3486142-1.2984243.5342654-3.0814618.5342654h-33.7444592c-1.78303748 0-2.42960996-.1856512-3.08146181-.5342654s-1.163429-.8601913-1.51204318-1.5120432c-.34861419-.6518518-.53426541-1.2984243-.53426541-3.0814618v-22.7444592c0-1.7830375.18565122-2.42961.53426541-3.0814618.34861418-.65185186.86019133-1.16342901 1.51204318-1.51204319.65185185-.34861419 1.29842433-.53426541 3.08146181-.53426541z" fill="url(#a)" fill-rule="nonzero" opacity=".5"/>
        <path d="m40.590287 7c1.92487 0 2.7901742.17308908 3.5152432.50099869l.2253798.10867549.1112043.05815758c.8148148.43576773 1.4542862 1.07523917 1.8900539 1.89005398l.113774.22313087c.3260424.67533529.5139953 1.43310619.5483255 3.05499149l.0057323.5737049v22.180574l-.0057323.5737049c-.032423 1.5317806-.2018736 2.2927924-.4952664 2.9415383l-.1086755.2253798-.0581576.1112043c-.4357677.8148148-1.0752391 1.4542862-1.8900539 1.8900539l-.2231309.113774c-.6753353.3260424-1.4331062.5139953-3.0549915.5483255l-.5737049.0057323h-33.180574l-.57370493-.0057323c-1.53178054-.032423-2.29279236-.2018736-2.94153825-.4952664l-.22537984-.1086755-.11120424-.0581576c-.81481481-.4357677-1.45428625-1.0752391-1.89005398-1.8900539l-.11377393-.2231309c-.32604244-.6753353-.51399533-1.4331062-.54832548-3.0549915l-.00573235-.5737049v-22.180574c0-1.92487.17308908-2.7901742.50099869-3.51524318l.10867549-.22537984.05815758-.11120424c.43576773-.81481481 1.07523917-1.45428625 1.89005398-1.89005398l.22313087-.11377393c.71285395-.34415591 1.51755738-.53445278 3.33344077-.55262208zm.2518636 2.50082035h-33.68430122l-.47482483.00739465c-.94777178.0247031-1.39158555.10740373-1.77295253.278692l-.17318913.08545775c-.37914363.20276825-.6617499.48537455-.86451814.86451815l-.08104631.1634239c-.08787938.1934166-.15278059.4020072-.19872688.6838397l-.03483434.2608618c-.01012666.0938358-.01879982.1950048-.02611331.3048615l-.01795529.3569872-.0103603.417239c-.00112508.0750123-.00195716.1528736-.00250797.2337534v22.6843012l.00739465.4748248c.0247031.9477718.10740373 1.3915856.278692 1.7729526l.08545775.1731891c.20276824.3791436.48537451.6617499.86451814.8645181l.1634239.0810464c.19341658.0878793.40200723.1527806.68383969.1987268l.26086181.0348344c.09383577.0101266.1950048.0187998.30486146.0261133l.3569872.0179553.41723905.0103603.485617.0033283 33.4324376-.0008203.4504123-.006774.3860973-.0140874c.1783244-.0089659.3355779-.0208855.4763315-.0360755l.2608618-.0348344c.2818325-.0459462.4904231-.1108475.6838397-.1987268l.1634239-.0810464c.3791436-.2027682.6617499-.4853745.8645181-.8645181l.0810464-.1634239c.0878793-.1934166.1527806-.4020072.1987268-.6838397l.0348344-.2608618c.0101266-.0938358.0187998-.1950048.0261133-.3048615l.0179553-.3569872.0103603-.417239.0033283-.485617-.0008203-22.4324376-.006774-.4504123-.0140874-.3860973c-.0089659-.1783244-.0208855-.3355779-.0360755-.4763315l-.0348344-.2608618c-.0459462-.2818325-.1108475-.4904231-.1987268-.6838397l-.0810464-.1634239c-.2027682-.3791436-.4853745-.6617499-.8645181-.86451815l-.1634239-.08104631c-.1934166-.08787938-.4020072-.15278059-.6838397-.19872688l-.2608618-.03483434c-.0938358-.01012666-.1950048-.01879982-.3048615-.02611331l-.3569872-.01795529-.417239-.0103603c-.0750123-.00112508-.1528736-.00195716-.2337534-.00250797zm-4.9192367 14.49917965h3.1541722c.6686391 0 .9111037.0696192 1.1555482.2003495.2444444.1307303.4362859.3225718.5670162.5670162.1307303.2444445.2003495.4869091.2003495 1.1555482v1.1541722c0 .6686391-.0696192.9111037-.2003495 1.1555482-.1307303.2444444-.3225718.4362859-.5670162.5670162-.2444445.1307303-.4869091.2003495-1.1555482.2003495h-3.1541722c-.6686391 0-.9111037-.0696192-1.1555482-.2003495-.2444444-.1307303-.4362859-.3225718-.5670162-.5670162-.1307303-.2444445-.2003495-.4869091-.2003495-1.1555482v-1.1541722c0-.6686391.0696192-.9111037.2003495-1.1555482.1307303-.2444444.3225718-.4362859.5670162-.5670162.2444445-.1307303.4869091-.2003495 1.1555482-.2003495zm-27.9229139 1h6c.5522847 0 1 .4477153 1 1s-.4477153 1-1 1h-6c-.55228475 0-1-.4477153-1-1s.44771525-1 1-1zm9 0h8c.5522847 0 1 .4477153 1 1s-.4477153 1-1 1h-8c-.5522847 0-1-.4477153-1-1s.4477153-1 1-1z" fill="#fff"/>
    </g>
</svg>