<?xml version="1.0" encoding="UTF-8" standalone="no"?> <svg width="64" height="64" viewBox="0 0 64 64" fill="none" xmlns="http://www.w3.org/2000/svg">
<path d="M59.5899 50.4199H50.9999C48.7199 40.4199 34.5499 40.4199 32.2699 50.4199H4.40991C3.87948 50.4199 3.37077 50.6306 2.9957 51.0057C2.62063 51.3808 2.40991 51.8895 2.40991 52.4199C2.40991 52.9504 2.62063 53.4591 2.9957 53.8341C3.37077 54.2092 3.87948 54.4199 4.40991 54.4199H32.2999C34.5899 64.4199 48.7599 64.4199 51.0299 54.4199H59.5899C60.1203 54.4199 60.6291 54.2092 61.0041 53.8341C61.3792 53.4591 61.5899 52.9504 61.5899 52.4199C61.5899 51.8895 61.3792 51.3808 61.0041 51.0057C60.6291 50.6306 60.1203 50.4199 59.5899 50.4199Z" fill="black"/>
<path d="M4.40991 34H9.78991C12.0699 44 26.2399 44 28.5199 34H59.5899C60.1203 34 60.6291 33.7893 61.0041 33.4142C61.3792 33.0391 61.5899 32.5304 61.5899 32C61.5899 31.4696 61.3792 30.9609 61.0041 30.5858C60.6291 30.2107 60.1203 30 59.5899 30H28.5199C26.2399 20 12.0699 20 9.78991 30H4.40991C3.87948 30 3.37077 30.2107 2.9957 30.5858C2.62063 30.9609 2.40991 31.4696 2.40991 32C2.40991 32.5304 2.62063 33.0391 2.9957 33.4142C3.37077 33.7893 3.87948 34 4.40991 34V34Z" fill="black"/>
<path d="M4.40991 13.5801H22.6299C24.9199 23.5801 39.0899 23.5801 41.3699 13.5801H59.5899C60.1203 13.5801 60.6291 13.3694 61.0041 12.9943C61.3792 12.6192 61.5899 12.1105 61.5899 11.5801C61.5899 11.0496 61.3792 10.5409 61.0041 10.1659C60.6291 9.79079 60.1203 9.58008 59.5899 9.58008H41.3699C39.0799 -0.419922 24.9099 -0.419922 22.6299 9.58008H4.40991C3.87948 9.58008 3.37077 9.79079 2.9957 10.1659C2.62063 10.5409 2.40991 11.0496 2.40991 11.5801C2.40991 12.1105 2.62063 12.6192 2.9957 12.9943C3.37077 13.3694 3.87948 13.5801 4.40991 13.5801V13.5801Z" fill="black"/>
</svg>
