<?xml version="1.0" encoding="iso-8859-1"?>
<!-- Generator: Adobe Illustrator 16.0.0, SVG Export Plug-In . SVG Version: 6.00 Build 0)  -->
<!DOCTYPE svg PUBLIC "-//W3C//DTD SVG 1.1//EN" "http://www.w3.org/Graphics/SVG/1.1/DTD/svg11.dtd">
<svg version="1.1" xmlns="http://www.w3.org/2000/svg" xmlns:xlink="http://www.w3.org/1999/xlink" x="0px" y="0px" width="512px"
	 height="512px" viewBox="0 0 512 512" style="enable-background:new 0 0 512 512;" xml:space="preserve">
<g id="B_-_136_x2C__features_x2C__Business_x2C__competer_x2C__online_x2C__resume_x2C__skills_x2C__web">
	<g>
		<g>
			<path d="M447.518,396.027H66.889c-3.278,0-5.946-2.667-5.946-5.944V173.921c0-11.757,9.545-21.323,21.279-21.323h94.868
				c1.986,0,3.597,1.61,3.597,3.597v124.877h150.627V156.195c0-1.986,1.61-3.597,3.597-3.597h94.868
				c11.765,0,21.336,9.565,21.336,21.323v218.509C451.114,394.417,449.504,396.027,447.518,396.027z M68.136,388.834h375.785
				V173.921c0-7.791-6.345-14.129-14.143-14.129h-91.271v124.877c0,1.986-1.61,3.597-3.597,3.597H177.09
				c-1.986,0-3.597-1.61-3.597-3.597V159.792H82.222c-7.767,0-14.085,6.338-14.085,14.129V388.834z"/>
		</g>
		<g>
			<path d="M424.77,374.85H87.287c-1.986,0-3.597-1.61-3.597-3.597v-193.88c0-1.986,1.61-3.597,3.597-3.597h89.803
				c1.986,0,3.597,1.61,3.597,3.597v103.699h150.627V177.373c0-1.986,1.61-3.597,3.597-3.597h89.859c1.986,0,3.597,1.61,3.597,3.597
				v193.88C428.366,373.239,426.756,374.85,424.77,374.85z M90.883,367.656h330.29V180.97h-82.666v103.699
				c0,1.986-1.61,3.597-3.597,3.597H177.09c-1.986,0-3.597-1.61-3.597-3.597V180.97h-82.61V367.656z"/>
		</g>
		<g>
			<path d="M358.14,439.479H153.89c-0.228,0-0.455-0.021-0.678-0.064L39.699,417.614c-1.694-0.325-2.918-1.808-2.918-3.532v-21.651
				c0-1.986,1.61-3.597,3.597-3.597h154.029c1.986,0,3.597,1.61,3.597,3.597v14.053h116.023v-14.053c0-1.986,1.61-3.597,3.597-3.597
				h154c1.986,0,3.597,1.61,3.597,3.597v21.651c0,1.725-1.225,3.207-2.918,3.532l-113.483,21.801
				C358.595,439.458,358.367,439.479,358.14,439.479z M154.232,432.286h203.566l110.229-21.176v-15.083H321.22v14.053
				c0,1.986-1.61,3.597-3.597,3.597H194.406c-1.986,0-3.597-1.61-3.597-3.597v-14.053H43.974v15.083L154.232,432.286z"/>
		</g>
		<g>
			<path d="M51.072,255.246c-1.986,0-3.597-1.61-3.597-3.597v-90.588c0-11.757,9.571-21.322,21.336-21.322h30.472
				c1.986,0,3.597,1.61,3.597,3.597s-1.61,3.597-3.597,3.597H68.812c-7.798,0-14.143,6.338-14.143,14.129v90.588
				C54.669,253.636,53.059,255.246,51.072,255.246z"/>
		</g>
		<g>
			<path d="M334.91,288.266H177.09c-1.986,0-3.597-1.61-3.597-3.597V76.117c0-1.986,1.61-3.597,3.597-3.597h110.656
				c0.954,0,1.87,0.379,2.545,1.055l47.164,47.215c0.674,0.674,1.052,1.589,1.052,2.542v161.337
				C338.507,286.655,336.896,288.266,334.91,288.266z M180.687,281.072h150.627V124.821l-45.059-45.107H180.687V281.072z"/>
		</g>
		<g>
			<path d="M334.93,126.929c-0.005,0-0.012,0.001-0.02,0h-47.164c-1.986,0-3.597-1.61-3.597-3.597V76.117
				c0-1.455,0.877-2.767,2.221-3.323c1.346-0.556,2.893-0.249,3.921,0.781l46.948,47c0.787,0.66,1.288,1.65,1.288,2.758
				C338.527,125.318,336.917,126.929,334.93,126.929z M291.343,119.735h34.891l-34.891-34.929V119.735z"/>
		</g>
		<g>
			<path d="M366.486,288.266H145.543c-1.986,0-3.597-1.61-3.597-3.597v-22.431c0-1.986,1.61-3.597,3.597-3.597
				s3.597,1.61,3.597,3.597v18.834h213.75v-18.834c0-1.986,1.61-3.597,3.597-3.597s3.597,1.61,3.597,3.597v22.431
				C370.083,286.655,368.473,288.266,366.486,288.266z"/>
		</g>
		<g>
			<path d="M210.957,172.814c-0.626,0-1.253-0.164-1.813-0.491l-5.913-3.453l-5.881-3.355c-1.122-0.64-1.814-1.833-1.814-3.124
				v-13.645c0-1.292,0.692-2.484,1.814-3.124l5.913-3.373l5.881-3.434c1.124-0.655,2.512-0.655,3.633,0.003l5.885,3.452l5.876,3.351
				c1.122,0.64,1.815,1.833,1.815,3.125v13.645c0,1.292-0.693,2.484-1.814,3.124l-5.915,3.374l-5.847,3.431
				C212.215,172.649,211.586,172.814,210.957,172.814z M202.729,160.303l8.224,4.748l4.069-2.387l4.138-2.36v-9.467l-4.1-2.338
				l-4.107-2.409l-8.224,4.747V160.303z"/>
		</g>
		<g>
			<path d="M280.343,151.253H238.33c-1.986,0-3.597-1.61-3.597-3.597s1.61-3.597,3.597-3.597h42.013c1.986,0,3.597,1.61,3.597,3.597
				S282.329,151.253,280.343,151.253z"/>
		</g>
		<g>
			<path d="M308.269,164.963H238.33c-1.986,0-3.597-1.61-3.597-3.597s1.61-3.597,3.597-3.597h69.939c1.986,0,3.597,1.61,3.597,3.597
				S310.255,164.963,308.269,164.963z"/>
		</g>
		<g>
			<path d="M210.957,230.149c-0.626,0-1.253-0.164-1.813-0.49l-5.913-3.451l-5.882-3.356c-1.122-0.64-1.814-1.833-1.814-3.124
				v-13.651c0-1.28,0.68-2.463,1.786-3.108l5.913-3.445l5.94-3.39c1.107-0.631,2.466-0.631,3.572,0.004l11.82,6.831
				c1.106,0.644,1.787,1.828,1.787,3.108v13.651c0,1.292-0.692,2.484-1.814,3.124l-5.915,3.374l-5.848,3.43
				C212.215,229.985,211.586,230.149,210.957,230.149z M202.729,217.639l8.224,4.747l4.07-2.387l4.137-2.36v-9.495l-8.207-4.743
				l-8.224,4.742V217.639z"/>
		</g>
		<g>
			<path d="M280.343,208.583H238.33c-1.986,0-3.597-1.61-3.597-3.597s1.61-3.597,3.597-3.597h42.013c1.986,0,3.597,1.61,3.597,3.597
				S282.329,208.583,280.343,208.583z"/>
		</g>
		<g>
			<path d="M308.269,222.299H238.33c-1.986,0-3.597-1.61-3.597-3.597s1.61-3.597,3.597-3.597h69.939c1.986,0,3.597,1.61,3.597,3.597
				S310.255,222.299,308.269,222.299z"/>
		</g>
	</g>
</g>
<g id="Layer_1">
</g>
</svg>
