<?xml version="1.0" encoding="UTF-8" standalone="no"?> <svg width="64" height="64" viewBox="0 0 64 64" fill="none" xmlns="http://www.w3.org/2000/svg">
<path d="M45 3H15C13.9391 3 12.9217 3.42143 12.1716 4.17157C11.4214 4.92172 11 5.93913 11 7V57C11 58.0609 11.4214 59.0783 12.1716 59.8284C12.9217 60.5786 13.9391 61 15 61H45C46.0609 61 47.0783 60.5786 47.8284 59.8284C48.5786 59.0783 49 58.0609 49 57V37H45V52H15V11H45V21H49V7C49 5.93913 48.5786 4.92172 47.8284 4.17157C47.0783 3.42143 46.0609 3 45 3Z" fill="#79BD9A"/>
<path d="M45 49H44C38.1652 49 32.5695 46.6822 28.4437 42.5564C24.3179 38.4306 22 32.8348 22 27V11H15V52H45V49Z" fill="#CFF09E"/>
<path d="M41 37H49C50.0609 37 51.0783 37.4214 51.8284 38.1716C52.5786 38.9217 53 39.9391 53 41V45H35V43C35 41.4087 35.6321 39.8826 36.7574 38.7574C37.8826 37.6321 39.4087 37 41 37Z" fill="#A8DBA8"/>
<path d="M43 33C42.3183 32.9987 41.6419 32.8807 41 32.651V37H49V35C47.9461 34.9999 46.9111 34.7207 46 34.191C46.9119 33.6655 47.6693 32.909 48.1959 31.9977C48.7226 31.0864 48.9999 30.0525 49 29V27C49 28.5913 48.3679 30.1174 47.2426 31.2426C46.1174 32.3679 44.5913 33 43 33Z" fill="#CFF09E"/>
<path d="M33 15H46C46.7956 15 47.5587 15.3161 48.1213 15.8787C48.6839 16.4413 49 17.2044 49 18V21H37C35.9391 21 34.9217 20.5786 34.1716 19.8284C33.4214 19.0783 33 18.0609 33 17V15Z" fill="#A8DBA8"/>
<path d="M31 32V29H19V41H31V36L35 32H31Z" fill="#79BD9A"/>
<path d="M46 31C44.4087 31 42.8826 30.3679 41.7574 29.2426C40.6321 28.1174 40 26.5913 40 25C40 24.4696 40.2107 23.9609 40.5858 23.5858C40.9609 23.2107 41.4696 23 42 23H49V21H37V27C37.0009 28.2413 37.3868 29.4517 38.1044 30.4645C38.822 31.4772 39.8361 32.2425 41.0068 32.6549C42.1776 33.0672 43.4474 33.1063 44.6413 32.7668C45.8352 32.4272 46.8944 31.7257 47.673 30.759C47.1295 30.9179 46.5662 30.999 46 31V31Z" fill="#CFF09E"/>
<path d="M49 27C50.6569 27 52 25.6569 52 24C52 22.3431 50.6569 21 49 21C47.3431 21 46 22.3431 46 24C46 25.6569 47.3431 27 49 27Z" fill="#79BD9A"/>
<path d="M15 8C15.5523 8 16 7.55228 16 7C16 6.44772 15.5523 6 15 6C14.4477 6 14 6.44772 14 7C14 7.55228 14.4477 8 15 8Z" fill="#3B8686"/>
<path d="M19 8C19.5523 8 20 7.55228 20 7C20 6.44772 19.5523 6 19 6C18.4477 6 18 6.44772 18 7C18 7.55228 18.4477 8 19 8Z" fill="#3B8686"/>
<path d="M34 55H26C25.7348 55 25.4804 55.1054 25.2929 55.2929C25.1054 55.4804 25 55.7348 25 56C25 56.2652 25.1054 56.5196 25.2929 56.7071C25.4804 56.8946 25.7348 57 26 57H34C34.2652 57 34.5196 56.8946 34.7071 56.7071C34.8946 56.5196 35 56.2652 35 56C35 55.7348 34.8946 55.4804 34.7071 55.2929C34.5196 55.1054 34.2652 55 34 55Z" fill="#3B8686"/>
<path d="M50 36.1V27.858C50.8561 27.637 51.6149 27.1385 52.1577 26.4404C52.7005 25.7424 52.9967 24.8842 53 24C52.9947 23.5954 52.9272 23.1941 52.8 22.81C53.941 20.9088 54.2869 18.6346 53.7628 16.4802C53.2387 14.3258 51.8868 12.4646 50 11.3V7C49.9984 5.6744 49.4711 4.40356 48.5338 3.46622C47.5964 2.52888 46.3256 2.00159 45 2H15C13.6744 2.00159 12.4036 2.52888 11.4662 3.46622C10.5289 4.40356 10.0016 5.6744 10 7V57C10.0016 58.3256 10.5289 59.5964 11.4662 60.5338C12.4036 61.4711 13.6744 61.9984 15 62H45C46.3256 61.9984 47.5964 61.4711 48.5338 60.5338C49.4711 59.5964 49.9984 58.3256 50 57V46H53C53.2652 46 53.5196 45.8946 53.7071 45.7071C53.8946 45.5196 54 45.2652 54 45V41C53.9985 39.8478 53.5999 38.7313 52.8713 37.8387C52.1427 36.9462 51.1286 36.3321 50 36.1V36.1ZM34 43V44H23C22.7348 44 22.4804 44.1054 22.2929 44.2929C22.1054 44.4804 22 44.7348 22 45C22 45.2652 22.1054 45.5196 22.2929 45.7071C22.4804 45.8946 22.7348 46 23 46H44V51H16V12H40.039C39.3636 12.5727 38.7819 13.2475 38.315 14H33C32.7348 14 32.4804 14.1054 32.2929 14.2929C32.1054 14.4804 32 14.7348 32 15V17C32.0015 18.1522 32.4001 19.2687 33.1287 20.1613C33.8573 21.0538 34.8714 21.6679 36 21.9V27C36.0018 28.323 36.3785 29.6185 37.0865 30.7361C37.7944 31.8538 38.8046 32.748 40 33.315V36.08C38.3354 36.3203 36.813 37.1518 35.7112 38.4225C34.6094 39.6932 34.002 41.3182 34 43V43ZM45.814 26.392C45.4478 26.5421 45.0504 26.6001 44.6566 26.561C44.2628 26.522 43.8846 26.387 43.555 26.168C43.3343 26.0208 43.0642 25.9673 42.8041 26.0192C42.544 26.0712 42.3152 26.2243 42.168 26.445C42.0208 26.6657 41.9673 26.9358 42.0192 27.1959C42.0712 27.456 42.2243 27.6848 42.445 27.832C43.1995 28.3388 44.0926 28.599 45.0012 28.5768C45.9098 28.5546 46.7892 28.251 47.518 27.708C47.6491 27.7561 47.7826 27.7975 47.918 27.832C47.7146 29.0711 47.0516 30.1881 46.0613 30.9602C45.0709 31.7323 43.826 32.1028 42.5746 31.9978C41.3233 31.8928 40.1575 31.3201 39.3096 30.3938C38.4618 29.4675 37.9941 28.2557 38 27V22H45.556C45.152 22.673 44.9605 23.4523 45.0066 24.2359C45.0526 25.0194 45.334 25.7709 45.814 26.392V26.392ZM46 16C46.5304 16 47.0391 16.2107 47.4142 16.5858C47.7893 16.9609 48 17.4696 48 18V20H37C36.2044 20 35.4413 19.6839 34.8787 19.1213C34.3161 18.5587 34 17.7956 34 17V16H46ZM48 14.556C47.3947 14.1961 46.7043 14.0041 46 14H40.814C41.7203 13.0537 42.8918 12.4039 44.1745 12.1362C45.4572 11.8684 46.7908 11.9953 48 12.5V14.556ZM42 33.92C43.0896 34.088 44.2036 33.9912 45.248 33.6379C46.2923 33.2845 47.2362 32.685 48 31.89V36H42V33.92ZM49 26C48.6044 26 48.2178 25.8827 47.8889 25.6629C47.56 25.4432 47.3036 25.1308 47.1522 24.7654C47.0009 24.3999 46.9613 23.9978 47.0384 23.6098C47.1156 23.2219 47.3061 22.8655 47.5858 22.5858C47.8655 22.3061 48.2219 22.1156 48.6098 22.0384C48.9978 21.9613 49.3999 22.0009 49.7654 22.1522C50.1308 22.3036 50.4432 22.56 50.6629 22.8889C50.8827 23.2178 51 23.6044 51 24C51 24.5304 50.7893 25.0391 50.4142 25.4142C50.0391 25.7893 49.5304 26 49 26ZM52 18.5C51.9954 19.329 51.8311 20.1493 51.516 20.916C51.0726 20.5514 50.5553 20.2874 50 20.142V13.821C50.6321 14.4254 51.1352 15.1516 51.4789 15.9558C51.8226 16.76 51.9999 17.6254 52 18.5V18.5ZM48 57C48 57.7956 47.6839 58.5587 47.1213 59.1213C46.5587 59.6839 45.7956 60 45 60H15C14.2044 60 13.4413 59.6839 12.8787 59.1213C12.3161 58.5587 12 57.7956 12 57V7C12 6.20435 12.3161 5.44129 12.8787 4.87868C13.4413 4.31607 14.2044 4 15 4H45C45.7956 4 46.5587 4.31607 47.1213 4.87868C47.6839 5.44129 48 6.20435 48 7V10.376C47.1902 10.1262 46.3475 9.9995 45.5 10C45.374 10 45.252 10.02 45.127 10.026C45.0853 10.0144 45.0429 10.0057 45 10H15C14.7348 10 14.4804 10.1054 14.2929 10.2929C14.1054 10.4804 14 10.7348 14 11V52C14 52.2652 14.1054 52.5196 14.2929 52.7071C14.4804 52.8946 14.7348 53 15 53H45C45.2652 53 45.5196 52.8946 45.7071 52.7071C45.8946 52.5196 46 52.2652 46 52V46H48V57ZM52 44H36V43C36.0016 41.6744 36.5289 40.4036 37.4662 39.4662C38.4036 38.5289 39.6744 38.0016 41 38H49C49.7956 38 50.5587 38.3161 51.1213 38.8787C51.6839 39.4413 52 40.2044 52 41V44Z" fill="#3B8686"/>
<path d="M35 31H32V29C32 28.7348 31.8946 28.4804 31.7071 28.2929C31.5196 28.1054 31.2652 28 31 28H19C18.7348 28 18.4804 28.1054 18.2929 28.2929C18.1054 28.4804 18 28.7348 18 29V41C18 41.2652 18.1054 41.5196 18.2929 41.7071C18.4804 41.8946 18.7348 42 19 42H31C31.2652 42 31.5196 41.8946 31.7071 41.7071C31.8946 41.5196 32 41.2652 32 41V36.414L35.707 32.707C35.8468 32.5671 35.942 32.389 35.9806 32.195C36.0192 32.0011 35.9993 31.8 35.9237 31.6173C35.848 31.4346 35.7199 31.2785 35.5555 31.1686C35.391 31.0587 35.1978 31 35 31ZM30.293 35.293C30.1054 35.4805 30.0001 35.7348 30 36V40H20V30H30V32C30 32.2652 30.1054 32.5196 30.2929 32.7071C30.4804 32.8946 30.7348 33 31 33H32.586L30.293 35.293Z" fill="#3B8686"/>
<path d="M27 32H23C22.7348 32 22.4804 32.1054 22.2929 32.2929C22.1054 32.4804 22 32.7348 22 33C22 33.2652 22.1054 33.5196 22.2929 33.7071C22.4804 33.8946 22.7348 34 23 34H27C27.2652 34 27.5196 33.8946 27.7071 33.7071C27.8946 33.5196 28 33.2652 28 33C28 32.7348 27.8946 32.4804 27.7071 32.2929C27.5196 32.1054 27.2652 32 27 32V32Z" fill="#3B8686"/>
<path d="M27 36H23C22.7348 36 22.4804 36.1054 22.2929 36.2929C22.1054 36.4804 22 36.7348 22 37C22 37.2652 22.1054 37.5196 22.2929 37.7071C22.4804 37.8946 22.7348 38 23 38H27C27.2652 38 27.5196 37.8946 27.7071 37.7071C27.8946 37.5196 28 37.2652 28 37C28 36.7348 27.8946 36.4804 27.7071 36.2929C27.5196 36.1054 27.2652 36 27 36Z" fill="#3B8686"/>
<path d="M20 26H27C27.2652 26 27.5196 25.8946 27.7071 25.7071C27.8946 25.5196 28 25.2652 28 25C28 24.7348 27.8946 24.4804 27.7071 24.2929C27.5196 24.1054 27.2652 24 27 24H20C19.7348 24 19.4804 24.1054 19.2929 24.2929C19.1054 24.4804 19 24.7348 19 25C19 25.2652 19.1054 25.5196 19.2929 25.7071C19.4804 25.8946 19.7348 26 20 26Z" fill="#3B8686"/>
<path d="M20 22H24C24.2652 22 24.5196 21.8946 24.7071 21.7071C24.8946 21.5196 25 21.2652 25 21C25 20.7348 24.8946 20.4804 24.7071 20.2929C24.5196 20.1054 24.2652 20 24 20H20C19.7348 20 19.4804 20.1054 19.2929 20.2929C19.1054 20.4804 19 20.7348 19 21C19 21.2652 19.1054 21.5196 19.2929 21.7071C19.4804 21.8946 19.7348 22 20 22Z" fill="#3B8686"/>
</svg>
