<?xml version="1.0" encoding="UTF-8" standalone="no"?> <svg id="Layer_1" data-name="Layer 1" xmlns="http://www.w3.org/2000/svg" viewBox="0 0 64 64"><rect x="11" y="52" width="2" height="10"/><path d="M9,52a3,3,0,0,1,3-3H23a1.007,1.007,0,0,0,.453-.108l3.993-2.028a1.012,1.012,0,0,0,.314-.249l4.3-5.136,1.583,1.583-4.333,5.2-6.895,4.925A1,1,0,0,0,22,54v8h2V54.515l6.581-4.7a1.033,1.033,0,0,0,.188-.174L32,48.162l1.231,1.478a1.033,1.033,0,0,0,.188.174L40,54.515V62h2V54a1,1,0,0,0-.419-.814l-6.9-4.925L33.3,46.6l1.46-1.752,1.482,1.765a.98.98,0,0,0,.313.248l3.99,2.03A1,1,0,0,0,41,49H52a3,3,0,0,1,3,3V62h2V52a5.006,5.006,0,0,0-5-5H50.152a5.5,5.5,0,1,0-6.3,0H41.239l-3.594-1.829-1.676-2a.986.986,0,0,0-.262-.882l-3-3A1.032,1.032,0,0,0,31.956,39a1,1,0,0,0-.723.356l-4.875,5.816L22.761,47H20.152a5.5,5.5,0,1,0-6.3,0H12a5.006,5.006,0,0,0-5,5V62H9Zm34.5-9.5A3.5,3.5,0,1,1,47,46,3.5,3.5,0,0,1,43.5,42.5Zm-30,0A3.5,3.5,0,1,1,17,46,3.5,3.5,0,0,1,13.5,42.5Z"/><rect x="51" y="52" width="2" height="10"/><path d="M17.253,21.378l-.933.514a2.526,2.526,0,0,0-1.236,1.567,2.465,2.465,0,0,0,.275,1.925l2.578,4.266a2.657,2.657,0,0,0,3.535.921l.941-.519a.707.707,0,0,1,.757.081A14.737,14.737,0,0,0,26.4,31.924a.6.6,0,0,1,.419.51v1.029A2.576,2.576,0,0,0,29.423,36h5.154a2.576,2.576,0,0,0,2.608-2.537V32.434a.6.6,0,0,1,.419-.51,14.737,14.737,0,0,0,3.226-1.791.713.713,0,0,1,.757-.081l.941.519a2.658,2.658,0,0,0,3.535-.921l2.577-4.266a2.461,2.461,0,0,0,.276-1.925,2.525,2.525,0,0,0-1.237-1.567l-.931-.514a.5.5,0,0,1-.286-.476,13.217,13.217,0,0,0,0-3.8.5.5,0,0,1,.284-.477l.933-.514a2.526,2.526,0,0,0,1.236-1.567,2.465,2.465,0,0,0-.275-1.925L46.063,8.35a2.659,2.659,0,0,0-3.535-.921l-.941.519a.713.713,0,0,1-.757-.081A14.737,14.737,0,0,0,37.6,6.076a.6.6,0,0,1-.419-.51V4.537A2.576,2.576,0,0,0,34.577,2H29.423a2.576,2.576,0,0,0-2.608,2.537V5.566a.6.6,0,0,1-.419.51A14.737,14.737,0,0,0,23.17,7.867a.709.709,0,0,1-.757.081l-.941-.519a2.658,2.658,0,0,0-3.535.921L15.36,12.616a2.461,2.461,0,0,0-.276,1.925,2.525,2.525,0,0,0,1.237,1.567l.931.514a.5.5,0,0,1,.286.476,13.217,13.217,0,0,0,0,3.8A.5.5,0,0,1,17.253,21.378Zm.966,1.751a2.5,2.5,0,0,0,1.3-2.513,11.124,11.124,0,0,1,0-3.232,2.5,2.5,0,0,0-1.3-2.513l-.931-.514a.54.54,0,0,1-.27-.333.463.463,0,0,1,.055-.374l2.577-4.267a.648.648,0,0,1,.856-.2l.941.519a2.713,2.713,0,0,0,2.906-.219,12.753,12.753,0,0,1,2.787-1.547,2.578,2.578,0,0,0,1.676-2.367V4.537A.577.577,0,0,1,29.423,4h5.154a.577.577,0,0,1,.608.537V5.566A2.579,2.579,0,0,0,36.86,7.933,12.737,12.737,0,0,1,39.648,9.48a2.713,2.713,0,0,0,2.906.219L43.5,9.18a.648.648,0,0,1,.856.2l2.578,4.267a.464.464,0,0,1,.054.373.542.542,0,0,1-.269.333l-.933.514a2.5,2.5,0,0,0-1.3,2.513,11.124,11.124,0,0,1,0,3.232,2.5,2.5,0,0,0,1.3,2.513l.931.514a.54.54,0,0,1,.27.333.463.463,0,0,1-.055.374l-2.577,4.267a.648.648,0,0,1-.856.2l-.941-.519a2.715,2.715,0,0,0-2.906.219,12.753,12.753,0,0,1-2.787,1.547,2.578,2.578,0,0,0-1.676,2.367v1.029a.577.577,0,0,1-.608.537H29.423a.577.577,0,0,1-.608-.537V32.434a2.579,2.579,0,0,0-1.675-2.367,12.737,12.737,0,0,1-2.788-1.547,2.776,2.776,0,0,0-1.641-.541,2.61,2.61,0,0,0-1.265.322l-.941.519a.648.648,0,0,1-.856-.2l-2.578-4.267a.464.464,0,0,1-.054-.373.542.542,0,0,1,.269-.333Z"/><path d="M32,27.5A8.5,8.5,0,1,0,23.5,19,8.51,8.51,0,0,0,32,27.5Zm0-15A6.5,6.5,0,1,1,25.5,19,6.508,6.508,0,0,1,32,12.5Z"/></svg>