<?xml version="1.0" encoding="UTF-8" standalone="no"?> <svg width="64" height="64" viewBox="0 0 64 64" fill="none" xmlns="http://www.w3.org/2000/svg">
<path d="M47 8H37C37 6.67392 36.4732 5.40215 35.5355 4.46447C34.5979 3.52678 33.3261 3 32 3C30.6739 3 29.4021 3.52678 28.4645 4.46447C27.5268 5.40215 27 6.67392 27 8H17C15.4087 8 13.8826 8.63214 12.7574 9.75736C11.6321 10.8826 11 12.4087 11 14V55C11 56.5913 11.6321 58.1174 12.7574 59.2426C13.8826 60.3679 15.4087 61 17 61H47C48.5913 61 50.1174 60.3679 51.2426 59.2426C52.3679 58.1174 53 56.5913 53 55V14C53 12.4087 52.3679 10.8826 51.2426 9.75736C50.1174 8.63214 48.5913 8 47 8V8Z" fill="url(#paint0_linear)"/>
<path d="M45.83 11.8201H40.5C40.2348 11.8201 39.9804 11.9254 39.7929 12.113C39.6054 12.3005 39.5 12.5549 39.5 12.8201V13.2201C39.5 13.4269 39.4178 13.6253 39.2715 13.7716C39.1253 13.9179 38.9269 14.0001 38.72 14.0001H25.28C25.0731 14.0001 24.8747 13.9179 24.7285 13.7716C24.5822 13.6253 24.5 13.4269 24.5 13.2201V12.8201C24.5 12.5549 24.3946 12.3005 24.2071 12.113C24.0196 11.9254 23.7652 11.8201 23.5 11.8201H18.17C17.3283 11.8227 16.5221 12.1589 15.9279 12.755C15.3337 13.3511 15 14.1584 15 15.0001V54.0001C15 54.8417 15.3337 55.6491 15.9279 56.2451C16.5221 56.8412 17.3283 57.1774 18.17 57.1801H45.83C46.6717 57.1774 47.4779 56.8412 48.0721 56.2451C48.6663 55.6491 49 54.8417 49 54.0001V15.0001C49 14.1584 48.6663 13.3511 48.0721 12.755C47.4779 12.1589 46.6717 11.8227 45.83 11.8201V11.8201Z" fill="url(#paint1_linear)"/>
<path d="M40.5 8H37C37 6.67392 36.4732 5.40215 35.5355 4.46447C34.5979 3.52678 33.3261 3 32 3C30.6739 3 29.4021 3.52678 28.4645 4.46447C27.5268 5.40215 27 6.67392 27 8H23.5C23.2348 8 22.9804 8.10536 22.7929 8.29289C22.6054 8.48043 22.5 8.73478 22.5 9V13.22C22.5026 13.9565 22.7964 14.6621 23.3172 15.1828C23.8379 15.7036 24.5435 15.9974 25.28 16H38.72C39.4565 15.9974 40.1621 15.7036 40.6828 15.1828C41.2036 14.6621 41.4974 13.9565 41.5 13.22V9C41.5 8.73478 41.3946 8.48043 41.2071 8.29289C41.0196 8.10536 40.7652 8 40.5 8Z" fill="url(#paint2_linear)"/>
<path d="M26.2799 17.9999C26.1689 17.9296 26.0452 17.8819 25.9158 17.8594C25.7864 17.837 25.6538 17.8403 25.5257 17.869C25.3975 17.8978 25.2763 17.9516 25.1689 18.0272C25.0616 18.1029 24.9701 18.1989 24.8999 18.3099L22.3799 22.3099L20.8299 20.8999C20.6334 20.7226 20.3747 20.6305 20.1104 20.6436C19.8462 20.6567 19.5978 20.7741 19.4199 20.9699C19.33 21.0668 19.2602 21.1805 19.2145 21.3045C19.1688 21.4285 19.1481 21.5604 19.1537 21.6924C19.1593 21.8245 19.191 21.9541 19.247 22.0738C19.303 22.1935 19.3821 22.301 19.4799 22.3899L21.9199 24.5999C22.1033 24.7666 22.3421 24.8593 22.5899 24.8599H22.7299C22.8747 24.8398 23.0133 24.7882 23.1359 24.7087C23.2586 24.6292 23.3624 24.5238 23.4399 24.3999L26.5899 19.3999C26.6633 19.2882 26.7136 19.1629 26.7378 19.0314C26.762 18.8999 26.7595 18.7649 26.7306 18.6344C26.7017 18.5039 26.6469 18.3805 26.5695 18.2715C26.4921 18.1625 26.3936 18.0702 26.2799 17.9999V17.9999Z" fill="url(#paint3_linear)"/>
<path d="M26.2799 30.34C26.169 30.2697 26.0453 30.222 25.9158 30.1995C25.7864 30.1771 25.6539 30.1803 25.5257 30.2091C25.3976 30.2379 25.2763 30.2917 25.169 30.3673C25.0616 30.443 24.9702 30.539 24.8999 30.65L22.3799 34.65L20.8299 33.23C20.7328 33.1413 20.6191 33.0727 20.4954 33.028C20.3717 32.9833 20.2404 32.9634 20.109 32.9694C19.9776 32.9755 19.8487 33.0073 19.7296 33.0632C19.6105 33.119 19.5036 33.1978 19.4149 33.295C19.3263 33.3922 19.2577 33.5059 19.213 33.6296C19.1682 33.7533 19.1483 33.8846 19.1544 34.0159C19.1604 34.1473 19.1923 34.2763 19.2481 34.3953C19.304 34.5144 19.3828 34.6213 19.4799 34.71L21.9199 36.93C22.1062 37.092 22.3431 37.184 22.5899 37.19H22.7299C22.8747 37.1699 23.0133 37.1182 23.136 37.0388C23.2586 36.9593 23.3624 36.8539 23.4399 36.73L26.5899 31.73C26.6618 31.6186 26.7108 31.4941 26.7341 31.3637C26.7574 31.2332 26.7545 31.0995 26.7257 30.9701C26.6968 30.8408 26.6426 30.7185 26.5661 30.6103C26.4895 30.5021 26.3923 30.4103 26.2799 30.34Z" fill="url(#paint4_linear)"/>
<path d="M26.2799 42.15C26.169 42.0798 26.0453 42.032 25.9158 42.0096C25.7864 41.9871 25.6539 41.9904 25.5257 42.0192C25.3976 42.048 25.2763 42.1017 25.169 42.1774C25.0616 42.253 24.9702 42.3491 24.8999 42.46L22.3799 46.46L20.8299 45C20.6337 44.821 20.3743 44.7273 20.109 44.7395C19.8436 44.7517 19.594 44.8688 19.4149 45.065C19.2359 45.2613 19.1422 45.5206 19.1544 45.786C19.1666 46.0514 19.2837 46.301 19.4799 46.48L21.9199 48.69C22.1033 48.8567 22.3421 48.9494 22.5899 48.95H22.7299C22.8738 48.9311 23.0119 48.881 23.1345 48.8033C23.2571 48.7256 23.3613 48.6221 23.4399 48.5L26.5899 43.5C26.7225 43.2785 26.7643 43.0143 26.7065 42.7627C26.6487 42.5111 26.4959 42.2915 26.2799 42.15V42.15Z" fill="url(#paint5_linear)"/>
<path d="M44 33H29C28.7348 33 28.4804 33.1054 28.2929 33.2929C28.1054 33.4804 28 33.7348 28 34C28 34.2652 28.1054 34.5196 28.2929 34.7071C28.4804 34.8946 28.7348 35 29 35H44C44.2652 35 44.5196 34.8946 44.7071 34.7071C44.8946 34.5196 45 34.2652 45 34C45 33.7348 44.8946 33.4804 44.7071 33.2929C44.5196 33.1054 44.2652 33 44 33Z" fill="url(#paint6_linear)"/>
<path d="M29 23H44C44.2652 23 44.5196 22.8946 44.7071 22.7071C44.8946 22.5196 45 22.2652 45 22C45 21.7348 44.8946 21.4804 44.7071 21.2929C44.5196 21.1054 44.2652 21 44 21H29C28.7348 21 28.4804 21.1054 28.2929 21.2929C28.1054 21.4804 28 21.7348 28 22C28 22.2652 28.1054 22.5196 28.2929 22.7071C28.4804 22.8946 28.7348 23 29 23Z" fill="url(#paint7_linear)"/>
<path d="M44 25H37C36.7348 25 36.4804 25.1054 36.2929 25.2929C36.1054 25.4804 36 25.7348 36 26C36 26.2652 36.1054 26.5196 36.2929 26.7071C36.4804 26.8946 36.7348 27 37 27H44C44.2652 27 44.5196 26.8946 44.7071 26.7071C44.8946 26.5196 45 26.2652 45 26C45 25.7348 44.8946 25.4804 44.7071 25.2929C44.5196 25.1054 44.2652 25 44 25Z" fill="url(#paint8_linear)"/>
<path d="M44 37H37C36.7348 37 36.4804 37.1054 36.2929 37.2929C36.1054 37.4804 36 37.7348 36 38C36 38.2652 36.1054 38.5196 36.2929 38.7071C36.4804 38.8946 36.7348 39 37 39H44C44.2652 39 44.5196 38.8946 44.7071 38.7071C44.8946 38.5196 45 38.2652 45 38C45 37.7348 44.8946 37.4804 44.7071 37.2929C44.5196 37.1054 44.2652 37 44 37Z" fill="url(#paint9_linear)"/>
<path d="M44 49H37C36.7348 49 36.4804 49.1054 36.2929 49.2929C36.1054 49.4804 36 49.7348 36 50C36 50.2652 36.1054 50.5196 36.2929 50.7071C36.4804 50.8946 36.7348 51 37 51H44C44.2652 51 44.5196 50.8946 44.7071 50.7071C44.8946 50.5196 45 50.2652 45 50C45 49.7348 44.8946 49.4804 44.7071 49.2929C44.5196 49.1054 44.2652 49 44 49Z" fill="url(#paint10_linear)"/>
<path d="M44 45H29C28.7348 45 28.4804 45.1054 28.2929 45.2929C28.1054 45.4804 28 45.7348 28 46C28 46.2652 28.1054 46.5196 28.2929 46.7071C28.4804 46.8946 28.7348 47 29 47H44C44.2652 47 44.5196 46.8946 44.7071 46.7071C44.8946 46.5196 45 46.2652 45 46C45 45.7348 44.8946 45.4804 44.7071 45.2929C44.5196 45.1054 44.2652 45 44 45Z" fill="url(#paint11_linear)"/>
<path d="M20.9199 12.4401C19.2199 10.5501 14.4899 16.7101 15.9199 18.1401C17.5899 20.0001 22.3199 13.8701 20.9199 12.4401Z" fill="white"/>
<path d="M13.2 21.1499C11.81 23.1499 12.82 24.8599 14.49 22.4499C15.88 20.4199 14.86 18.7399 13.2 21.1499Z" fill="white"/>
<defs>
<linearGradient id="paint0_linear" x1="11" y1="32" x2="53" y2="32" gradientUnits="userSpaceOnUse">
<stop stop-color="#418607"/>
<stop offset="0.91" stop-color="#206507"/>
<stop offset="1" stop-color="#1D6207"/>
</linearGradient>
<linearGradient id="paint1_linear" x1="15" y1="34.5001" x2="49" y2="34.5001" gradientUnits="userSpaceOnUse">
<stop stop-color="#B7D389"/>
<stop offset="0.22" stop-color="#A1C571"/>
<stop offset="0.69" stop-color="#69A134"/>
<stop offset="1" stop-color="#418808"/>
</linearGradient>
<linearGradient id="paint2_linear" x1="450" y1="126.5" x2="811" y2="126.5" gradientUnits="userSpaceOnUse">
<stop stop-color="#418607"/>
<stop offset="0.91" stop-color="#206507"/>
<stop offset="1" stop-color="#1D6207"/>
</linearGradient>
<linearGradient id="paint3_linear" x1="164.796" y1="167.689" x2="222.491" y2="167.689" gradientUnits="userSpaceOnUse">
<stop stop-color="#418607"/>
<stop offset="0.91" stop-color="#206507"/>
<stop offset="1" stop-color="#1D6207"/>
</linearGradient>
<linearGradient id="paint4_linear" x1="164.699" y1="266.119" x2="222.355" y2="266.119" gradientUnits="userSpaceOnUse">
<stop stop-color="#418607"/>
<stop offset="0.91" stop-color="#206507"/>
<stop offset="1" stop-color="#1D6207"/>
</linearGradient>
<linearGradient id="paint5_linear" x1="164.359" y1="358.455" x2="221.88" y2="358.455" gradientUnits="userSpaceOnUse">
<stop stop-color="#418607"/>
<stop offset="0.91" stop-color="#206507"/>
<stop offset="1" stop-color="#1D6207"/>
</linearGradient>
<linearGradient id="paint6_linear" x1="504" y1="101" x2="793" y2="101" gradientUnits="userSpaceOnUse">
<stop stop-color="#418607"/>
<stop offset="0.91" stop-color="#206507"/>
<stop offset="1" stop-color="#1D6207"/>
</linearGradient>
<linearGradient id="paint7_linear" x1="504" y1="65" x2="793" y2="65" gradientUnits="userSpaceOnUse">
<stop stop-color="#418607"/>
<stop offset="0.91" stop-color="#206507"/>
<stop offset="1" stop-color="#1D6207"/>
</linearGradient>
<linearGradient id="paint8_linear" x1="360" y1="77" x2="441" y2="77" gradientUnits="userSpaceOnUse">
<stop stop-color="#418607"/>
<stop offset="0.91" stop-color="#206507"/>
<stop offset="1" stop-color="#1D6207"/>
</linearGradient>
<linearGradient id="paint9_linear" x1="360" y1="113" x2="441" y2="113" gradientUnits="userSpaceOnUse">
<stop stop-color="#418607"/>
<stop offset="0.91" stop-color="#206507"/>
<stop offset="1" stop-color="#1D6207"/>
</linearGradient>
<linearGradient id="paint10_linear" x1="360" y1="149" x2="441" y2="149" gradientUnits="userSpaceOnUse">
<stop stop-color="#418607"/>
<stop offset="0.91" stop-color="#206507"/>
<stop offset="1" stop-color="#1D6207"/>
</linearGradient>
<linearGradient id="paint11_linear" x1="504" y1="137" x2="793" y2="137" gradientUnits="userSpaceOnUse">
<stop stop-color="#418607"/>
<stop offset="0.91" stop-color="#206507"/>
<stop offset="1" stop-color="#1D6207"/>
</linearGradient>
</defs>
</svg>
