<?xml version="1.0" encoding="iso-8859-1"?>
<!-- Generator: Adobe Illustrator 21.1.0, SVG Export Plug-In . SVG Version: 6.00 Build 0)  -->
<svg version="1.1" id="contact-us-email-chat-question-answer-reply"
	 xmlns="http://www.w3.org/2000/svg" xmlns:xlink="http://www.w3.org/1999/xlink" x="0px" y="0px" viewBox="0 0 96 96"
	 style="enable-background:new 0 0 96 96;" xml:space="preserve">
<linearGradient id="SVGID_1_" gradientUnits="userSpaceOnUse" x1="14.0589" y1="81.9411" x2="81.9411" y2="14.0589">
	<stop  offset="0" style="stop-color:#EECDA3"/>
	<stop  offset="0.5005" style="stop-color:#EF629F"/>
	<stop  offset="1" style="stop-color:#A046D6"/>
</linearGradient>
<circle style="fill:url(#SVGID_1_);" cx="48" cy="48" r="48"/>
<path style="fill:#FFFFFF;" d="M77,18H36c-0.553,0-1,0.448-1,1v6H19c-0.553,0-1,0.448-1,1v16c0,0.552,0.447,1,1,1h15.586
	l5.707,5.707C40.484,48.898,40.74,49,41,49c0.129,0,0.259-0.025,0.383-0.076C41.757,48.769,42,48.404,42,48v-5h9
	c0.553,0,1-0.448,1-1v-4h12v6c0,0.418,0.261,0.792,0.653,0.938C64.767,44.98,64.884,45,65,45c0.286,0,0.565-0.123,0.759-0.349
	L71.46,38H77c0.553,0,1-0.448,1-1V19C78,18.448,77.553,18,77,18z M50,41h-9c-0.553,0-1,0.448-1,1v3.586l-4.293-4.293
	C35.519,41.105,35.266,41,35,41H20V27h16h14v10V41z M76,36h-5c-0.292,0-0.569,0.127-0.759,0.349L66,41.297V37c0-0.552-0.447-1-1-1
	H52V26c0-0.552-0.447-1-1-1H37v-5h39V36z"/>
<path style="fill:#FFFFFF;" d="M69.962,52.727c-0.007-0.023-0.022-0.041-0.03-0.063c-0.016-0.043-0.036-0.082-0.057-0.122
	c-0.036-0.069-0.077-0.131-0.127-0.188c-0.029-0.033-0.057-0.064-0.089-0.093c-0.06-0.054-0.127-0.096-0.198-0.134
	c-0.035-0.018-0.065-0.04-0.102-0.054C69.245,52.029,69.126,52,69,52H27c-0.126,0-0.246,0.029-0.358,0.072
	c-0.037,0.014-0.067,0.036-0.102,0.054c-0.072,0.038-0.138,0.08-0.198,0.134c-0.033,0.029-0.061,0.06-0.089,0.093
	c-0.05,0.058-0.091,0.12-0.127,0.188c-0.021,0.04-0.042,0.078-0.057,0.122c-0.008,0.022-0.023,0.04-0.03,0.064
	c-0.018,0.064-0.017,0.129-0.022,0.194C26.014,52.948,26,52.972,26,53v24c0,0.553,0.447,1,1,1h42c0.553,0,1-0.447,1-1V53
	c0-0.028-0.014-0.052-0.016-0.079C69.979,52.856,69.98,52.791,69.962,52.727z M65.484,54L48,64.824L30.516,54H65.484z M28,76V54.795
	l19.474,12.056C47.635,66.95,47.817,67,48,67c0.183,0,0.365-0.05,0.526-0.149L68,54.795V76H28z"/>
<rect x="28" y="33" style="fill:#FFFFFF;" width="3" height="2"/>
<rect x="34" y="33" style="fill:#FFFFFF;" width="3" height="2"/>
<rect x="40" y="33" style="fill:#FFFFFF;" width="3" height="2"/>
<rect x="55" y="27" style="fill:#FFFFFF;" width="3" height="2"/>
<rect x="61" y="27" style="fill:#FFFFFF;" width="3" height="2"/>
<rect x="73" y="64" style="fill:#FFFFFF;" width="3" height="2"/>
<rect x="71.586" y="58" transform="matrix(0.7071 -0.7071 0.7071 0.7071 -20.3381 68.8995)" style="fill:#FFFFFF;" width="2.828" height="2"/>
<rect x="72" y="69.586" transform="matrix(0.7071 -0.7071 0.7071 0.7071 -28.8234 72.4142)" style="fill:#FFFFFF;" width="2" height="2.828"/>
<rect x="20" y="64" style="fill:#FFFFFF;" width="3" height="2"/>
<rect x="22" y="57.586" transform="matrix(0.7071 -0.7071 0.7071 0.7071 -34.9828 33.5442)" style="fill:#FFFFFF;" width="2" height="2.828"/>
<rect x="21.586" y="70" transform="matrix(0.7071 -0.7071 0.7071 0.7071 -43.468 37.0589)" style="fill:#FFFFFF;" width="2.828" height="2"/>
</svg>
