<?xml version="1.0" encoding="UTF-8" standalone="no"?> <svg id="Layer_1" data-name="Layer 1" xmlns="http://www.w3.org/2000/svg" viewBox="0 0 128 128"><defs><style>.cls-1{fill:#2d3e50;}.cls-2{fill:#1d75b8;}</style></defs><title>b</title><path class="cls-1" d="M77.49743,48.4106a4.35225,4.35225,0,0,0-1.81854-.35367l-13.46162.693L52.02618,36.53228a7.7797,7.7797,0,0,0-.739-.76807c-.04751-.03958-.10028-.07654-.15043-.11349a6.216,6.216,0,0,0-2.1036-1.01087c-.03958-.01057-.08182-.02112-.12142-.03169a7.349,7.349,0,0,0-.98184-.198c-2.65522-.359-5.31836-.673-7.97621-1.00823a2.14512,2.14512,0,0,0-2.24085,1.04783c-1.19563,1.84228-2.423,3.66611-3.6397,5.4952-.70207,1.05311-1.40944,2.101-2.18542,3.25963-.01055-.01319-.01584-.02375-.02639-.03694a.31973.31973,0,0,1-.02639.03694c-.776-1.15868-1.48333-2.20652-2.18542-3.25963-1.21675-1.82909-2.44407-3.65291-3.6397-5.4952A2.1451,2.1451,0,0,0,23.76894,33.402c-.95546.1214-1.91355.23753-2.87165.35631-1.70241.21115-3.40481.42229-5.10457.65192a7.44887,7.44887,0,0,0-1.68657.425.22268.22268,0,0,1-.03167.01055,6.5529,6.5529,0,0,0-3.56581,2.92971,6.30114,6.30114,0,0,0-.36159.71792L3.10519,55.01587l-.25074.58859a4.57949,4.57949,0,0,0-.08445,3.381l.72055,1.969L9.189,76.53742a4.47273,4.47273,0,0,0,5.40547,2.75288,4.45571,4.45571,0,0,0,3.06432-5.50312L16.2942,68.99934,13.214,58.17787l2.64731-4.20718c.01584.30088.029.59386.037.88683.02639.96338.05542,1.92675.08182,2.89013.02639.9.05015,1.79742.07389,2.69744l3.63444,12.76406A6.56989,6.56989,0,0,1,18.05731,79.607a6.40687,6.40687,0,0,1-1.43318,1.10326q.34047,12.26521.68095,24.52779c.07919,2.86372.19533,7.2715.29825,10.97983a8.84517,8.84517,0,0,0,8.77859,8.60176l5.47936.03958,5.47936-.03958a8.84517,8.84517,0,0,0,8.77859-8.60176c.10294-3.70833.21906-8.1161.29825-10.97983q.70074-25.18764,1.40678-50.38056c.02376-.83668.07919-2.47046.14254-3.81127,0,0,7.07354,7.0234,9.02405,8.60176a6.08962,6.08962,0,0,0,1.30912.8182,4.365,4.365,0,0,0,.94755.01055l16.94341-3.67291a4.38334,4.38334,0,0,0,1.3065-8.39325Z"/><path class="cls-1" d="M22.657,21.73558a9.37659,9.37659,0,0,0,18.409,0l1.43035-7.38406A9.87821,9.87821,0,0,0,32.70665,3.14076H31.01627a9.87821,9.87821,0,0,0-9.78965,11.21076Z"/><path class="cls-2" d="M121.75352,90.12452c-.45747-.0605-.91493-.11216-1.37114-.16509a25.27905,25.27905,0,0,0-3.91556-9.419q.43289-.54254.85948-1.09263c.7763-.99685,1.54127-2.005,2.27221-3.046l-5.79206-5.79206c-1.041.73095-2.04915,1.4959-3.046,2.27222q-.55009.42533-1.09263.85948a25.28536,25.28536,0,0,0-9.43037-3.91809q-.0775-.68431-.16383-1.36862c-.15627-1.25268-.32766-2.50662-.54694-3.7593H91.33513c-.218,1.25268-.38942,2.50662-.54695,3.7593q-.087.68431-.16257,1.36862A25.27043,25.27043,0,0,0,81.194,73.74141q-.54253-.43478-1.09263-.85948c-.99685-.77631-2.00378-1.54127-3.04474-2.27222l-5.79332,5.79206c.7322,1.041,1.49717,2.04915,2.27222,3.046q.42722.54821.85948,1.09137a25.29119,25.29119,0,0,0-3.91809,9.43163q-.68431.07751-1.36736.16383c-1.25394.15628-2.50662.32767-3.76056.54695V98.8731c1.25394.218,2.50662.38942,3.76056.54695q.68431.08695,1.36736.16258a25.278,25.278,0,0,0,3.91178,9.42281c-.28859.36293-.57718.72588-.85948,1.09388-.77379.99936-1.53623,2.00881-2.26592,3.0523l5.79332,5.79206c1.04347-.72842,2.05293-1.49086,3.0523-2.26465.368-.28229.73094-.57089,1.09389-.85948a25.284,25.284,0,0,0,9.41147,3.90925c.05167.45622.1046.91367.16509,1.3699.15879,1.25393.33271,2.5066.55577,3.76055h8.19156c.22306-1.25395.39823-2.50662.557-3.76055.06049-.45622.11216-.91367.16509-1.3699a25.28681,25.28681,0,0,0,9.41021-3.90925c.36295.28858.72716.57718,1.09515.85948.99812.77379,2.00756,1.53622,3.0523,2.26465l5.79206-5.79206c-.72841-1.04348-1.49086-2.05293-2.26591-3.0523-.28229-.36924-.57088-.73221-.85822-1.09514a25.28463,25.28463,0,0,0,3.908-9.41021c.45621-.05294.91367-.10459,1.37114-.1651,1.25268-.15878,2.50662-.33271,3.75929-.55576V90.68155C124.26014,90.45848,123.0062,90.28332,121.75352,90.12452ZM103.5103,110.6891a17.84433,17.84433,0,0,1-23.99118-7.83364,17.5194,17.5194,0,0,1-1.06112-2.55829,17.795,17.795,0,0,1,1.06994-13.61562,17.95947,17.95947,0,0,1,7.80718-7.80718,17.57723,17.57723,0,0,1,2.57592-1.0712,17.8721,17.8721,0,0,1,11.041.00126,17.55689,17.55689,0,0,1,2.57467,1.06994,17.95955,17.95955,0,0,1,7.80718,7.80718,17.79018,17.79018,0,0,1,.00882,16.17392A17.964,17.964,0,0,1,103.5103,110.6891Z"/><polygon class="cls-2" points="95.431 80.663 93.89 81.782 94.479 83.593 96.383 83.593 96.972 81.782 95.431 80.663"/><polygon class="cls-2" points="107.71 87.71 105.97 86.936 104.696 88.352 105.649 90.001 107.512 89.604 107.71 87.71"/><polygon class="cls-2" points="107.754 101.868 107.553 99.974 105.69 99.58 104.739 101.23 106.015 102.644 107.754 101.868"/><polygon class="cls-2" points="95.519 108.991 97.058 107.869 96.466 106.059 94.562 106.062 93.976 107.874 95.519 108.991"/><polygon class="cls-2" points="83.228 101.964 84.97 102.735 86.241 101.317 85.285 99.669 83.423 100.069 83.228 101.964"/><polygon class="cls-2" points="83.161 87.806 83.366 89.7 85.229 90.091 86.177 88.439 84.899 87.027 83.161 87.806"/><circle class="cls-2" cx="95.4309" cy="94.77733" r="6.37352"/></svg>