<svg xmlns="http://www.w3.org/2000/svg" viewBox="0 0 2706.74 1806.42"><defs><style>.cls-1{isolation:isolate;}.cls-2{fill:#feefdc;}.cls-3{fill:#21111d;}.cls-4{fill:#ea2d3f;}.cls-5{fill:#ff424d;}.cls-6{fill:#258d8c;}.cls-7{fill:#4cb7d8;}.cls-8{fill:#3aa1c9;}.cls-9{fill:#dcf4ff;}.cls-10{fill:#fe9f73;}.cls-11{fill:#351b2e;}.cls-12{fill:#49263e;}.cls-13{fill:#f07162;}.cls-14{fill:#aac9f8;}.cls-15{fill:#d6e8f4;}.cls-16{fill:#f75553;}.cls-17{fill:#397fa1;}.cls-18{fill:#61a3c5;}.cls-19{fill:#ef3a4c;}.cls-20{fill:#f46e6e;}.cls-21{fill:#fff;}.cls-22{fill:#edfcfb;}.cls-23{fill:#fec786;}.cls-24{fill:#d82540;}.cls-25{fill:#7fc6a6;}.cls-26{fill:#3f9896;}.cls-27{fill:#4c222e;}.cls-28{fill:#f99247;}.cls-29{fill:#472a31;}.cls-30{fill:#d7e4f7;}.cls-31{fill:#683d46;}.cls-32{fill:#fd7583;}.cls-33{fill:#f9b59d;}.cls-34{fill:#e23e3d;}.cls-35{fill:#cc2323;}.cls-36{fill:#e2f2f1;}.cls-37{fill:#fbfdfc;}.cls-38,.cls-43{fill:#fecc86;}.cls-39{fill:#f78c63;}.cls-40{fill:#f7ab48;}.cls-41{fill:#3a1f33;}.cls-42{fill:#febac7;}.cls-43{mix-blend-mode:multiply;opacity:0.3;}.cls-44{opacity:0.5;}.cls-45{fill:#f3fffe;}</style></defs><g class="cls-1"><g id="Layer_2" data-name="Layer 2"><g id="Layer_1-2" data-name="Layer 1"><path class="cls-2" d="M2371.11,1800.89l204,2c170.32-148.79,166.89-577.22,38.33-757.39-216-302.72-297.4-244.62-410.5-351.19S2209.3,196.2,1887.4,46.13,1130.51,152.71,954.34,239.7s-258.82,30.45-361-4.35S280.1,237.53,114.8,526.8,8.23,1168.42,40.86,1301.51s45.67,125.73-23.93,273.1c-51.2,108.41,25.89,191.77,70.23,228.28h2284Z"/><path class="cls-3" d="M1940,626.2a2.61,2.61,0,0,0,2.49-1.85c.06-.19,1.43-4.73,3.29-12.75a2.6,2.6,0,1,0-5.07-1.18c-1.82,7.84-3.18,12.38-3.2,12.42a2.61,2.61,0,0,0,1.74,3.25A2.78,2.78,0,0,0,1940,626.2Z"/><path class="cls-3" d="M1947.91,587.55a2.59,2.59,0,0,1-2.16-3c1.38-8.67,2.49-17.46,3.3-26.14a2.6,2.6,0,1,1,5.18.48c-.82,8.79-1.94,17.7-3.34,26.47a2.62,2.62,0,0,1-2.57,2.2A2,2,0,0,1,1947.91,587.55Zm5.2-52.74a2.6,2.6,0,0,1-2.54-2.66c.06-2.67.09-5.36.09-8,0-6.17-.17-12.34-.5-18.33a2.6,2.6,0,0,1,5.2-.29c.33,6.09.5,12.36.5,18.62,0,2.66,0,5.39-.09,8.1a2.6,2.6,0,0,1-2.6,2.54Zm-5.52-55.13c-1.27-8.83-3-17.49-5-25.75a2.6,2.6,0,1,1,5.05-1.25,266.37,266.37,0,0,1,5.11,26.26,2.6,2.6,0,0,1-2.2,2.95l-.38,0A2.6,2.6,0,0,1,1947.59,479.68Zm-234.32-25.8a48.35,48.35,0,0,1-24.61-12.45,2.6,2.6,0,1,1,3.58-3.78,43.2,43.2,0,0,0,22,11.13,2.6,2.6,0,0,1-.49,5.15A2.18,2.18,0,0,1,1713.27,453.88Zm24.28-2.67a2.6,2.6,0,0,1,1.58-3.33c7-2.5,13-8.25,17.25-16.62a2.6,2.6,0,0,1,4.63,2.38c-4.91,9.57-11.87,16.19-20.13,19.14a2.71,2.71,0,0,1-.88.15A2.61,2.61,0,0,1,1737.55,451.21Zm197.27-22.29a200.7,200.7,0,0,0-10.75-23.85,2.6,2.6,0,1,1,4.59-2.45,206.16,206.16,0,0,1,11,24.46,2.6,2.6,0,0,1-1.52,3.36,2.65,2.65,0,0,1-.91.16A2.61,2.61,0,0,1,1934.82,428.92ZM1674.24,418a82.26,82.26,0,0,1-4-26.22v-.72a2.59,2.59,0,0,1,2.6-2.59h0a2.6,2.6,0,0,1,2.59,2.61v.7a77.13,77.13,0,0,0,3.77,24.57,2.6,2.6,0,0,1-1.64,3.29,2.73,2.73,0,0,1-.83.14A2.59,2.59,0,0,1,1674.24,418Zm91.31-8.36a2.6,2.6,0,0,1-2.29-2.88,109,109,0,0,0,.65-12,129,129,0,0,0-.77-13.85,2.6,2.6,0,0,1,2.3-2.87,2.62,2.62,0,0,1,2.87,2.3,131.92,131.92,0,0,1,.81,14.42,112.09,112.09,0,0,1-.7,12.62,2.6,2.6,0,0,1-2.58,2.31Zm144.64-26.71a177.35,177.35,0,0,0-16.91-19.88,2.6,2.6,0,0,1,3.7-3.66,183.81,183.81,0,0,1,17.41,20.47,2.6,2.6,0,1,1-4.2,3.07Zm-234.35-15.53a2.62,2.62,0,0,1-1.81-3.21,104.32,104.32,0,0,1,10.58-25,2.6,2.6,0,1,1,4.48,2.64,98.68,98.68,0,0,0-10,23.73,2.6,2.6,0,0,1-2.51,1.9A2.86,2.86,0,0,1,1675.84,367.41Zm82.21-12.07a177.7,177.7,0,0,0-9.06-24.49,2.6,2.6,0,1,1,4.74-2.15,183.6,183.6,0,0,1,9.32,25.2,2.6,2.6,0,0,1-1.78,3.22,2.55,2.55,0,0,1-.72.1A2.6,2.6,0,0,1,1758.05,355.34Zm115.66-9.65a216.65,216.65,0,0,0-21.55-14.87,2.6,2.6,0,1,1,2.68-4.46,220.39,220.39,0,0,1,22.08,15.23,2.6,2.6,0,0,1,.44,3.65,2.57,2.57,0,0,1-2,1A2.61,2.61,0,0,1,1873.71,345.69Zm-171.8-23.59a2.6,2.6,0,0,1,.35-3.66,81.74,81.74,0,0,1,23.67-13.51,2.6,2.6,0,0,1,1.81,4.87,76.89,76.89,0,0,0-22.17,12.65,2.57,2.57,0,0,1-1.65.59A2.61,2.61,0,0,1,1701.91,322.1Zm127-3.38a189.57,189.57,0,0,0-24.57-8.91,2.6,2.6,0,1,1,1.43-5,192.71,192.71,0,0,1,25.25,9.16,2.6,2.6,0,0,1-1.06,5A2.65,2.65,0,0,1,1828.94,318.72Zm-92.37-10.88a209.34,209.34,0,0,0-15.32-21.22,2.6,2.6,0,1,1,4-3.3,213.3,213.3,0,0,1,15.7,21.75,2.6,2.6,0,1,1-4.4,2.77Zm42.25-3.15a128.63,128.63,0,0,0-25.94-.43,2.57,2.57,0,0,1-2.82-2.35,2.6,2.6,0,0,1,2.36-2.83,133.88,133.88,0,0,1,27,.44,2.6,2.6,0,0,1-.29,5.18Zm-75.39-37.19A170.2,170.2,0,0,0,1683,251.28a2.6,2.6,0,0,1,2.92-4.31A177.15,177.15,0,0,1,1707,263.68a2.6,2.6,0,0,1-3.54,3.82Zm-43-29.42a240.05,240.05,0,0,0-24.08-10.42,2.6,2.6,0,0,1,1.81-4.88,243.84,243.84,0,0,1,24.6,10.65,2.6,2.6,0,0,1-1.17,4.93A2.54,2.54,0,0,1,1660.4,238.08Zm-49.12-18.39c-8.23-2.22-16.87-4.18-25.67-5.82a2.6,2.6,0,1,1,1-5.12c8.93,1.67,17.7,3.66,26.06,5.91a2.6,2.6,0,0,1-.67,5.12A2.71,2.71,0,0,1,1611.28,219.69Zm-51.72-9.75c-8.63-1-17.47-1.75-26.28-2.21a2.6,2.6,0,0,1,.27-5.2c8.92.47,17.87,1.22,26.61,2.24a2.6,2.6,0,0,1-.3,5.18Z"/><path class="cls-3" d="M1493.74,207.68h.2s4.79-.36,12.83-.47a2.6,2.6,0,0,0,0-5.2h0c-8.22.11-13,.47-13.15.48a2.6,2.6,0,0,0,.19,5.2Z"/><path class="cls-4" d="M1457.9,231.54l-14.69-16.83s-72.88-7.91-73.9-8.42L1330.83,187l47.08-2.73,77,11.08Z"/><polygon class="cls-5" points="1472.31 157.65 1330.83 186.97 1454.87 195.32 1472.31 157.65"/><polygon class="cls-5" points="1443.21 214.71 1424.92 254.82 1330.83 186.97 1443.21 214.71"/><path class="cls-6" d="M2037.12,1802.41c9.83-9.7,86.51-145.45,139.6-75.63,0,0,86.76-196.84,196.62-158.3,0,0,70,40,19.17,139.63,0,0,169.59-10.66,167.38,94.3Z"/><path d="M2299.53,1591.4a.85.85,0,0,1-.68-.33.84.84,0,0,1,.14-1.19c.86-.67,21.19-16.3,39.77-18.5a.85.85,0,1,1,.2,1.69c-18.09,2.14-38.7,18-38.9,18.15A.89.89,0,0,1,2299.53,1591.4Z"/><path d="M2299.53,1601.26a.85.85,0,0,1-.67-.32.83.83,0,0,1,.12-1.19c.14-.11,14.07-11.15,31.85-16.26a.85.85,0,1,1,.48,1.63c-17.43,5-31.11,15.84-31.24,16A.91.91,0,0,1,2299.53,1601.26Z"/><ellipse class="cls-6" cx="2477.95" cy="1546.52" rx="55.12" ry="29.6" transform="translate(-305.15 2433.25) rotate(-49.64)"/><path class="cls-6" d="M2484.91,1619.49c-11.59,13.8-14.92,30-7.42,36.08s23-.1,34.56-13.89,14.92-30,7.43-36.08S2496.51,1605.7,2484.91,1619.49Z"/><rect class="cls-7" x="583.24" y="1302.96" width="149" height="312.17"/><path class="cls-7" d="M209,1416.42V988.79A36.79,36.79,0,0,1,245.8,952h829.13a36.79,36.79,0,0,1,36.79,36.79v427.63Z"/><path class="cls-8" d="M1111.72,1416.42V1485c0,14.25-9.42,25.8-21,25.8H230.05c-11.62,0-21-11.55-21-25.8v-68.53Z"/><path class="cls-9" d="M230.14,1397.85V989.93c0-10.69,9-19.36,20.06-19.36h820.33c11.08,0,20.06,8.67,20.06,19.36v407.92Z"/><path class="cls-8" d="M456.19,1624c-2.53-14.75,7.38-26.71,22.14-26.71H836.9c14.76,0,28.77,12,31.3,26.71h-412Z"/><path class="cls-3" d="M230.05,1511.83h860.63c12.2,0,22.12-12.06,22.12-26.88V988.79a37.91,37.91,0,0,0-37.87-37.87v2.16a35.75,35.75,0,0,1,35.72,35.71V1485c0,13.63-9,24.73-20,24.73H230.05Z"/><rect class="cls-3" x="442.76" y="1431.68" width="2.16" height="35.22" transform="translate(-761.69 530.53) rotate(-35.66)"/><rect class="cls-3" x="442.76" y="1445.9" width="2.16" height="34.59" transform="translate(-782.03 549.31) rotate(-36.42)"/><rect class="cls-3" x="690.24" y="1516.08" width="2.16" height="20.6" transform="translate(-666.24 544.13) rotate(-29.75)"/><rect class="cls-3" x="689.02" y="1528.59" width="2.16" height="18.27" transform="matrix(0.86, -0.51, 0.51, 0.86, -683.19, 560.52)"/><path class="cls-3" d="M229.06,1398.93h861.53v-2.16H231.22V989.93c0-10.08,8.51-18.28,19-18.28v-2.16c-11.66,0-21.14,9.17-21.14,20.44Z"/><path class="cls-10" d="M812.68,908.51s10-37.48,19.19-41.41,19.39,2.65,19.39,2.65,9.8-13.38,16.48-12.11a10.77,10.77,0,0,1,8.3,7.25s11.82,1.26,13,11c0,0,9.29,2.25,9.17,9.87,0,0,4.79,2.18,4.48,11.41,0,0-15.94,31.17-39.36,42.21S812.68,908.51,812.68,908.51Z"/><path class="cls-11" d="M608.69,1396.77l3-263.54-6.38-33.86L450.78,1151s4.76,111.41,14.78,245.79Z"/><path class="cls-12" d="M490,1396.77l17.37-185.9,29.36-135.68L337,1154.28s-1.43,109.46,1,242.49Z"/><polygon class="cls-12" points="772.56 720.12 924.82 973.76 912.14 983.39 791.57 759.86 772.56 720.12"/><path class="cls-10" d="M850.13,868.94s6.74-7,10.78-9,28.14,42.25,28.14,42.25l3.49,11s-3.09,5.8-5.08,5.56-8-4.85-8-4.85l-1.57-6.05-2.43-.67-3.17-2.93-1.58-4.8-3.37,1.52-4.8-1.9-2.22-4.47-.95-.43-14.29-23Z"/><path class="cls-13" d="M858.92,894.91c-2.13,0-4.58-1.47-7.12-3a37.78,37.78,0,0,0-5.51-2.91c-5.62-2.22-8.2-1.26-8.22-1.25a.79.79,0,0,1-1-.43.78.78,0,0,1,.42-1c.12-.05,3.08-1.26,9.39,1.23a38.77,38.77,0,0,1,5.74,3c4,2.38,6.51,3.75,8.21,1.87a7.46,7.46,0,0,0,2-5.87c-.44-4.75-4.92-10.81-12-16.21-8.7-6.65-16.35-3.37-16.68-3.22a.8.8,0,0,1-1-.4.78.78,0,0,1,.39-1c.36-.16,8.8-3.84,18.27,3.4,7.52,5.75,12.11,12.06,12.6,17.32A9,9,0,0,1,862,893.5,3.94,3.94,0,0,1,858.92,894.91Z"/><path class="cls-13" d="M861.57,881.58a.81.81,0,0,1-.53-.2.79.79,0,0,1,0-1.11l14.47-15.9a.78.78,0,1,1,1.16,1l-14.47,15.9A.78.78,0,0,1,861.57,881.58Z"/><path class="cls-13" d="M877.41,908.39a4.89,4.89,0,0,1-3.11-1.1,7.56,7.56,0,0,1-3.61-8,.78.78,0,1,1,1.53.34c-.92,4.14,2.79,6.31,2.95,6.4a3.56,3.56,0,0,0,3.08.75c7.76-1.48,19.18-21.21,19.29-21.41a.79.79,0,0,1,1.36.79c-.48.83-11.89,20.54-20.36,22.16A6.35,6.35,0,0,1,877.41,908.39Z"/><path class="cls-13" d="M866.91,901.49a6.86,6.86,0,0,1-4.43-1.47,9.59,9.59,0,0,1-3.07-6.1.8.8,0,0,1,.72-.85.79.79,0,0,1,.84.72s.31,3.27,2.5,5a5.79,5.79,0,0,0,4.6,1c5.7-.78,16.59-17.86,20.3-24.38a.78.78,0,0,1,1.36.78c-.56,1-13.82,24.11-21.45,25.15A9.31,9.31,0,0,1,866.91,901.49Z"/><path class="cls-14" d="M618.59,1332.65l.92-1.2-4.81-270s88.8,59.56,115.41,60.7S866.76,960,866.76,960c-23.2-53.23-72-60.61-72-60.61L703.88,999,597.43,902.42c-14.19-8.62-123.3-10.49-123.3-10.49s-124.19-2.82-138.39,5.8-66.4,150.55-74.51,214.92,0,106.07,49.17,113.67l17.89.38,1.37,106s99.1,22.3,288.93,0Z"/><path class="cls-5" d="M794.74,899.37,703.88,999,597.43,902.42c-5.33-3.24-24.06-5.53-45.37-7.12l-64,152.4L391.51,891.94c-33.83.31-48.41,1.32-55.77,5.79-14.19,8.61-66.4,150.55-74.51,214.92s0,106.07,49.17,113.67l17.89.38,1.37,106s99.1,22.3,288.93,0l.92-1.2-4.81-270s88.8,59.56,115.41,60.7S866.76,960,866.76,960C843.56,906.75,794.74,899.37,794.74,899.37Z"/><rect class="cls-12" x="456.15" y="1077.93" width="132.53" height="167.66" rx="11.97"/><path class="cls-15" d="M556.06,1071.59H494.33a6.34,6.34,0,0,0-6.34,6.34H562.4A6.34,6.34,0,0,0,556.06,1071.59Z"/><path class="cls-10" d="M591.86,1164.25c14.32-12.61-.68-14.74-.68-14.74,7-7.56,5.36-11.08,2.79-12.71a7.06,7.06,0,0,0-6.31-.52c-6.59,2.56-26.66,10.43-38.92,16.1-8.72-.62-5.94-15.31-2-22.85,2-3.88,2.15-10.28-7.31-3.83-7.73,5.28-19.35,22.64-19.35,22.64l-48.59-4.67,7.24,67s55.47-.77,63.82-.83,36.35-9.59,44.8-17c15.34-13.35,5.69-14,5.69-14C607.64,1163.45,591.86,1164.25,591.86,1164.25Z"/><path class="cls-13" d="M573.64,1160.57a1,1,0,0,1-1-.62,1,1,0,0,1,.55-1.31c7.19-3,17.33-9.89,17.43-10a1,1,0,0,1,1.13,1.66c-.42.29-10.41,7.11-17.8,10.15A.84.84,0,0,1,573.64,1160.57Z"/><path class="cls-13" d="M574.64,1173.26a1,1,0,0,1-.34-2,62.09,62.09,0,0,0,17-7.86,1,1,0,0,1,1.39.26,1,1,0,0,1-.25,1.39,63,63,0,0,1-17.61,8.15Z"/><path class="cls-13" d="M578,1187.55a1,1,0,0,1-.37-2A53.32,53.32,0,0,0,592.4,1178a1,1,0,0,1,1.21,1.61,54.75,54.75,0,0,1-15.4,7.89Z"/><polygon class="cls-3" points="355.51 1131.08 353.49 1128.69 373.27 1111.97 380.82 1020.27 383.94 1020.52 376.29 1113.52 355.51 1131.08"/><path class="cls-3" d="M328.25,1228.27l-18.09-.4c-24.13-3.73-39.6-15.69-47.29-36.55-6.68-18.1-7.69-43.16-3.19-78.86l3.11.39c-9.17,72.77,4.66,105.2,47.75,111.91l17.78.38Z"/><path class="cls-5" d="M451.09,1117.63l48.89,3.13s9.88,31.18-2,94.38c-1.16,6.14-3.59,16.63-3.59,16.63s-49.64,4-57.43-12.17c-4.89-10.12,5.8-53.86,5.8-53.86Z"/><path class="cls-3" d="M495.61,1233.38l-167.37-5.11.09-3.13,164.85,5c2.36-9.76,17.45-75.4,5.69-107.91l-124.19-8,.2-3.13,126.2,8.08.36.94c13.71,35.54-4.73,108.86-5.52,112Z"/><path class="cls-3" d="M705,1025.62l-2.6-25.88L599.3,906.23c-7.55-6.85-22.24-7-22.39-7v-3.13h0c.66,0,16,.09,24.49,7.76l104,94.31,2.72,27.09Z"/><path class="cls-3" d="M705,1000l-2.32-2.12,91.44-100.23.83.14c.49.08,48.83,8.53,73.19,61.49l-2.85,1.31c-21.91-47.64-63.67-58.2-70-59.55Z"/><path class="cls-3" d="M499.93,1343.52l-2.75,0,0-3.13c39.19.42,109.06-7.82,119.8-9.11l-3.89-295.76,3.14,0L620.18,1334l-1.39.17C618,1334.3,542.92,1343.52,499.93,1343.52Z"/><path class="cls-3" d="M444.37,950.51a74.2,74.2,0,0,1-32.27-42.89l3-.85A71.06,71.06,0,0,0,446,947.85Z"/><path class="cls-10" d="M456.41,779.39s22.14-9.42,41.8-2.66a28.25,28.25,0,0,1,18.95,26.77v11.77l-60.6-25.87s-9.58,4.53-8.81,3.15S456.41,779.39,456.41,779.39Z"/><path class="cls-10" d="M517.15,802.18v49.64s.74,17.73-14.78,19.95l2.9,23.67a18.47,18.47,0,0,1-12.63,19.89A48.39,48.39,0,0,1,478,917.59c-17.73,0-27.34-13.3-28.82-20s3-38.43,3-38.43l-.54-15.62,2-60.5Z"/><path class="cls-3" d="M474.33,825.58a.76.76,0,0,1-.51-.2.73.73,0,0,1,0-1c.1-.1,10.26-10.5,19.55-3a.74.74,0,0,1-.93,1.15c-8.23-6.63-17.18,2.5-17.56,2.89A.7.7,0,0,1,474.33,825.58Z"/><path class="cls-3" d="M504.8,821.15a.74.74,0,0,1-.49-1.3c.3-.26,7.35-6.29,11.81-2.46a.74.74,0,1,1-1,1.12c-3.49-3-9.81,2.4-9.87,2.46A.74.74,0,0,1,504.8,821.15Z"/><path d="M489.28,828.57a2.22,2.22,0,1,1-2.22-2.22A2.23,2.23,0,0,1,489.28,828.57Z"/><path d="M512.84,826.35a2.22,2.22,0,1,1-2.21-2.22A2.21,2.21,0,0,1,512.84,826.35Z"/><path class="cls-3" d="M456.41,778.61s-18.77-.9-23.53,15.52,3.35,25.11,3.51,30-3.15,37.91,20,35.45l6.26-54.53-8.07-21.7Z"/><circle class="cls-10" cx="457.66" cy="827.8" r="13.3" transform="translate(-127.19 84.39) rotate(-9.26)"/><path class="cls-13" d="M456.68,836a5.55,5.55,0,0,1-5.22-4.15,5.21,5.21,0,0,1,2.1-6.08,6.24,6.24,0,0,1,7,.24,6,6,0,0,0-2.68-3.27c-2.62-1.44-5.87-.39-5.91-.38a.36.36,0,0,1-.46-.24.36.36,0,0,1,.23-.46,8.92,8.92,0,0,1,6.49.43,7.16,7.16,0,0,1,3.39,4.85l.33,1.28-.95-.93c-.13-.14-3.29-3.21-7-.89a4.52,4.52,0,0,0-1.78,5.24,4.76,4.76,0,0,0,4.5,3.62h.08a.37.37,0,0,1,0,.74Z"/><path class="cls-13" d="M466.39,856.7s1,29.69,38.12,32.53l-2.14-17.46S478.33,876.6,466.39,856.7Z"/><path class="cls-13" d="M497.1,843.52a.35.35,0,0,1-.35-.25.37.37,0,0,1,.23-.47l7.41-2.45-2.34-17.43a.37.37,0,0,1,.73-.1l2.42,18-8,2.65Z"/><polygon class="cls-10" points="451.57 863.34 454.15 838.31 460.36 839 460.36 864.06 451.57 863.34"/><path class="cls-3" d="M459.88,778.12s-4.35,10.38,2.79,27.71-18.31-6.46-18.31-6.46S446.12,774,459.88,778.12Z"/><path class="cls-13" d="M888.37,919.24h-.13c-4.31-.74-7.37-2.42-9.1-5a9.16,9.16,0,0,1-1.39-6.63.78.78,0,0,1,.94-.59.77.77,0,0,1,.59.93,7.75,7.75,0,0,0,1.17,5.43c1.49,2.2,4.2,3.65,8,4.31a.79.79,0,0,1-.13,1.56Z"/><path class="cls-3" d="M462.67,805.83s56.49-3.35,60-16.58-9.81-13.59-9.81-13.59,2.49-18.8-14.57-13.23-48.69,4.84-57.57,20.66S462.67,805.83,462.67,805.83Z"/><path class="cls-16" d="M853.28,668.76a6.39,6.39,0,1,0,6.39,6.39A6.39,6.39,0,0,0,853.28,668.76Z"/><path class="cls-16" d="M866.06,708.59a6.39,6.39,0,1,0,6.38,6.39A6.39,6.39,0,0,0,866.06,708.59Z"/><path class="cls-16" d="M686.61,631.05l-11,8.06a3.8,3.8,0,0,0,2.25,6.87,3.85,3.85,0,0,0,2.25-.73l8.79-6.44,7.74,26.4a3.82,3.82,0,0,0,3.65,2.74,3.56,3.56,0,0,0,1.07-.16,3.8,3.8,0,0,0,2.58-4.72l-8.51-29,11.69-8.55,13.82,18a3.81,3.81,0,1,0,6-4.63L713.24,621l7.42-5.43a3.8,3.8,0,1,0-4.49-6.14L708.61,615l-25.67-33.52a5.39,5.39,0,0,0-9.46,4.8Zm15.86-11.6-9.33,6.82-9-30.78Z"/><path class="cls-6" d="M727.5,555.18c2.68,0,3.4-1.54,5.77-6.66l.91-1.94,6.14,21-.24.66a3.75,3.75,0,0,0-.28.77c-1.53,4.11-3.13,8.06-4.69,11.59a3.8,3.8,0,0,0,1.93,5,3.79,3.79,0,0,0,5-1.94c.42-.93,1-2.34,1.76-4.1l9,30.68a3.8,3.8,0,0,0,3.65,2.74,3.65,3.65,0,0,0,1.07-.16,3.81,3.81,0,0,0,2.58-4.72l-.8-2.74c7.06-3.62,24.39-13.69,29.35-27.42a21.54,21.54,0,0,0-1-17.41c-3.7-7.53-9.1-9.83-13-10.43-7.9-1.23-16.54,3.22-23.15,7.93,3.73-12.75,6-26.62,1.24-33.34-2.65-3.74-5.81-4-7.45-3.89-3.38.31-6.48,3-9.38,6.92a3.8,3.8,0,0,0-6.08,4l1.17,4c-1.6,3-3.15,6.26-4.67,9.53-.61,1.33-1.3,2.82-1.65,3.46a3.81,3.81,0,0,0,2.79,6.39Zm46,2.51c3.08.48,5.47,2.53,7.31,6.27a14,14,0,0,1,.66,11.46C777.72,585.83,764,594.3,757.1,598l-8.16-28C754.85,564.62,765.77,556.46,773.51,557.69Zm-27.58-29.23a3.07,3.07,0,0,1,.64.7c2.72,3.84,1.17,14.21-2.07,25.62l-5.27-18.06C743,530.19,744.94,528.65,745.93,528.46Z"/><path class="cls-17" d="M841.66,598.66a69.58,69.58,0,0,0,14.14-1.61,3.81,3.81,0,0,0-1.56-7.45c-17.77,3.73-29,.3-33.52-10.19-7.39-17.35,5.09-46.82,13.9-52.83,3.78-2.57,7.33-3.46,10.56-2.63,6.09,1.56,9.75,8.57,9.82,8.72a3.81,3.81,0,0,0,6.81-3.42c-.21-.41-5.2-10.19-14.68-12.65-5.46-1.43-11.11-.18-16.8,3.7-12.25,8.35-25.08,42.19-16.61,62.09C817.09,590.3,824.67,598.66,841.66,598.66Z"/><path class="cls-18" d="M784.05,654.29l-80.82,55.48-3.3,33-16.63-23.4L662.91,734a3.8,3.8,0,1,0,4.44,6.18L681.53,730l24,33.71,5-49.67,77.91-53.48a3.8,3.8,0,1,0-4.31-6.27Z"/><path class="cls-16" d="M897.06,678.6a3.8,3.8,0,0,0-5-2.09l-70.26,28.55a3.81,3.81,0,0,0,2.87,7.05L895,683.56A3.81,3.81,0,0,0,897.06,678.6Z"/><path class="cls-10" d="M832.66,491a3.79,3.79,0,0,0,5.38-.1l19.24-20,19.23,20a3.8,3.8,0,0,0,5.48-5.28l-19.43-20.18L882,445.22a3.8,3.8,0,0,0-5.48-5.28l-19.23,20-19.24-20a3.8,3.8,0,1,0-5.48,5.28L852,465.41l-19.43,20.18A3.8,3.8,0,0,0,832.66,491Z"/><path class="cls-3" d="M256.15,1522.26a5.9,5.9,0,0,0,5.84-5.1c.08-.54,7.66-53.82,35.44-97.39a5.9,5.9,0,0,0-9.95-6.34c-29.21,45.8-36.87,99.85-37.18,102.13a5.9,5.9,0,0,0,5,6.64A5.49,5.49,0,0,0,256.15,1522.26Z"/><path class="cls-5" d="M96.65,1518.23c34.09-60.32,86.54-55.08,115.39-39.34a144.58,144.58,0,0,0,51.22,16.81,144.64,144.64,0,0,0,51.22-16.81c28.84-15.74,81.29-21,115.39,39.34S407.58,1791,325,1800.15h-34.1c-3.63,0-8.3-.21-13.59-.37a1.31,1.31,0,0,1-1,.37c-4.39-.37-8.78-.52-13-.57s-8.64.2-13,.57a1.31,1.31,0,0,1-1-.37c-5.28.16-9.95.37-13.59.37H201.55C118.94,1791,62.55,1578.54,96.65,1518.23Z"/><path class="cls-3" d="M403.89,1530.64a1.37,1.37,0,0,0,.55-.12,1.38,1.38,0,0,0,.7-1.81c-.13-.28-13.1-28.87-44.72-36a1.37,1.37,0,0,0-.6,2.68c30.24,6.82,42.69,34.16,42.81,34.43A1.39,1.39,0,0,0,403.89,1530.64Z"/><path class="cls-3" d="M396.19,1543.39a1.37,1.37,0,0,0,.55-.12,1.38,1.38,0,0,0,.7-1.81c-.13-.28-13.1-28.87-44.72-36a1.37,1.37,0,0,0-.6,2.67c30.24,6.82,42.69,34.16,42.81,34.43A1.39,1.39,0,0,0,396.19,1543.39Z"/><path class="cls-19" d="M150,1471.61c56.49,78.1,165.4,212.72,260.09,236.47-20.67,48.89-50.61,88.23-85.13,92.07h-34.1c-3.63,0-8.3-.21-13.59-.37a1.31,1.31,0,0,1-1,.37c-4.39-.37-8.78-.52-13-.57s-8.64.2-13,.57a1.31,1.31,0,0,1-1-.37c-5.28.16-9.95.37-13.59.37H201.55c-82.61-9.18-139-221.61-104.9-281.92C112,1491.08,131.05,1477.22,150,1471.61Z"/><ellipse class="cls-20" cx="164.28" cy="1525.52" rx="35.5" ry="16.95" transform="translate(-740.75 286.52) rotate(-30)"/><path class="cls-3" d="M290.87,1801.52h34.25c34.79-3.87,60.82-41.28,76.53-72,37.1-72.53,51.12-173.56,29.41-212-15.27-27-36.22-43.91-60.58-48.86-18.61-3.78-39.26-.5-56.66,9-22.89,12.48-43.09,15.8-50.71,16.65-.19,0-16,1.94-36.75-10.06a1.37,1.37,0,1,0-1.37,2.37c21.59,12.51,37.78,10.5,38.45,10.41,7.75-.86,28.37-4.25,51.69-17,26-14.18,79.19-22,113.55,38.81,10.19,18,12.67,51.84,6.78,92.73-5.82,40.47-19,83-36.25,116.65-21.75,42.51-48.14,67.55-74.32,70.5h-34a1.37,1.37,0,1,0,0,2.74Z"/><path class="cls-21" d="M1009.48,1638.37s-33.1,83.29-5.34,146.28L367.76,1790,309,1784.65l-51.76-32.07v-49.07l14.39-40.58,47-24.56Z"/><path class="cls-12" d="M338,1798.1H1025.5a8.11,8.11,0,0,0,0-16.21H338c-41.51,0-75.27-31.33-75.27-69.84s33.76-69.84,75.27-69.84H1025.5a8.11,8.11,0,0,0,0-16.22H338c-50.45,0-91.49,38.61-91.49,86.06S287.5,1798.1,338,1798.1Z"/><path class="cls-14" d="M662.72,1713.85h337.42a1.8,1.8,0,1,0,0-3.6H662.72a1.8,1.8,0,0,0,0,3.6Z"/><path class="cls-14" d="M287.41,1713.85h327.8a1.8,1.8,0,1,0,0-3.6H287.41a1.8,1.8,0,1,0,0,3.6Z"/><path class="cls-14" d="M296.22,1746.13H464.4a1.8,1.8,0,1,0,0-3.6H296.22a1.8,1.8,0,1,0,0,3.6Z"/><path class="cls-14" d="M489.08,1746.13h511.06a1.8,1.8,0,1,0,0-3.6H489.08a1.8,1.8,0,1,0,0,3.6Z"/><path class="cls-3" d="M338,1799.9h687.54a9.91,9.91,0,0,0,0-19.82,1.81,1.81,0,0,0,0,3.61,6.31,6.31,0,1,1,0,12.61H338c-49.45,0-89.68-37.8-89.68-84.25s40.23-84.26,89.68-84.26h687.54a6.31,6.31,0,0,1,0,12.62,1.8,1.8,0,0,0,0,3.6,9.91,9.91,0,1,0,0-19.82H338c-51.44,0-93.29,39.41-93.29,87.86S286.51,1799.9,338,1799.9Z"/><path class="cls-7" d="M818.38,1679.75s21.66,53.94,9.17,93.65L810,1746.22s-12,14.41-19.38,27.18c0,0-13.44-88.69-39.48-93.65Z"/><path class="cls-14" d="M296.22,1681.55h703.92a1.8,1.8,0,1,0,0-3.6H296.22a1.8,1.8,0,1,0,0,3.6Z"/><polygon class="cls-21" points="1055.79 1013.18 1055.79 1283.84 854.22 1283.84 854.22 1057.72 897.62 1013.18 1055.79 1013.18"/><polygon class="cls-8" points="854.22 1057.8 897.36 1013.18 897.36 1057.8 854.22 1057.8"/><path class="cls-8" d="M917,1046.87H1005a2.29,2.29,0,0,0,2.28-2.29h0a2.28,2.28,0,0,0-2.28-2.28H917a2.28,2.28,0,0,0-2.28,2.28h0A2.29,2.29,0,0,0,917,1046.87Z"/><path class="cls-8" d="M905,1064.57H1017a2.28,2.28,0,0,0,2.28-2.29h0A2.28,2.28,0,0,0,1017,1060H905a2.29,2.29,0,0,0-2.29,2.28h0A2.29,2.29,0,0,0,905,1064.57Z"/><path class="cls-8" d="M875.35,1106.82h162.16a2.28,2.28,0,0,0,2.29-2.28h0a2.28,2.28,0,0,0-2.29-2.28H875.35a2.28,2.28,0,0,0-2.29,2.28h0A2.28,2.28,0,0,0,875.35,1106.82Z"/><path class="cls-8" d="M875.35,1126.81h162.16a2.28,2.28,0,0,0,2.29-2.28h0a2.28,2.28,0,0,0-2.29-2.29H875.35a2.28,2.28,0,0,0-2.29,2.29h0A2.28,2.28,0,0,0,875.35,1126.81Z"/><path class="cls-8" d="M875.35,1146.8h162.16a2.29,2.29,0,0,0,2.29-2.29h0a2.28,2.28,0,0,0-2.29-2.28H875.35a2.28,2.28,0,0,0-2.29,2.28h0A2.29,2.29,0,0,0,875.35,1146.8Z"/><path class="cls-8" d="M875.35,1186.77h162.16a2.29,2.29,0,0,0,2.29-2.29h0a2.28,2.28,0,0,0-2.29-2.28H875.35a2.28,2.28,0,0,0-2.29,2.28h0A2.29,2.29,0,0,0,875.35,1186.77Z"/><path class="cls-8" d="M875.35,1206.75h162.16a2.28,2.28,0,0,0,2.29-2.28h0a2.29,2.29,0,0,0-2.29-2.29H875.35a2.29,2.29,0,0,0-2.29,2.29h0A2.28,2.28,0,0,0,875.35,1206.75Z"/><path class="cls-8" d="M875.35,1258.14h162.16a2.28,2.28,0,0,0,2.29-2.28h0a2.28,2.28,0,0,0-2.29-2.28H875.35a2.28,2.28,0,0,0-2.29,2.28h0A2.28,2.28,0,0,0,875.35,1258.14Z"/><path class="cls-3" d="M461.5,815.27l2.43,10.31,2.46-3.08s4.83-14.8,1.5-21.91-16.69,3.11-16.69,3.11Z"/><polygon class="cls-22" points="449.19 885.89 482.06 909.05 504.06 887.7 517.16 893.3 505.69 931.26 483.01 917.33 461.93 931.26 433.59 891.94 449.19 885.89"/><rect class="cls-23" x="231.22" y="1321.92" width="859.38" height="74.85"/><path class="cls-21" d="M991.26,1369.92H271.84a3.66,3.66,0,0,1-3.67-3.66h0a3.67,3.67,0,0,1,3.67-3.67H991.26a3.67,3.67,0,0,1,3.67,3.67h0A3.67,3.67,0,0,1,991.26,1369.92Z"/><path class="cls-19" d="M665.18,1369.92H271.84a3.66,3.66,0,0,1-3.67-3.66h0a3.67,3.67,0,0,1,3.67-3.67H665.18a3.67,3.67,0,0,1,3.67,3.67h0A3.66,3.66,0,0,1,665.18,1369.92Z"/><circle class="cls-24" cx="667.07" cy="1366.26" r="7.11"/><rect class="cls-19" x="1019.96" y="1349.64" width="5.93" height="34.37"/><rect class="cls-19" x="1035.96" y="1349.64" width="5.93" height="34.37"/><path class="cls-21" d="M1377.11,1638.37s33.1,83.29,5.33,146.28l636.39,5.34,58.73-5.34,51.76-32.07V1703.5l-14.39-40.57-47-24.56Z"/><path class="cls-16" d="M2048.64,1798.1H1361.09a8.11,8.11,0,0,1,0-16.22h687.55c41.5,0,75.26-31.33,75.26-69.83s-33.76-69.84-75.26-69.84H1361.09a8.11,8.11,0,1,1,0-16.22h687.55c50.44,0,91.48,38.61,91.48,86.06S2099.08,1798.1,2048.64,1798.1Z"/><path class="cls-14" d="M1386.45,1713.85h337.41a1.81,1.81,0,0,0,0-3.61H1386.45a1.81,1.81,0,0,0,0,3.61Z"/><path class="cls-14" d="M1771.38,1713.85h327.8a1.81,1.81,0,0,0,0-3.61h-327.8a1.81,1.81,0,1,0,0,3.61Z"/><path class="cls-14" d="M1922.18,1746.13h168.19a1.8,1.8,0,1,0,0-3.6H1922.18a1.8,1.8,0,1,0,0,3.6Z"/><path class="cls-14" d="M1386.45,1746.13H1897.5a1.8,1.8,0,1,0,0-3.6h-511a1.8,1.8,0,1,0,0,3.6Z"/><path class="cls-3" d="M1361.09,1799.9h687.55c51.43,0,93.28-39.41,93.28-87.85s-41.85-87.86-93.28-87.86H1361.09a9.92,9.92,0,0,0-9.91,9.91c0,5.46,4.7,5.57,10.17,5.57a1.8,1.8,0,1,0,0-3.6c-3.48,0-6.57,1.51-6.57-2a6.32,6.32,0,0,1,6.31-6.31h687.55c49.45,0,89.68,37.8,89.68,84.26s-40.23,84.25-89.68,84.25H1361.09a6.31,6.31,0,1,1,0-12.61,1.81,1.81,0,0,0,0-3.61,9.91,9.91,0,1,0,0,19.82Z"/><path class="cls-25" d="M1470.06,1679.75s-21.65,53.94-9.17,93.65l17.59-27.19s12,14.42,19.38,27.19c0,0,13.44-88.69,39.48-93.65Z"/><path class="cls-14" d="M1386.45,1681.55h703.92a1.8,1.8,0,1,0,0-3.6H1386.45a1.8,1.8,0,0,0,0,3.6Z"/><path class="cls-21" d="M2177,1466s-33.1,83.28-5.34,146.28l-636.38,5.34-58.73-5.34-51.76-32.07v-49.08l14.39-40.57,47-24.56Z"/><path class="cls-26" d="M1505.48,1625.69H2193a8.11,8.11,0,0,0,0-16.22H1505.48c-41.5,0-75.27-31.33-75.27-69.84s33.77-69.83,75.27-69.83H2193a8.11,8.11,0,0,0,0-16.22H1505.48c-50.44,0-91.48,38.6-91.48,86.05S1455,1625.69,1505.48,1625.69Z"/><path class="cls-14" d="M2167.67,1541.44H1830.26a1.81,1.81,0,0,1,0-3.61h337.41a1.81,1.81,0,0,1,0,3.61Z"/><path class="cls-14" d="M1782.74,1541.44h-327.8a1.81,1.81,0,0,1,0-3.61h327.8a1.81,1.81,0,0,1,0,3.61Z"/><path class="cls-14" d="M1631.94,1573.72H1463.75a1.8,1.8,0,0,1,0-3.6h168.19a1.8,1.8,0,0,1,0,3.6Z"/><path class="cls-14" d="M2167.67,1573.72H1656.61a1.8,1.8,0,0,1,0-3.6h511.06a1.8,1.8,0,1,1,0,3.6Z"/><path class="cls-3" d="M2193,1627.49H1505.48c-51.44,0-93.28-39.41-93.28-87.85s41.84-87.86,93.28-87.86H2193a9.91,9.91,0,0,1,0,19.82,1.8,1.8,0,0,1,0-3.6,6.31,6.31,0,0,0,0-12.62H1505.48c-49.45,0-89.68,37.8-89.68,84.26s40.23,84.25,89.68,84.25H2193a6.31,6.31,0,1,0,0-12.61,1.81,1.81,0,0,1,0-3.61,9.91,9.91,0,0,1,0,19.82Z"/><path class="cls-5" d="M2084.06,1507.34s21.65,53.94,9.17,93.65l-17.59-27.19s-12,14.42-19.38,27.19c0,0-13.44-88.69-39.48-93.65Z"/><path class="cls-14" d="M2167.67,1509.14H1463.75a1.81,1.81,0,0,1,0-3.61h703.92a1.81,1.81,0,0,1,0,3.61Z"/><polygon class="cls-27" points="1503.24 1804.55 1508.02 1804.55 1497.53 1632.93 1485.72 1632.93 1503.24 1804.55"/><polygon class="cls-27" points="1336.35 1804.55 1331.58 1804.55 1342.06 1632.93 1353.88 1632.93 1336.35 1804.55"/><polygon class="cls-23" points="1541.58 1392.96 1438.67 1392.96 1384.24 1635.29 1502.16 1622.72 1541.58 1392.96"/><path class="cls-28" d="M1305.38,1607.18s135.72,3.43,176.08,3.43a13.59,13.59,0,0,0,13.28-11.3l35.88-198.65a9.41,9.41,0,0,1,11.29-7.63,9.75,9.75,0,0,1,7.16,11.35l-40.64,225a9.69,9.69,0,0,1-2.14,4.53,15.46,15.46,0,0,1-13.66,8.35H1305.87a15.68,15.68,0,0,1-15.49-15.85h0C1290.38,1617.7,1296.83,1607.18,1305.38,1607.18Z"/><path class="cls-3" d="M1481.46,1611.38a14.35,14.35,0,0,0,14-11.93l35.88-198.65a8.8,8.8,0,0,1,3.73-5.76,8.41,8.41,0,0,1,6.66-1.26.76.76,0,0,0,.9-.59.78.78,0,0,0-.58-.92,9.88,9.88,0,0,0-7.81,1.48,10.3,10.3,0,0,0-4.38,6.77L1494,1599.17a12.84,12.84,0,0,1-12.54,10.67.77.77,0,0,0,0,1.54Z"/><path class="cls-3" d="M1414.24,1643.21h0l73.26-.14c19.73,1.82,22.08-15.45,22.19-16.39l4.35-24.11a.76.76,0,0,0-.6-.9.75.75,0,0,0-.88.62l-4.37,24.19c-.07.69-1.89,16.79-20.59,15h-.07l-73.29.13a.76.76,0,0,0-.75.77A.77.77,0,0,0,1414.24,1643.21Z"/><path class="cls-3" d="M1501.93,1393.73h0l36-.06a.77.77,0,0,0,0-1.54h0l-36,0a.78.78,0,0,0,0,1.55Z"/><path class="cls-10" d="M1458.81,1472.17l-11.77,5.09-13.1,6.21s-20.34,3.53-20.63,3.47c0,0,1.69,3,1.69,3-25.24,3.11-104.78,6.38-117.84,7.83-7.87.88-15.44,10.67-20.21,18.31l6.47,4.37s69.46-3.06,69.32-1.6c0,.46-2,7.35-5,16.37,42.91,2.87,103,2.6,114.15-15.08C1471,1505.66,1462.07,1484.84,1458.81,1472.17Z"/><polygon class="cls-10" points="1188.97 1783.95 1241.75 1784.67 1242.51 1735.32 1189.93 1728.81 1188.97 1783.95"/><path class="cls-8" d="M1134.72,1796.21l107.78-.19,0-21.49s-7.86-10.31-19.78-5c0,0-17.65,12.71-33.59-2.42l-39.88,17.05S1134.71,1788.9,1134.72,1796.21Z"/><path class="cls-29" d="M1131.23,1796.12H1242.5a0,0,0,0,1,0,0v7.52a0,0,0,0,1,0,0H1131.23a1.19,1.19,0,0,1-1.19-1.19v-5.15a1.19,1.19,0,0,1,1.19-1.19Z" transform="translate(-3.03 2) rotate(-0.1)"/><path class="cls-30" d="M1177.28,1772.14l15.54,24,7.35,0c-4.14-6.38-12.81-19.76-17.13-26.41Z"/><path class="cls-30" d="M1181,1796.13l7.34,0c-3.36-5.19-9.92-15.32-14.57-22.48l-5.76,2.46Z"/><path class="cls-7" d="M1353.12,1608s45.44.75,77.29-.34c10.22-.35,19.32.37,24.7-.83,22.17-4.92,27.63-74.11,2.46-116.5s-113.23,87.76-113.23,87.76Z"/><polygon class="cls-10" points="1270.89 1783.95 1323.68 1784.67 1324.43 1735.32 1271.86 1728.81 1270.89 1783.95"/><path class="cls-7" d="M1216.73,1796.2l107.77-.17,0-21.49s-7.86-10.31-19.79-5c0,0-17.65,12.7-33.58-2.43l-39.88,17.05S1216.71,1788.89,1216.73,1796.2Z"/><path class="cls-31" d="M1213.24,1796.12h111.27a0,0,0,0,1,0,0v7.52a0,0,0,0,1,0,0H1213.24a1.19,1.19,0,0,1-1.19-1.19v-5.15A1.19,1.19,0,0,1,1213.24,1796.12Z" transform="translate(-2.72 1.92) rotate(-0.09)"/><path class="cls-30" d="M1259.29,1772.14c3.63,5.59,10.9,16.82,15.53,24h7.35l-17.12-26.42Z"/><path class="cls-30" d="M1263,1796.13l7.35,0c-3.37-5.19-9.93-15.32-14.57-22.49l-5.76,2.47C1254,1782.11,1259.37,1790.45,1263,1796.13Z"/><path class="cls-8" d="M1304.2,1515.4s-111.62,7.13-114.84,20-12.46,149.91-5.55,208.37c0,0,42.35,2.92,62.6-2l4.93-142.54,33.43-3.84,76.58-92.06Z"/><path class="cls-7" d="M1357.82,1513.29s-86.08,24.29-89.3,37.17-12.39,135.18-5.49,193.64c0,0,45.54,2.61,65.79-2.3l5.46-134.46,19.64.68,47.63-83.79Z"/><path class="cls-3" d="M1301.5,1745.69c20.12,0,27.29-3,27.63-3.18l.45-.2,5.28-135.25-8.31,3.92.66,1.41,6-2.83-5.14,131.69c-2.18.75-12.62,3.76-37.26,2.63l-.08,1.55C1294.67,1745.61,1298.25,1745.69,1301.5,1745.69Z"/><path class="cls-3" d="M1320.37,1716.52c2.14-8.28,2.76-89.07,2.78-92.51h-1.55c0,.84-.64,84-2.74,92.13Z"/><path class="cls-3" d="M1240.38,1602.3c10.2-3.31,24.25-3.8,24.39-3.81l0-1.55c-.14,0-14.41.51-24.82,3.88Z"/><path class="cls-3" d="M1217.41,1745.4a138.06,138.06,0,0,0,29.18-2.85l.58-.14,5-144.13-6.36,5.13,1,1.21,3.72-3-4.83,139.55a141.21,141.21,0,0,1-29.75,2.67v1.55Z"/><path class="cls-3" d="M1239.06,1719.53c2.14-12.52.1-97.21,0-100.81l-1.55,0c0,.88,2.12,88.14,0,100.51Z"/><path class="cls-3" d="M1387.31,1609.44c19.83,0,43.6-.67,70.32-2.68l-.12-1.55c-79.62,6-133,.07-133.54,0l-.17,1.53C1324.15,1606.79,1348,1609.44,1387.31,1609.44Z"/><path class="cls-32" d="M1360.06,1469.89c-1.54,0-63.37,26.56-63.37,26.56l12.46,23.85,34.7-7.62Z"/><path class="cls-32" d="M1449.64,1359.08s26.29-.92,38.84,6.19c18.73,10.61,12.06,71.38,12.06,71.38s-15.91-8.68-16.88-11.58S1449.64,1359.08,1449.64,1359.08Z"/><path class="cls-3" d="M1456,1491l-.09,0-19.35,4.42a.71.71,0,0,1-.86-.54.72.72,0,0,1,.54-.87l19.34-4.43a.73.73,0,0,1,.42,1.39Z"/><path class="cls-33" d="M1466.13,1479.49l-11.78,5.09-13.09,6.21s-20.34,3.53-20.64,3.46c0,0,1.69,3,1.69,3-25.24,3.11-104.78,6.38-117.83,7.84-7.88.88-15.44,10.66-20.21,18.3l6.46,4.38s69.47-3.07,69.33-1.61c0,.46-2,7.36-5,16.38,42.9,2.87,103,2.59,114.14-15.09C1478.3,1513,1469.38,1492.16,1466.13,1479.49Z"/><path class="cls-32" d="M1475.09,1363.82c-14.94-2.07-54.37-3.5-54.37-3.5s-5.22,1.37-3.56.6c-43.54,7.69-48.35,40-48.35,40l-21.26,93.29-23.65,1.28c-7.65,14.51-2,53.62-2,53.62L1436.43,1562s24.76,4.08,45.7-22.78c13.86-17.77,18.57-72.32,18.56-112.18C1500.69,1427.05,1498.31,1367,1475.09,1363.82Z"/><polygon class="cls-34" points="1154.22 1436.06 1263.29 1436.06 1301.33 1532.93 1192.26 1532.93 1154.22 1436.06"/><polygon class="cls-35" points="1301.33 1532.93 1295.64 1532.93 1257.6 1436.06 1263.29 1436.06 1301.33 1532.93"/><path class="cls-36" d="M1225.53,1481.41c1.51,4.45.4,8.85-2.48,9.83s-6.44-1.84-8-6.29-.4-8.85,2.48-9.83S1224,1477,1225.53,1481.41Z"/><path class="cls-35" d="M1337.39,1525.11h-40.75v7.82h40.75a3.91,3.91,0,0,0,3.91-3.91h0A3.91,3.91,0,0,0,1337.39,1525.11Z"/><rect class="cls-34" x="1301.33" y="1527.8" width="25.74" height="1.23"/><path class="cls-3" d="M1436.58,1495.81a.67.67,0,0,1-.42,0,.72.72,0,0,1-.54-.86c.12-.52,12.1-51.41,17.19-83.44a.72.72,0,0,1,1.43.23c-5.1,32.08-17.09,83-17.21,83.54A.73.73,0,0,1,1436.58,1495.81Z"/><path class="cls-3" d="M1362.49,1495a.73.73,0,0,1-1-.89c.18-.57,17.94-56.93,21.65-76.41a.73.73,0,0,1,.85-.58.72.72,0,0,1,.57.85c-3.72,19.56-21.51,76-21.69,76.57A.71.71,0,0,1,1362.49,1495Z"/><path class="cls-3" d="M1434.7,1387.67l-1.71.14a.6.6,0,1,1-.08-1.19c24.91-1.75,29.54-20,29.57-20.18a.61.61,0,0,1,.7-.48.58.58,0,0,1,.49.67C1463.65,1366.81,1459.05,1385.15,1434.7,1387.67Z"/><path class="cls-3" d="M1357.4,1481.52a.73.73,0,0,1-.88-.31l-4.85-8.32.06-.28,16.37-71.85c.1-.64,1.52-9,8.61-18.25,6.66-8.65,19.78-19.66,44.5-23a.73.73,0,0,1,.19,1.44c-24.19,3.21-37,13.92-43.49,22.33-7,9.12-8.37,17.59-8.39,17.68v0l-16.31,71.59,4.57,7.83a.72.72,0,0,1-.26,1Z"/><path class="cls-3" d="M1331.79,1481.78a.73.73,0,0,1-.93-.4.71.71,0,0,1,.4-.94l20.91-8.34a.73.73,0,0,1,.94.4.74.74,0,0,1-.41.94l-20.9,8.34Z"/><path class="cls-32" d="M1323.9,1495.47s-7.56,17.84-2,53.62l27.64-14.83-8.21-26.73Z"/><path class="cls-3" d="M1461.57,1496.45a.87.87,0,0,1-.28,0c-1,0-103.39-3.11-136.88-.34-.82,2.19-4.6,13.55-3.54,34.33a.73.73,0,0,1-.69.76.72.72,0,0,1-.76-.68c-1.2-23.55,3.61-34.91,3.82-35.39l.17-.39.43,0c33.1-2.83,136.45.27,137.49.3a.72.72,0,0,1,.24,1.4Z"/><path class="cls-10" d="M1414.77,1306.06l-.81,31.48s-.69,10.11,8.13,11.61l-2,13.46a10.55,10.55,0,0,0,6.91,11.54,27.84,27.84,0,0,0,8.33,1.5c10.12.27,15.8-7.18,16.74-11s-1.11-22-1.11-22l.54-8.9-.26-34.55Z"/><path class="cls-13" d="M1442.85,1341.08s-1,16.93-22.23,18l1.47-9.93S1435.74,1352.26,1442.85,1341.08Z"/><path class="cls-12" d="M1438.78,1323.21a.46.46,0,0,0,.29-.11.42.42,0,0,0,0-.6c0-.06-5.7-6.14-11.11-2a.42.42,0,1,0,.51.67c4.79-3.66,9.77,1.68,10,1.91A.44.44,0,0,0,1438.78,1323.21Z"/><path class="cls-34" d="M1453.43,1319.16l-9.15,1.66-1.69,1.66s1.18-15.24,3-18.19S1453.43,1319.16,1453.43,1319.16Z"/><path class="cls-12" d="M1421.46,1320.23a.43.43,0,0,0,.32-.14.43.43,0,0,0,0-.6c-.17-.15-4.1-3.69-6.7-1.58a.42.42,0,0,0,.53.66c2-1.66,5.56,1.51,5.6,1.55A.46.46,0,0,0,1421.46,1320.23Z"/><path d="M1430.21,1324.69a1.27,1.27,0,1,0,1.29-1.23A1.26,1.26,0,0,0,1430.21,1324.69Z"/><path d="M1416.79,1323.08a1.27,1.27,0,1,0,1.3-1.24A1.28,1.28,0,0,0,1416.79,1323.08Z"/><path class="cls-10" d="M1440.67,1324.52a7.59,7.59,0,1,0,7.78-7.39A7.6,7.6,0,0,0,1440.67,1324.52Z"/><path class="cls-13" d="M1449.48,1329a3.18,3.18,0,0,0,3-2.3,3,3,0,0,0-1.11-3.49,3.57,3.57,0,0,0-4,0,3.43,3.43,0,0,1,1.58-1.83,4.81,4.81,0,0,1,3.37-.13.21.21,0,0,0,.15-.39,5.1,5.1,0,0,0-3.71.15,4.09,4.09,0,0,0-2,2.71l-.2.73.55-.52a3.31,3.31,0,0,1,4-.4,2.57,2.57,0,0,1,.93,3,2.72,2.72,0,0,1-2.62,2h0a.21.21,0,0,0-.22.21.23.23,0,0,0,.2.22Z"/><path class="cls-13" d="M1425.52,1333.11a.22.22,0,0,0,.21-.14.21.21,0,0,0-.13-.27l-4.19-1.51,1.59-9.91a.21.21,0,0,0-.17-.24.2.2,0,0,0-.24.17l-1.65,10.26,4.52,1.63Z"/><path class="cls-37" d="M1428.69,1337.3c-.13,0-8.34-.43-8.34-.43s.94,3.42,4,3.58S1428.69,1337.3,1428.69,1337.3Z"/><path class="cls-34" d="M1453.43,1319.16s2.94-14.71-1.44-20.34-30.1-15.94-33.32-13.27-.16,6.1-.16,6.1-10.34-3.62-12.94,5.57,19.72,13.7,33.22,9.72A29.86,29.86,0,0,1,1453.43,1319.16Z"/><path class="cls-3" d="M1456.38,1559.85a45.74,45.74,0,0,1-4.77,1.54c-8.85,2.35-15,1.37-15.3,1.33a.72.72,0,0,1,.23-1.43,39.06,39.06,0,0,0,14.78-1.32c7.9-2.11,19.57-7.5,30.24-21.19,13.4-17.17,18.29-70.06,18.41-110.14a.73.73,0,1,1,1.45,0c-.12,40.3-5.1,93.56-18.72,111C1473.74,1551.17,1464.07,1557,1456.38,1559.85Z"/><path class="cls-12" d="M1654.82,1189.62s3.94,35.43,9.23,35.79-3.65,41.85-17.67,21.52c-4.92-7.12-4.7-53.74,7-63.71S1654.82,1189.62,1654.82,1189.62Z"/><path class="cls-10" d="M1652.9,1180.73s-4.87,33.47-.49,39.43c0,0,2.14,3.16,7.37,3.33l-.41,19.68,23.65-2.71.79-56s-6.74-13.83-6.75-13.26S1652.9,1180.73,1652.9,1180.73Z"/><path class="cls-13" d="M1660.1,1208.66c.07,0,.13-.07.15-.17a.23.23,0,0,0-.11-.26c-1-.3-1.57-2-1.74-2.57a6.25,6.25,0,0,0,2.58-4,9.16,9.16,0,0,0-.72-5.19c0-.1-.14-.12-.21-.06a.27.27,0,0,0,0,.3,8.79,8.79,0,0,1,.67,4.85,5.87,5.87,0,0,1-2.54,3.81l-.12.09,0,.18c0,.1.68,2.59,2,3Z"/><path class="cls-13" d="M1659.69,1230.18l.09-6.69s11.32-.5,18.33-4.78C1678.11,1218.71,1668.56,1227.64,1659.69,1230.18Z"/><path class="cls-12" d="M1675.75,1197.56a.42.42,0,0,0,.29-.12.41.41,0,0,0,0-.6c0-.06-5.45-5.74-10.52-1.77a.42.42,0,1,0,.52.67c4.45-3.48,9.18,1.47,9.38,1.68A.41.41,0,0,0,1675.75,1197.56Z"/><path class="cls-12" d="M1658.15,1196.42a.44.44,0,0,0,.33-.15.43.43,0,0,0,0-.6c-.16-.14-3.92-3.45-6.36-1.42a.43.43,0,1,0,.54.66c1.88-1.56,5.22,1.37,5.25,1.4A.49.49,0,0,0,1658.15,1196.42Z"/><path d="M1667.16,1199.82a1.19,1.19,0,1,0,1.21-1.17A1.19,1.19,0,0,0,1667.16,1199.82Z"/><path d="M1653.21,1199.66a1.19,1.19,0,1,0,1.21-1.17A1.19,1.19,0,0,0,1653.21,1199.66Z"/><path class="cls-37" d="M1666,1210.64c-.13,0-8.42.92-8.42.92s1.5,3.28,4.58,2.94S1666,1210.64,1666,1210.64Z"/><path class="cls-10" d="M1663.15,1181.38l5.75-8s-9.23,5.77-8.47,6A14.29,14.29,0,0,1,1663.15,1181.38Z"/><path class="cls-12" d="M1680.38,1177.6s-1.64,12.48-31.55,15c0,0-6.94-18.47,14.77-24.64s23.69,10.47,23.25,10.32S1680.38,1177.6,1680.38,1177.6Z"/><path class="cls-12" d="M1675.87,1184.6s5.52,8.21,8.09,14.13c0,0-10,52.28,10.15,49.36l3.59,0c17.81-.25,5.48-38.78,5.18-59.24-.19-12.8-15.73-25.8-25.85-18S1675.87,1184.6,1675.87,1184.6Z"/><circle class="cls-10" cx="1685.52" cy="1205.22" r="6.68" transform="translate(-363.13 1515.94) rotate(-44.19)"/><path class="cls-13" d="M1686,1209.35a2.82,2.82,0,0,0,2.68-2.07,2.64,2.64,0,0,0-1-3.1,3.14,3.14,0,0,0-3.46,0,2.89,2.89,0,0,1,1.33-1.53,4.13,4.13,0,0,1,2.94-.15.21.21,0,1,0,.14-.4,4.49,4.49,0,0,0-3.29.17,3.65,3.65,0,0,0-1.75,2.43l-.19.74.55-.54a2.88,2.88,0,0,1,3.5-.39,2.25,2.25,0,0,1,.85,2.61,2.38,2.38,0,0,1-2.3,1.77.22.22,0,0,0-.22.21.21.21,0,0,0,.21.22Z"/><path class="cls-12" d="M1651.56,1175.07s-10.37,10.94-8,42.41l7.15-31Z"/><polygon class="cls-10" points="1624.7 1635.81 1662.85 1623.87 1648.88 1579.16 1609.19 1585.82 1624.7 1635.81"/><path class="cls-38" d="M1599.24,1668.71l68.48-41.25-8.23-13.66s-8.93-3.55-14.49,4.36c0,0-6.38,14.82-22.29,11.29l-18.85,26.06S1596.45,1664.07,1599.24,1668.71Z"/><path class="cls-31" d="M1593.72,1648.58h81.42a0,0,0,0,1,0,0v5.58a0,0,0,0,1,0,0h-81.42a2,2,0,0,1-2-2v-1.6A2,2,0,0,1,1593.72,1648.58Z" transform="translate(-617.86 1079.71) rotate(-31.07)"/><rect class="cls-10" x="1626.7" y="1462.25" width="40.05" height="42.42" transform="translate(2250.9 -648.99) rotate(63.8)"/><path class="cls-5" d="M1684,1445.37c-.88,0-33.23,14.33-33.23,14.33l-10.32,6.73s15.76,107.35,18.69,136c0,0-22.82,16.09-45.93,16.67,0,0-47.67-166.18-47.67-187.29s101.4-71.13,101.4-71.13l46.15,26.63s69.34,5.7,85.28,16.52-123.78,74.1-123.78,74.1Z"/><path class="cls-5" d="M1648.36,1455.68s78.27-46.67,105.18-53.94,46.22-1.13,49.14,7.36,5.85,32.46,0,40.36-107.93,45.63-131.33,52.07C1671.35,1501.53,1650.52,1477.33,1648.36,1455.68Z"/><path class="cls-3" d="M1801.43,1408.12c-6.19-12.48-70.6-18.85-74.32-18.29a.74.74,0,0,1-.67-1.31c1.12-.76,19.19,1.43,19.37,1.45,7.71,1,22.49,3,35,6.33s19.9,7.06,21.94,11.16a.73.73,0,0,1-.67,1.07A.74.74,0,0,1,1801.43,1408.12Zm-74.16-18.37Z"/><path class="cls-3" d="M1656.17,1478.9a.74.74,0,0,0,.62-1.14A53.38,53.38,0,0,1,1649,1455c4.31-2.9,47.57-31.55,108.6-57.66a.73.73,0,0,0,.38-1,.74.74,0,0,0-1-.39c-64.18,27.46-108.75,57.73-109.2,58l-.34.24,0,.41a53.62,53.62,0,0,0,8,23.87A.76.76,0,0,0,1656.17,1478.9Z"/><path class="cls-3" d="M1743.7,1403.18a.72.72,0,0,0,.58-.29c2.83-3.6,8.08-6.68,8.13-6.71a.76.76,0,0,0,.27-1,.75.75,0,0,0-1-.26c-.22.13-5.54,3.25-8.54,7.08a.74.74,0,0,0,.12,1A.74.74,0,0,0,1743.7,1403.18Z"/><path class="cls-3" d="M1582.67,1509.24l.18,0a.74.74,0,0,0,.54-.9c-.15-.63-15.31-63.38-17.2-74.2-1.8-10.36,20.49-25.56,20.71-25.71a.74.74,0,0,0,.2-1,.73.73,0,0,0-1-.2c-1,.64-23.32,15.89-21.35,27.2,1.89,10.86,17.07,73.66,17.22,74.29A.75.75,0,0,0,1582.67,1509.24Z"/><path class="cls-3" d="M1631.11,1472.76a.86.86,0,0,0,.4-.11l18-11.52a.73.73,0,0,0,.23-1,.75.75,0,0,0-1-.22l-18,11.51a.74.74,0,0,0,.4,1.36Z"/><path class="cls-3" d="M1613.14,1619.86h.1c1.33-.18,32.85-4.56,46.32-16.86l.29-.26,0-.39-13.6-100.91-4-35.89a.74.74,0,1,0-1.47.17l4,35.9,13.55,100.54c-13.3,11.8-44.92,16.19-45.24,16.23a.74.74,0,0,0,.1,1.48Z"/><path class="cls-3" d="M1791.5,1450.9a.77.77,0,0,0,.44-.14c8.43-6.21,8.37-11.57,8.36-11.79a.74.74,0,1,0-1.48,0c0,.08,0,4.88-7.76,10.55a.74.74,0,0,0-.15,1A.72.72,0,0,0,1791.5,1450.9Z"/><path class="cls-3" d="M1783.93,1449.51a.72.72,0,0,0,.35-.08c9.25-4.91,10-10.22,10-10.44a.73.73,0,0,0-.64-.82.75.75,0,0,0-.83.64c0,.08-.76,4.82-9.22,9.31a.74.74,0,0,0,.35,1.39Z"/><path class="cls-7" d="M1658.5,1298.45l14.41-60.51h39.26c4.17,0,9.91,2.75,10.15,2.87,15.76,8.39,59.11,56.16,56.94,86.26-2,27.33-41.3,21.9-80.5,28.23l-8.71-36.24,14.17-3.79Z"/><path class="cls-7" d="M1671.5,1307.39v-69.45h-39.26c-4.17,0-9.91,2.75-10.16,2.87-15.75,8.39-64.54,57.67-62.37,87.77,2,27.33,48,26.23,69.52,32.88l12-43.32-1.06-2.21Z"/><path class="cls-7" d="M1607.86,1316.84l.5,75.74s68.55,12.52,129.6-3.71c1.5-.4-2.86-62.6-2.86-62.6s0-12.06-6.37-15.79-58.28-26.77-59.52-26.77S1607.86,1316.84,1607.86,1316.84Z"/><path class="cls-3" d="M1673.59,1259a.74.74,0,0,1,0-1.48c22.53-1.41,29.88-16.84,30-17a.74.74,0,0,1,1.35.62c-.08.16-7.76,16.39-31.2,17.86Z"/><path class="cls-10" d="M1648.76,1237.94h49.66s-9,15.55-26.14,15.48C1664.41,1253.39,1656,1250.5,1648.76,1237.94Z"/><path class="cls-39" d="M1679.36,1338.09c3.15-3.19.23-7.24.23-7.24,1.17-4.83-.12-6.94-.12-6.94s-13.25,3.92-20.77,6.71c-4.25-.64-5.75-2.71-5.75-2.71l-.11.17c-.08-3.68-.18-8.28-.18-8.8,0-.87-1.41-2.28-3.6.5s-6.44,10.24-6.44,10.24l-11-6.44-8.92,30.86s26.61,3.77,30.71,4.06,18.35-3.07,22.59-6.58,3.33-6.65,3.33-6.65A5.38,5.38,0,0,0,1679.36,1338.09Z"/><path class="cls-32" d="M1650.46,1317.68v9.56a8.71,8.71,0,0,0,8.24,3.38l4.11-1.52-3.24-13.9Z"/><path class="cls-13" d="M1670.58,1335.59a.5.5,0,0,1-.47-.35.49.49,0,0,1,.32-.62,61,61,0,0,0,8.92-4.2.49.49,0,0,1,.67.18.5.5,0,0,1-.18.68,61.4,61.4,0,0,1-9.11,4.28Z"/><path class="cls-13" d="M1670.58,1341.84a.49.49,0,0,1-.09-1,30.81,30.81,0,0,0,8.62-3.19.5.5,0,0,1,.68.17.51.51,0,0,1-.18.68,30.93,30.93,0,0,1-8.94,3.31Z"/><path class="cls-13" d="M1671.67,1349a.5.5,0,0,1-.48-.39.49.49,0,0,1,.38-.59,26,26,0,0,0,7.52-3.14.51.51,0,0,1,.69.15.5.5,0,0,1-.15.68,26.9,26.9,0,0,1-7.85,3.28Z"/><path class="cls-7" d="M1639.55,1324.15l-15.11-3.77s-8.52,21.13-8.52,21.83,4.26,19.34,4.79,19.25,5.37-5.09,5.37-5.09Z"/><path class="cls-3" d="M1611.78,1310.38l-7.45-1.19a.9.9,0,0,1,.29-1.77l6.29,1,14-21.59a.9.9,0,0,1,1.5,1Z"/><path class="cls-3" d="M1614.57,1257.68a.72.72,0,0,0,.61-.32c5.58-8,10.35-8,10.34-8h0a.74.74,0,0,0,0-1.48h0c-.27,0-5.61.11-11.56,8.67a.73.73,0,0,0,.18,1A.74.74,0,0,0,1614.57,1257.68Z"/><path class="cls-3" d="M1616.16,1265.21a.73.73,0,0,0,.66-.41c4.28-8.6,9-9.45,9.07-9.46a.74.74,0,0,0-.22-1.47c-.22,0-5.51.9-10.17,10.27a.74.74,0,0,0,.33,1A.67.67,0,0,0,1616.16,1265.21Z"/><path class="cls-13" d="M1657.91,1325.45a.5.5,0,0,0,.53-.24.49.49,0,0,0-.19-.67,60.14,60.14,0,0,1-7.85-6,.5.5,0,0,0-.7,0,.49.49,0,0,0,0,.7,60.63,60.63,0,0,0,8,6.07Z"/><path class="cls-13" d="M1656.61,1331.57a.5.5,0,0,0,.56-.3.48.48,0,0,0-.27-.64,30.72,30.72,0,0,1-7.77-4.91.5.5,0,1,0-.67.73,31.51,31.51,0,0,0,8.07,5.09Z"/><path class="cls-13" d="M1654.07,1338.32a.5.5,0,0,0,.55-.29.49.49,0,0,0-.25-.65,26.48,26.48,0,0,1-6.71-4.62.49.49,0,1,0-.69.7,26.54,26.54,0,0,0,7,4.82Z"/><path class="cls-3" d="M1721.51,1309.9l7.53.37a.9.9,0,1,0,.09-1.79l-6.36-.32-9.25-24a.9.9,0,0,0-1.17-.51.89.89,0,0,0-.51,1.16Z"/><path class="cls-7" d="M1690.05,1319.06l7.76,37.2s16-13,16-14.42-5.06-18.71-5.59-19S1690.05,1319.06,1690.05,1319.06Z"/><path class="cls-3" d="M1697.29,1357.2l.79,0a137.44,137.44,0,0,0,40.32-10.23.9.9,0,0,0-.69-1.66,138.16,138.16,0,0,1-39,10l-6.66-35,30.33-10.38a.9.9,0,1,0-.58-1.7l-31.8,10.88Z"/><path class="cls-3" d="M1635.59,1357.2l-.79,0a137.44,137.44,0,0,1-40.32-10.23.9.9,0,0,1,.69-1.66,138.16,138.16,0,0,0,38.95,10l6.66-35-30.33-10.38a.9.9,0,1,1,.58-1.7l31.8,10.88Z"/><rect class="cls-12" x="1591.99" y="1307.39" width="153.05" height="89.93" rx="6.29"/><path class="cls-21" d="M1676.2,1344.77a6.12,6.12,0,1,0-6.12,6.12A6.12,6.12,0,0,0,1676.2,1344.77Z"/><path class="cls-7" d="M1661,919.86a101,101,0,0,0-16-28.59l12.53-23.78-14.44-11.36-14.43-11.37-20.18,17.75a100.72,100.72,0,0,0-31.56-8.88l-8-25.67-18.25,2.16-18.24,2.17-1.72,26.82a101,101,0,0,0-28.59,16l-23.78-12.52L1467,877.05l-11.36,14.44,17.75,20.17a100.87,100.87,0,0,0-8.88,31.56l-25.68,8,2.17,18.24,2.17,18.25,26.82,1.71a101,101,0,0,0,16,28.6l-12.52,23.77,14.43,11.37,14.44,11.37,20.17-17.75a101.06,101.06,0,0,0,31.56,8.88l8,25.67,18.25-2.17,18.25-2.17,1.71-26.82a101,101,0,0,0,28.6-16l23.77,12.53,11.37-14.44,11.37-14.43-17.75-20.18a101,101,0,0,0,8.88-31.55l25.67-8L1690,939.83l-2.17-18.25Zm-87.37,103.21a68.93,68.93,0,1,1,60.31-76.58A68.93,68.93,0,0,1,1573.62,1023.07Z"/><path d="M1580.28,1080.17a1,1,0,0,1-.12-2.09l17.38-2.06,1.7-26.64.64-.23a100,100,0,0,0,28.31-15.87l.53-.42,23.61,12.44,21.66-27.5-17.63-20,.29-.62a100.09,100.09,0,0,0,8.79-31.23,1,1,0,1,1,2.08.23,101.89,101.89,0,0,1-8.68,31.26l17.87,20.32L1652.9,1048l-24-12.61a101.7,101.7,0,0,1-27.71,15.53l-1.72,27-19.12,2.27Zm-77.9-14.32-15.12-11.91a1,1,0,0,1,1.3-1.64l13.75,10.83,20-17.63.62.29a99.82,99.82,0,0,0,31.23,8.79,1,1,0,0,1-.24,2.08,101.69,101.69,0,0,1-31.26-8.68ZM1486,1019a1.07,1.07,0,0,1-.82-.4,102,102,0,0,1-16-28.25l-27-1.72-4.54-38.23,25.85-8a102,102,0,0,1,8.61-30.58l-17.88-20.32,23.82-30.24L1502,873.9a102.29,102.29,0,0,1,27.71-15.54l1.73-27,19.11-2.28a1.05,1.05,0,0,1,.25,2.09l-17.38,2.06-1.7,26.63-.65.24a99.83,99.83,0,0,0-28.3,15.86l-.54.43L1478.64,864,1457,891.45l17.63,20-.29.62a99.48,99.48,0,0,0-8.79,31.23l-.08.68-25.49,7.9,4.13,34.76,26.63,1.7.24.65a99.83,99.83,0,0,0,15.86,28.3,1,1,0,0,1-.16,1.47A1.1,1.1,0,0,1,1486,1019Zm11-55.22a1,1,0,0,1-1-.93,70,70,0,1,1,139-16.52,1,1,0,1,1-2.08.25,67.88,67.88,0,1,0-134.82,16,1,1,0,0,1-.91,1.16Zm193-22.94a1,1,0,0,1-1-.92l-2.06-17.38-26.64-1.7-.23-.65a100.11,100.11,0,0,0-15.87-28.3l-.42-.54,12.43-23.6-27.49-21.66-20,17.63-.62-.29a99.56,99.56,0,0,0-31.23-8.79,1.05,1.05,0,0,1-.93-1.16,1.07,1.07,0,0,1,1.16-.93,101.91,101.91,0,0,1,31.26,8.69l20.32-17.88,30.24,23.82-12.61,23.94a101.84,101.84,0,0,1,15.53,27.71l27,1.73L1691,939.7a1,1,0,0,1-.91,1.17Z"/><path class="cls-26" d="M1139.14,587.86s-33.44-55.28-113.66-41C1025.48,546.91,1079.48,627,1139.14,587.86Z"/><path class="cls-25" d="M1191.35,602.45s-10-110.81-144.93-149.26C1046.42,453.19,1069.46,617.94,1191.35,602.45Z"/><path class="cls-40" d="M1467.6,725.06a186.8,186.8,0,0,0-1.5-60.58l41-28-13.77-31.05-13.77-31-48.3,11.58a186.5,186.5,0,0,0-43.9-41.77l9.17-48.83-31.69-12.22-31.69-12.22-26,42.35a186.52,186.52,0,0,0-60.58,1.5l-28-41-31,13.77-31,13.77,11.58,48.3a186.75,186.75,0,0,0-41.78,43.9l-48.82-9.17L1065.24,616,1053,647.68l42.35,26a186.8,186.8,0,0,0,1.49,60.58l-41,28,13.77,31,13.76,31.05,48.31-11.58a186.75,186.75,0,0,0,43.9,41.78l-9.18,48.82,31.69,12.22,31.7,12.22,26-42.35a186.8,186.8,0,0,0,60.58-1.49l28,41,31-13.77,31-13.77-11.58-48.3a186.5,186.5,0,0,0,41.77-43.9l48.83,9.18,12.22-31.69,12.21-31.7ZM1296.4,825.9A127.42,127.42,0,1,1,1408,684.44,127.41,127.41,0,0,1,1296.4,825.9Z"/><path d="M1230.24,929.11l-65-25.06,9.21-49a187.91,187.91,0,0,1-43.58-41.63,1.05,1.05,0,0,1,1.68-1.26,185.45,185.45,0,0,0,43.65,41.54l.57.39-9.15,48.64,61.76,23.81,25.87-42.19.68.09a185.71,185.71,0,0,0,60.25-1.48,1,1,0,0,1,.39,2.06,187.7,187.7,0,0,1-60.25,1.59Zm145.2-16.85a1,1,0,0,1-.42-2l30.25-13.42-11.54-48.12.55-.42a185.65,185.65,0,0,0,41.54-43.65l.38-.57,48.64,9.14,23.81-61.75-42.19-25.87.1-.68a185.44,185.44,0,0,0-1.49-60.25L1465,664l40.85-27.92-27.19-61.3a1.06,1.06,0,0,1,.54-1.39,1,1,0,0,1,1.38.54l27.89,62.89L1467.26,665a187.78,187.78,0,0,1,1.47,59.57l42.51,26.07-25.07,65-49-9.21a187.7,187.7,0,0,1-41.07,43.16l11.62,48.49-31.85,14.12A1,1,0,0,1,1375.44,912.26Zm-305.81-117.9a1,1,0,0,1-1-.62l-14.13-31.85,41.17-28.14a187.44,187.44,0,0,1-1.47-59.56l-42.51-26.08,25.06-65,49,9.22a187.59,187.59,0,0,1,41.08-43.17l-11.62-48.49,31.84-14.12a1.05,1.05,0,0,1,1.39.53,1.06,1.06,0,0,1-.54,1.39l-30.25,13.41L1169.24,550l-.55.42a185.45,185.45,0,0,0-41.54,43.65l-.39.57-48.64-9.14-23.81,61.75,42.19,25.88-.09.67a185.71,185.71,0,0,0,1.48,60.25l.13.67-40.85,27.93,13.41,30.25a1,1,0,0,1-.53,1.38A1.06,1.06,0,0,1,1069.63,794.36Zm85.31-79a1,1,0,0,1-1-.92,128.47,128.47,0,0,1,255.17-30.09,1,1,0,1,1-2.08.25,126.37,126.37,0,0,0-251,29.59,1,1,0,0,1-.92,1.17ZM1387.37,545.2h-.2a1,1,0,0,1-.83-1.23l9-48-61.75-23.8-25.88,42.19-.67-.1a185.43,185.43,0,0,0-60.25,1.49,1,1,0,0,1-1.22-.84,1,1,0,0,1,.83-1.22,187.36,187.36,0,0,1,60.24-1.6l26.07-42.51,65,25.07-9.34,49.68A1.06,1.06,0,0,1,1387.37,545.2Z"/><path class="cls-32" d="M1813.42,702.66a68.43,68.43,0,0,0-17.61-13.57l1.5-18.16-12-3.26-12-3.25-7.86,16.44a68.15,68.15,0,0,0-22.05,2.85l-11.79-13.9-10.8,6.2-10.81,6.21L1716,699.4A68.43,68.43,0,0,0,1702.43,717l-18.16-1.5-3.26,12-3.25,12,16.44,7.86a68.15,68.15,0,0,0,2.85,22.05l-13.9,11.79,6.2,10.8,6.21,10.81,17.18-6.06a68.66,68.66,0,0,0,17.61,13.57l-1.5,18.16,12,3.26,12,3.25,7.86-16.44a68.15,68.15,0,0,0,22-2.85l11.79,13.9,10.8-6.2,10.81-6.21-6.06-17.18a68.66,68.66,0,0,0,13.57-17.61l18.16,1.5,3.26-12,3.25-12L1832,752.05a68.15,68.15,0,0,0-2.85-22l13.9-11.79-6.2-10.8-6.21-10.81Zm-27.07,87.62a46.75,46.75,0,1,1,17.27-63.82A46.75,46.75,0,0,1,1786.35,790.28Z"/><rect class="cls-21" x="1177.34" y="1112.1" width="226.07" height="139.4" rx="8.17"/><path class="cls-18" d="M1382.18,1137.49h-188.5a2.37,2.37,0,1,1,0-4.73h188.5a2.37,2.37,0,0,1,0,4.73Z"/><path class="cls-18" d="M1382.18,1164.31h-188.5a2.36,2.36,0,1,1,0-4.72h188.5a2.36,2.36,0,0,1,0,4.72Z"/><path class="cls-18" d="M1316.16,1191.14H1193.68a2.36,2.36,0,1,1,0-4.72h122.48a2.36,2.36,0,1,1,0,4.72Z"/><path class="cls-18" d="M1383.58,1191.14H1334.7a2.36,2.36,0,0,1,0-4.72h48.88a2.36,2.36,0,1,1,0,4.72Z"/><path class="cls-18" d="M1270.66,1218h-77a2.36,2.36,0,1,1,0-4.72h77a2.36,2.36,0,1,1,0,4.72Z"/><path class="cls-18" d="M1383.58,1218h-95.65a2.36,2.36,0,1,1,0-4.72h95.65a2.36,2.36,0,1,1,0,4.72Z"/><path class="cls-21" d="M1334.28,1245.34c.23.93,36.63,48.29,36.86,46.89s-4.2-50.86-4.2-50.86Z"/><rect class="cls-21" x="1796.5" y="976.3" width="226.07" height="105.4" rx="8.17"/><path class="cls-18" d="M2001.34,1001.68h-188.5a2.37,2.37,0,1,1,0-4.73h188.5a2.37,2.37,0,0,1,0,4.73Z"/><path class="cls-18" d="M2001.34,1028.51h-188.5a2.37,2.37,0,1,1,0-4.73h188.5a2.37,2.37,0,0,1,0,4.73Z"/><path class="cls-18" d="M2002.74,1055.34h-48.88a2.37,2.37,0,0,1,0-4.73h48.88a2.37,2.37,0,0,1,0,4.73Z"/><path class="cls-21" d="M1953.44,1078.65c.23.93,36.63,48.29,36.86,46.89s-4.2-50.86-4.2-50.86Z"/><path class="cls-18" d="M1934.42,1055.34H1819.71c-3.06,0-5.54-1.06-5.54-2.36s2.48-2.37,5.54-2.37h114.71c3.06,0,5.54,1.06,5.54,2.37S1937.48,1055.34,1934.42,1055.34Z"/><polygon class="cls-10" points="1933.18 1601.88 1950.82 1611.79 1971.91 1591.05 1972.48 1587.68 1967.32 1549.94 1926.27 1557.59 1933.18 1601.88"/><path class="cls-41" d="M1963.32,1612.89l-56.58,7.7a9.84,9.84,0,0,1-1.26-.08c-5.55-.91-4.27-4.53-4.27-4.53l24.8-20.51.18-2.52c.29-4.06,5-6.12,9-4l10.42,5.63s24.5.35,26.89-6.94l2.22,17.79S1977.3,1610.89,1963.32,1612.89Z"/><polygon class="cls-10" points="1860.08 1604.3 1877.72 1614.21 1898.81 1593.47 1899.38 1590.1 1894.22 1552.36 1853.17 1560.01 1860.08 1604.3"/><path class="cls-41" d="M1890.22,1615.3l-56.58,7.71a8.09,8.09,0,0,1-1.26-.09c-5.55-.9-4.27-4.52-4.27-4.52l24.8-20.51.18-2.52c.29-4.06,5-6.12,9-3.95l10.42,5.63s24.5.35,26.89-7l2.22,17.8S1904.2,1613.31,1890.22,1615.3Z"/><path class="cls-12" d="M1998.79,1453.55s70.57,3.32,90.16-1,24.43-65.52,2.18-103-100.1,77.58-100.1,77.58Z"/><path class="cls-41" d="M1955.15,1362.72S1856.88,1378,1854,1389.4s-11,132.52-4.91,184.2c0,0,37.44,2.58,55.34-1.76l5.08-118.39,30.13.55,66.4-92.94Z"/><path class="cls-12" d="M2003,1369.83s-76.09,21.48-78.94,32.87-11,119.49-4.85,171.17c0,0,40.25,2.31,58.15-2l4.83-118.87,17.36.61,42.11-74.08Z"/><path class="cls-42" d="M2050.12,1224.86s33.63.56,41.45,5.17,43.62,63.62,51.36,88.64c0,0-20.21,17.7-46.26,18.38l-6.25-11.8,3.57,24.16-68.21,20.23a111.93,111.93,0,0,1-70.53-2.29l-7.09-2.62s.11-114.8,20.62-126.93C1987,1227,2026.62,1221.3,2050.12,1224.86Z"/><path class="cls-10" d="M2007.86,1168.45V1201s-.46,11,9.15,12.36l-1.79,14.66a11.44,11.44,0,0,0,7.82,12.32,30,30,0,0,0,9.08,1.4c11,0,16.94-8.24,17.85-12.36s-1.83-23.8-1.83-23.8l.34-9.68-1.25-37.47Z"/><path class="cls-3" d="M2034.38,1184.7a.48.48,0,0,0,.32-.13.46.46,0,0,0,0-.65c-.06-.06-6.36-6.5-12.11-1.87a.46.46,0,1,0,.57.71c5.1-4.1,10.65,1.55,10.88,1.8A.47.47,0,0,0,2034.38,1184.7Z"/><path class="cls-3" d="M2015.51,1182a.44.44,0,0,0,.35-.16.46.46,0,0,0,0-.64c-.18-.16-4.55-3.9-7.31-1.53a.46.46,0,0,0,0,.64.45.45,0,0,0,.65,0c2.16-1.85,6.07,1.49,6.11,1.53A.5.5,0,0,0,2015.51,1182Z"/><circle cx="2026.5" cy="1186.55" r="1.37"/><circle cx="2011.9" cy="1185.17" r="1.37"/><path class="cls-3" d="M2046,1160.18l-7.67,10.85s-23.22,9-35.12-1.66-8.24-15.81-4.75-21.16c1.72-2.64,9.93-8,20-3.53,5.5,2.44,9.56-4.84,16-1.18s14,10,13.13,12.51S2046,1160.18,2046,1160.18Z"/><path class="cls-3" d="M2045.48,1155.6s10.57-.51,13.52,9.67-1,15.5-1.12,18.53,2,23.48-12.4,22l-3.87-33.77,5-13.45Z"/><circle class="cls-10" cx="2044.71" cy="1186.07" r="8.24"/><path class="cls-13" d="M2045.32,1191.12a3.44,3.44,0,0,0,3.23-2.57,3.25,3.25,0,0,0-1.3-3.77,3.9,3.9,0,0,0-4.33.15,3.74,3.74,0,0,1,1.67-2,5.1,5.1,0,0,1,3.65-.24.23.23,0,0,0,.15-.44,5.55,5.55,0,0,0-4,.27,4.43,4.43,0,0,0-2.1,3l-.2.8.58-.58a3.58,3.58,0,0,1,4.36-.55,2.81,2.81,0,0,1,1.1,3.25,3,3,0,0,1-2.79,2.24h0a.23.23,0,0,0,0,.46Z"/><path class="cls-13" d="M2039.3,1204s-.65,18.39-23.61,20.15l1.32-10.81S2031.91,1216.3,2039.3,1204Z"/><path class="cls-3" d="M2091.34,1326.73c28.39-4.41,45.24-21.42,45.4-21.59l-1-1c-.17.17-16.71,16.85-44.63,21.2Z"/><path class="cls-3" d="M1953.16,1575.28c17.79,0,24.13-2.68,24.43-2.81l.39-.18,4.67-119.56-7.35,3.47.59,1.24,5.3-2.5-4.54,116.41c-1.93.67-11.15,3.33-32.94,2.32l-.07,1.38C1947.13,1575.21,1950.29,1575.28,1953.16,1575.28Z"/><path class="cls-3" d="M1969.84,1549.49c1.9-7.32,2.44-78.74,2.46-81.78h-1.37c0,.75-.56,74.29-2.42,81.45Z"/><path class="cls-3" d="M1878.82,1575.71a126.18,126.18,0,0,0,26.31-2.63l4.41-119.63-5.63,3.9.86,1.07,3.29-2.64-4.27,116.2a125.24,125.24,0,0,1-26.3,2.36v1.37Z"/><path class="cls-3" d="M1898,1552.15c1.89-11.06.09-85.93,0-89.11l-1.37,0c0,.78,1.88,77.92,0,88.85Z"/><path class="cls-10" d="M1965.85,1375.74l7.77-12.09h0c4.29-6.93,11.21-16,18.41-16.81,11.76-1.31,83.43-4.26,106.17-7.06,0,0-1.57-2.74-1.53-2.73.27.06,18.59-3.12,18.59-3.12l11.8-5.6,10.61-4.58c2.94,11.41,11,30.17,2.73,43.24-15.24,24.15-131.79,12.26-142.13,9.1l-9.52,10.31-2,3a3.05,3.05,0,0,1-5.12-3.33l-.81,1.25a3.06,3.06,0,0,1-4.23.89h0a3.05,3.05,0,1,0-5.12-3.33,3.06,3.06,0,0,1-.89-4.23l.81-1.25a3,3,0,0,1-4.22.9h0l-.17-.12,0,0-.07-.06h0a2.52,2.52,0,0,1-.5-.53A3.31,3.31,0,0,1,1965.85,1375.74Z"/><path class="cls-3" d="M2096.31,1338h.43c23.16-.54,46.43-18.34,46.66-18.52l.43-.34-14.68-32.53-1.26.57,14.24,31.53c-3.25,2.4-24.15,17.22-45,17.9l-6.3-12.82-1.23.6Z"/><path class="cls-13" d="M2106.38,1351a.46.46,0,0,0,.46-.73l-8.34-10.74a.46.46,0,0,0-.73.57l8.35,10.73A.41.41,0,0,0,2106.38,1351Z"/><path class="cls-13" d="M1970.1,1381.14a.47.47,0,0,0,.48-.17l10.91-15a.46.46,0,0,0-.74-.54l-10.91,15a.45.45,0,0,0,.1.64A.37.37,0,0,0,1970.1,1381.14Z"/><path class="cls-13" d="M1974.9,1385.53a.46.46,0,0,0,.48-.19l10.42-15.45a.47.47,0,0,0-.12-.64.46.46,0,0,0-.64.12l-10.42,15.46a.45.45,0,0,0,.12.63A.37.37,0,0,0,1974.9,1385.53Z"/><path class="cls-13" d="M1980.69,1388.32a.44.44,0,0,0,.48-.19l8.67-13.1a.45.45,0,0,0-.13-.63.47.47,0,0,0-.64.13l-8.66,13.1a.45.45,0,0,0,.13.63A.39.39,0,0,0,1980.69,1388.32Z"/><path class="cls-3" d="M2029,1454.84c-34.8,0-55.84-2.34-56.15-2.38l.16-1.36c.46.05,47.66,5.3,118,0l.1,1.37C2067.56,1454.24,2046.54,1454.84,2029,1454.84Z"/><rect class="cls-3" x="1950.82" y="1299.17" width="58.34" height="1.37" transform="translate(618.2 3237.78) rotate(-88.19)"/><rect class="cls-3" x="2082.43" y="1272.4" width="1.37" height="68.41" transform="translate(-348.11 938.18) rotate(-23.48)"/><rect class="cls-3" x="2090.45" y="1321.45" width="1.37" height="19.05" transform="translate(-185.51 350.54) rotate(-9.18)"/><path class="cls-13" d="M2020.28,1195.81a.22.22,0,0,0,.22-.16.23.23,0,0,0-.15-.29l-4.59-1.51,1.45-10.8a.23.23,0,1,0-.45-.06l-1.5,11.17,5,1.64Z"/><path class="cls-37" d="M2023.83,1200.27c-.14,0-9.06-.24-9.06-.24s1.12,3.69,4.44,3.78S2023.83,1200.27,2023.83,1200.27Z"/><polygon class="cls-7" points="1832.95 1286.59 1942.02 1286.59 1980.06 1383.46 1870.99 1383.46 1832.95 1286.59"/><polygon class="cls-8" points="1980.06 1383.46 1974.37 1383.46 1936.33 1286.59 1942.02 1286.59 1980.06 1383.46"/><path class="cls-36" d="M1904.26,1331.94c1.51,4.45.4,8.85-2.48,9.83s-6.44-1.84-8-6.29-.4-8.85,2.48-9.83S1902.74,1327.49,1904.26,1331.94Z"/><path class="cls-8" d="M2016.12,1375.64h-40.75v7.82h40.75a3.91,3.91,0,0,0,3.91-3.91h0A3.91,3.91,0,0,0,2016.12,1375.64Z"/><rect class="cls-7" x="1980.06" y="1378.33" width="25.74" height="1.23"/><rect class="cls-12" x="1964.7" y="1383.46" width="48" height="17.15"/><path class="cls-21" d="M1144.91,386.32c36-.42,120.29-.08,192.95,10.07,30.06,4.19,57.78-20.15,59.13-52.37.55-13.18-2.93-28.73-13.36-46.66-40.15-69.05-121.3-9-122.7,25,0,0-12.37-51.88-60.28-45.27s-35.87,81.77-35.87,81.77-15.06-4.18-26.14,3C1127.75,368.84,1132.27,386.46,1144.91,386.32Z"/><path class="cls-21" d="M226.3,578c58.14-4.61,200-13.81,285.64-2,12.38,1.72,20.43-12.86,12.23-22.28-5.92-6.8-16.37-12.46-34.66-13.09,0,0,16.13-79.53-60.71-86.25-79-6.9-79.22,76.58-79.22,76.58S303,487.67,281.21,542.07c0,0-48.93-20.83-70.76,5.85C200.17,560.49,210.12,579.27,226.3,578Z"/><path class="cls-38" d="M2558.51,843c0-119.79-97.12-216.91-216.91-216.91S2124.69,723.24,2124.69,843a216.19,216.19,0,0,0,62.6,152.43h0s65.65,70.21,87.82,146.72c0,0,37.89,12.87,66.5,13.59,28.6-.72,66.5-13.59,66.5-13.59,22.17-76.51,87.81-146.72,87.81-146.72h0A216.15,216.15,0,0,0,2558.51,843Z"/><path class="cls-7" d="M2341.55,1269.64h0a33.72,33.72,0,0,1-33.72-33.72h67.43A33.72,33.72,0,0,1,2341.55,1269.64Z"/><path class="cls-7" d="M2269.24,1124.89h144.62a0,0,0,0,1,0,0v59.52a60.75,60.75,0,0,1-60.75,60.75H2330a60.75,60.75,0,0,1-60.75-60.75v-59.52A0,0,0,0,1,2269.24,1124.89Z"/><path class="cls-43" d="M2558.51,843a215.82,215.82,0,0,0-36.21-120c-63.44,156.31-164.62,261.45-310.36,302.23,18.36,24.07,42.69,60.33,57.4,99.64h144.52c26-69.48,82-129.43,82-129.43h0A216.15,216.15,0,0,0,2558.51,843Z"/><path class="cls-28" d="M2377,1125.73l-6.21-1.69c.2-.74,20.43-75.12,34.46-151.3,24.35-132.19,10.35-160.22-.16-165.17-10.75-5.06-19.2-4.15-25.12,2.69-.43.5-.85,1-1.24,1.58a40.12,40.12,0,0,1,19.7,28.23c2.41,15.35-4.46,30.67-15.3,34.16-2.63.84-7.68,1.26-12-5.34-6.94-10.49-9.11-36.71-1.34-54.2-7.46-3.05-16.54-4.67-26.94-4.67h-6.26c-10.39,0-19.47,1.62-26.93,4.67,7.76,17.49,5.6,43.71-1.34,54.2-4.36,6.6-9.41,6.18-12,5.33-10.84-3.48-17.71-18.8-15.3-34.15a40.12,40.12,0,0,1,19.7-28.23c-.4-.55-.81-1.08-1.24-1.57-5.92-6.85-14.38-7.76-25.12-2.7-10.51,4.95-24.51,33-.17,165.17,14,76.18,34.26,150.56,34.47,151.3l-6.21,1.69c-.21-.74-20.5-75.35-34.58-151.79-19.44-105.54-18.21-161.86,3.75-172.19,17-8,27.2-2.08,32.73,4.3a32.63,32.63,0,0,1,2.18,2.86c7.59-3.22,17.4-5.32,30.1-5.32h6.26c12.71,0,22.52,2.1,30.11,5.32a30.78,30.78,0,0,1,2.18-2.86c5.53-6.39,15.69-12.32,32.73-4.3,22,10.33,23.18,66.65,3.75,172.19C2397.54,1050.38,2377.24,1125,2377,1125.73Zm-73.16-308.2c-9.15,5.34-15,13.37-16.54,23.54-2.1,13.39,3.94,24.79,10.91,27,.65.21,2.37.77,4.7-2.76C2308.89,856.36,2310.46,832.64,2303.88,817.53Zm71.69,0c-6.58,15.11-5,38.83.92,47.81,2.34,3.53,4.06,3,4.71,2.76,7-2.24,13-13.64,10.91-27C2390.52,830.9,2384.72,822.87,2375.57,817.53Z"/><path class="cls-3" d="M2268.19,1126.4c-1.73-4.94-2.51-6.75-4.22-10.72l-.93-2.17c-27.08-63.24-76.44-116.42-76.93-117l-.16-.16A217.24,217.24,0,0,1,2123.08,843c0-120.49,98-218.51,218.52-218.51a218,218,0,0,1,183,99l-2.7,1.76a214.84,214.84,0,0,0-180.25-97.52c-118.72,0-215.3,96.59-215.3,215.3a214,214,0,0,0,62.14,151.3l2.09,2.13-.15,0c9.45,10.55,51.38,59.15,75.62,115.75l.93,2.17c1.73,4,2.53,5.88,4.3,10.93Z"/><path class="cls-3" d="M2190.11,742.89,2187,742c.16-.54,16.2-53.93,70.16-74l1.12,3C2205.89,690.51,2190.27,742.37,2190.11,742.89Z"/><path class="cls-3" d="M2200.06,762.2l-3.09-.9c.16-.54,16.19-53.93,70.15-74l1.12,3C2215.84,709.81,2200.21,761.68,2200.06,762.2Z"/><path class="cls-3" d="M2349.43,1246.76h-15.76a66.11,66.11,0,0,1-66-66v-57.45h146.23v3.21h-143v54.24a62.89,62.89,0,0,0,62.82,62.81h15.76a62.43,62.43,0,0,0,44.05-18l2.26,2.29A65.63,65.63,0,0,1,2349.43,1246.76Z"/><path class="cls-3" d="M2342.48,1271.26c-31.34,0-35.86-30.4-35.91-30.71l3.19-.44c.17,1.16,4.35,28.6,33.77,27.92l.07,3.22Z"/><path class="cls-3" d="M2490.34,964.46l-1.92-2.58c28.63-21.24,33.14-56.7,33.18-57.06l3.2.38C2524.75,905.57,2520.11,942.37,2490.34,964.46Z"/><path class="cls-3" d="M2484,949l-1.91-2.59c20.86-15.48,24.16-41.34,24.19-41.6l3.19.38C2509.34,906.31,2506,932.68,2484,949Z"/><path class="cls-3" d="M2262.6,1153.8l0-3.22c1.23,0,123.17-1.59,161.78-16l1.13,3C2386.33,1152.2,2267.63,1153.74,2262.6,1153.8Z"/><path class="cls-3" d="M2262.61,1181l-.06-3.21c1.33,0,133.66-2.65,158.4-15.9l1.52,2.83C2397.05,1178.31,2268.09,1180.87,2262.61,1181Z"/><path class="cls-3" d="M2269.25,1208.86l0-3.21c1.2,0,119.94-1.27,151.75-17.7l1.48,2.86C2390,1207.59,2274.17,1208.82,2269.25,1208.86Z"/><path class="cls-28" d="M2069.39,808.89a2.75,2.75,0,0,1-.41,0l-76.76-6.53a4.83,4.83,0,1,1,.81-9.62l76.76,6.53a4.83,4.83,0,0,1-.4,9.64Z"/><path class="cls-28" d="M2109.09,686.6a4.79,4.79,0,0,1-2.72-.84l-63.58-43.51a4.82,4.82,0,1,1,5.45-8l63.58,43.5a4.83,4.83,0,0,1-2.73,8.81Z"/><path class="cls-28" d="M2224,598.88a4.83,4.83,0,0,1-4.47-3l-29-71.37a4.83,4.83,0,0,1,8.95-3.64l29,71.38a4.81,4.81,0,0,1-2.65,6.28A4.69,4.69,0,0,1,2224,598.88Z"/><path class="cls-28" d="M2610,822.8a4.83,4.83,0,0,1-.31-9.65l76.87-5.07a4.83,4.83,0,1,1,.63,9.63l-76.87,5.08Z"/><path class="cls-28" d="M2572.57,699.78a4.83,4.83,0,0,1-2.66-8.86l64.4-42.29a4.82,4.82,0,1,1,5.29,8.07L2575.21,699A4.82,4.82,0,0,1,2572.57,699.78Z"/><path class="cls-28" d="M2474.21,598.6a4.93,4.93,0,0,1-1.9-.39,4.83,4.83,0,0,1-2.53-6.34l30.34-70.81a4.82,4.82,0,1,1,8.87,3.8l-30.34,70.81A4.83,4.83,0,0,1,2474.21,598.6Z"/><path class="cls-28" d="M2350.47,561.11h-.07a4.83,4.83,0,0,1-4.76-4.9l1.19-77a4.82,4.82,0,0,1,4.82-4.75h.08a4.82,4.82,0,0,1,4.75,4.9l-1.18,77A4.83,4.83,0,0,1,2350.47,561.11Z"/><g class="cls-44"><ellipse class="cls-45" cx="2442.52" cy="709.65" rx="25.38" ry="53.15" transform="translate(522.92 2378.38) rotate(-57.2)"/></g><rect class="cls-3" x="52.11" y="1799.73" width="2552" height="6.68" transform="translate(2656.22 3606.15) rotate(180)"/><path class="cls-37" d="M506.87,849.76c-.23-.06-15.45-1.39-15.45-1.39s1.52,6.42,7.17,6.93S506.87,849.76,506.87,849.76Z"/></g></g></g></svg>