<svg xmlns="http://www.w3.org/2000/svg" xmlns:xlink="http://www.w3.org/1999/xlink" viewBox="0 0 750.31 454.58"><defs><style>.cls-1{fill:none;}.cls-2{clip-path:url(#clip-path);}.cls-3{fill:#fff;}.cls-4{fill:#22121d;}.cls-5{fill:#303030;}.cls-6{fill:#1b1919;}.cls-7{fill:#e69fc3;}.cls-8{fill:#f89e74;}.cls-9{fill:#e23b28;}.cls-10{fill:#f0553d;}.cls-11{fill:#f07062;}.cls-12{fill:#6b85b6;}.cls-13{fill:#e2f3f1;}.cls-14{fill:#486ca9;}.cls-15{fill:#fdb615;}.cls-16{fill:#f8981d;}.cls-17{fill:#7b7f33;}.cls-18{fill:#eae7d8;}.cls-19{fill:#f05655;}.cls-20{fill:#fbfdfd;}</style><clipPath id="clip-path" transform="translate(0 0)"><rect class="cls-1" width="750.31" height="454.58"/></clipPath></defs><g id="Layer_2" data-name="Layer 2"><g id="Layer_1-2" data-name="Layer 1"><g class="cls-2"><g id="Group_25" data-name="Group 25"><path id="Path_1" data-name="Path 1" class="cls-3" d="M554.72,40.35a7,7,0,1,1-7.07-7h0a7,7,0,0,1,7,7" transform="translate(0 0)"/><path id="Path_2" data-name="Path 2" class="cls-3" d="M567.63,3.05a3.06,3.06,0,1,1-3.07-3h0a3,3,0,0,1,3.06,3h0" transform="translate(0 0)"/><path id="Path_3" data-name="Path 3" class="cls-3" d="M210.6,16.85a7,7,0,1,1-7.06-7h0a7,7,0,0,1,7,7" transform="translate(0 0)"/><path id="Path_4" data-name="Path 4" class="cls-3" d="M64.69,29.82a7,7,0,1,1-7.07-7h0a7,7,0,0,1,7,7" transform="translate(0 0)"/><path id="Path_5" data-name="Path 5" class="cls-3" d="M36.54,178.78a7,7,0,1,1-7.07-7h0a7,7,0,0,1,7,7" transform="translate(0 0)"/><path id="Path_6" data-name="Path 6" class="cls-3" d="M184.17,42.1a3.06,3.06,0,1,1-3.07-3.05h0a3,3,0,0,1,3,3.05h0" transform="translate(0 0)"/><path id="Path_7" data-name="Path 7" class="cls-3" d="M53.57,159.58a3.06,3.06,0,1,1-3.07-3.05h0a3.05,3.05,0,0,1,3.06,3.05h0" transform="translate(0 0)"/><path id="Path_8" data-name="Path 8" class="cls-3" d="M381.87,3.05a3.06,3.06,0,1,1-3.06-3h0a3,3,0,0,1,3.05,3h0" transform="translate(0 0)"/><path id="Path_9" data-name="Path 9" class="cls-3" d="M410.85,30.45A5.5,5.5,0,1,1,405.33,25h0a5.49,5.49,0,0,1,5.5,5.48" transform="translate(0 0)"/><path id="Path_10" data-name="Path 10" class="cls-3" d="M657,16.14a7,7,0,1,1-7.06-7h0a7,7,0,0,1,7,7" transform="translate(0 0)"/><path id="Path_11" data-name="Path 11" class="cls-3" d="M686.28,118.57a3.06,3.06,0,1,1-3.07-3h0a3.06,3.06,0,0,1,3.06,3h0" transform="translate(0 0)"/><path id="Path_12" data-name="Path 12" class="cls-3" d="M716.23,134.26a5.5,5.5,0,1,1-5.52-5.48h0a5.5,5.5,0,0,1,5.5,5.48" transform="translate(0 0)"/><rect id="Rectangle_7" data-name="Rectangle 7" class="cls-4" y="452.15" width="750.31" height="2.44"/><rect id="Rectangle_8" data-name="Rectangle 8" class="cls-5" x="301.24" y="268.29" width="85.66" height="178.75"/><path id="Path_13" data-name="Path 13" class="cls-5" d="M602,333.25V88.39a21.11,21.11,0,0,0-21.15-21.07H104.23A21.11,21.11,0,0,0,83.08,88.39h0V333.25Z" transform="translate(0 0)"/><path id="Path_14" data-name="Path 14" class="cls-6" d="M83.08,331.42V372c0,8.44,5.42,15.28,12.1,15.28H589.94c6.68,0,12.1-6.84,12.1-15.28V331.42Z" transform="translate(0 0)"/><path id="Path_15" data-name="Path 15" class="cls-7" d="M589.89,322.62V89A11.31,11.31,0,0,0,578.36,78H106.76A11.31,11.31,0,0,0,95.23,89V322.62Z" transform="translate(0 0)"/><path id="Path_16" data-name="Path 16" class="cls-6" d="M459.94,452.13c1.45-8.45-4.25-15.3-12.73-15.3H241.07c-8.48,0-16.53,6.85-18,15.3Z" transform="translate(0 0)"/><path id="Path_17" data-name="Path 17" class="cls-4" d="M589.94,387.88H95.18c-7,0-12.72-6.9-12.72-15.4V88.38A21.76,21.76,0,0,1,104.23,66.7v1.24A20.51,20.51,0,0,0,83.7,88.38v284.1c0,7.81,5.15,14.16,11.48,14.16H589.94Z" transform="translate(0 0)"/><path id="Path_18" data-name="Path 18" class="cls-4" d="M590.51,323.23H95.23V322h494V89a10.71,10.71,0,0,0-10.91-10.47V77.34A11.94,11.94,0,0,1,590.51,89Z" transform="translate(0 0)"/><path id="Path_19" data-name="Path 19" class="cls-8" d="M382.62,104.59s3.37-12.54,6.45-13.86,6.51.89,6.51.89,3.29-4.48,5.53-4.05A3.61,3.61,0,0,1,403.9,90s4,.42,4.37,3.66c0,0,3.12.76,3.08,3.3,0,0,1.61.73,1.51,3.82,0,0-5.36,10.43-13.22,14.12s-17-10.31-17-10.31" transform="translate(0 0)"/><path id="Path_20" data-name="Path 20" class="cls-9" d="M311.26,322.62l.93-88.76-2-11.4-48.62,17.38s1.5,37.52,4.65,82.78Z" transform="translate(0 0)"/><path id="Path_21" data-name="Path 21" class="cls-10" d="M273.92,322.61l5.47-62.6,9.24-45.69L225.77,241s-.45,36.86.31,81.66Z" transform="translate(0 0)"/><path id="Path_22" data-name="Path 22" d="M274,323.3h0a.46.46,0,0,1-.42-.49h0c0-.23,1.92-23.26,3.88-45.73a.46.46,0,0,1,.92.08c-2,22.47-3.87,45.49-3.89,45.72a.46.46,0,0,1-.45.42" transform="translate(0 0)"/><rect id="Rectangle_9" data-name="Rectangle 9" class="cls-4" x="223.02" y="322" width="92.02" height="1.24"/><path id="Path_23" data-name="Path 23" class="cls-3" d="M369.15,41.56l51.14,84.85L416,129.64l-40.5-74.78Z" transform="translate(0 0)"/><path id="Path_24" data-name="Path 24" class="cls-8" d="M395.2,91.35a20.88,20.88,0,0,1,3.62-3c1.36-.69,9.45,14.13,9.45,14.13l1.18,3.67s-1,1.93-1.71,1.85a11.39,11.39,0,0,1-2.7-1.62l-.53-2-.81-.23-1.07-1-.53-1.6L401,102l-1.61-.63-.75-1.5-.32-.15-4.8-7.69Z" transform="translate(0 0)"/><path id="Path_25" data-name="Path 25" class="cls-11" d="M398.15,100a5.39,5.39,0,0,1-2.39-1,14.21,14.21,0,0,0-1.85-1,4.26,4.26,0,0,0-2.76-.41.27.27,0,0,1-.34-.14.25.25,0,0,1,.14-.34s1-.43,3.15.41a12.65,12.65,0,0,1,1.93,1c1.34.8,2.19,1.26,2.76.63a2.49,2.49,0,0,0,.65-2c-.14-1.59-1.65-3.62-4-5.43a5.73,5.73,0,0,0-5.6-1.08.27.27,0,0,1-.35-.13.25.25,0,0,1,.13-.34,6.2,6.2,0,0,1,6.14,1.14c2.52,1.92,4.07,4,4.23,5.79a3,3,0,0,1-.79,2.36,1.32,1.32,0,0,1-1,.47" transform="translate(0 0)"/><path id="Path_26" data-name="Path 26" class="cls-3" d="M377.6,101.7l1.9-2.37s16.85,4.72,22.95,18.48l-2.67,3.59s-12.32-15.32-22.18-19.7" transform="translate(0 0)"/><path id="Path_27" data-name="Path 27" class="cls-12" d="M317.43,246.47l.31-.4-1.61-90.32s29.82,19.92,38.76,20.31,45.89-54.26,45.89-54.26C393,104,376.6,101.53,376.6,101.53l-30.52,33.32-35.75-32.3C305.56,99.67,268.91,99,268.91,99S227.2,98.1,222.43,101s-22.3,50.36-25,71.9,0,35.48,16.51,38l6,.12.46,35.45s33.28,7.46,97,0" transform="translate(0 0)"/><path id="Path_28" data-name="Path 28" class="cls-5" d="M303.24,217.35H267a4.14,4.14,0,0,1-4.15-4.14h0V165.4a4.14,4.14,0,0,1,4.15-4.14h36.21a4.14,4.14,0,0,1,4.15,4.14v47.82a4.14,4.14,0,0,1-4.15,4.13" transform="translate(0 0)"/><path id="Path_29" data-name="Path 29" class="cls-13" d="M296.43,159.14H275.7a2.12,2.12,0,0,0-2.13,2.12h25a2.12,2.12,0,0,0-2.13-2.12" transform="translate(0 0)"/><path id="Path_30" data-name="Path 30" class="cls-8" d="M308.45,190.14c4.81-4.22-.22-4.93-.22-4.93,2.34-2.53,1.79-3.71.93-4.25a2.37,2.37,0,0,0-2.12-.18c-2.21.86-9,3.49-13.07,5.39-2.93-.21-2-5.12-.68-7.65.67-1.29.72-3.44-2.46-1.28-2.6,1.77-6.5,7.58-6.5,7.58L268,183.25l2.43,22.4s18.63-.26,21.44-.27,12.21-3.21,15.05-5.68c5.15-4.46,1.91-4.69,1.91-4.69,4.91-5.14-.39-4.87-.39-4.87" transform="translate(0 0)"/><path id="Path_31" data-name="Path 31" class="cls-11" d="M302.34,188.91a.35.35,0,0,1-.37-.31.34.34,0,0,1,.21-.34,40.66,40.66,0,0,0,5.85-3.33.35.35,0,0,1,.47.09.34.34,0,0,1-.08.47h0a43,43,0,0,1-6,3.4l-.1,0" transform="translate(0 0)"/><path id="Path_32" data-name="Path 32" class="cls-11" d="M302.67,193.15a.34.34,0,0,1-.11-.66,20.79,20.79,0,0,0,5.7-2.63.34.34,0,0,1,.47.09.32.32,0,0,1-.08.46h0a21.23,21.23,0,0,1-5.92,2.73h-.06" transform="translate(0 0)"/><path id="Path_33" data-name="Path 33" class="cls-11" d="M303.8,197.93a.32.32,0,0,1-.36-.3.32.32,0,0,1,.24-.35,18.13,18.13,0,0,0,4.95-2.54.36.36,0,0,1,.48,0,.35.35,0,0,1-.05.48h0a18.32,18.32,0,0,1-5.17,2.64h-.07" transform="translate(0 0)"/><path id="Path_34" data-name="Path 34" class="cls-4" d="M229.07,179l-.68-.8,6.65-5.59L237.57,142l1.05.09-2.57,31.11Z" transform="translate(0 0)"/><path id="Path_35" data-name="Path 35" class="cls-4" d="M219.92,211.56l-6.08-.14c-8.1-1.24-13.3-5.24-15.88-12.22-2.25-6.06-2.59-14.44-1.07-26.39l1,.13c-3.08,24.35,1.57,35.2,16,37.44l6,.13Z" transform="translate(0 0)"/><path id="Path_36" data-name="Path 36" class="cls-3" d="M278.32,177.91h3.28s3.49,22.35-1.28,32.61h-4.08s4.76-21,2.08-32.61" transform="translate(0 0)"/><path id="Path_37" data-name="Path 37" class="cls-12" d="M261.18,174.54l16.42,1.05s3.32,10.43-.67,31.58c-.39,2.05-1.2,5.56-1.2,5.56s-16.68,1.32-19.29-4.07c-1.65-3.39,1.95-18,1.95-18Z" transform="translate(0 0)"/><path id="Path_38" data-name="Path 38" class="cls-4" d="M276.13,213.27l-56.22-1.71,0-1.05,55.37,1.68c.79-3.26,5.86-25.22,1.91-36.1l-41.71-2.66.07-1,42.38,2.7.13.31c4.6,11.89-1.59,36.42-1.86,37.45Z" transform="translate(0 0)"/><path id="Path_39" data-name="Path 39" class="cls-4" d="M346.45,143.76l-.87-8.66L311,103.82c-2.53-2.29-7.47-2.32-7.51-2.32v-1h0c.22,0,5.38,0,8.22,2.59l34.92,31.56.92,9.06Z" transform="translate(0 0)"/><path id="Path_40" data-name="Path 40" class="cls-4" d="M346.47,135.2l-.78-.7L376.4,101l.28,0c.16,0,16.4,2.86,24.58,20.57l-.95.44c-7.37-15.93-21.39-19.47-23.52-19.92Z" transform="translate(0 0)"/><path id="Path_41" data-name="Path 41" class="cls-3" d="M288.7,99.76c-10.09-1-19.55-1.63-19.55-1.63s-7.81.27-17.76.77v.16a18.67,18.67,0,0,0,37.32.7" transform="translate(0 0)"/><path id="Path_42" data-name="Path 42" class="cls-4" d="M277.58,250.11h-.92v-1.05c13.16.14,36.63-2.61,40.23-3.05l-1.3-98.94h1.06L318,246.94l-.47.06c-.25,0-25.47,3.12-39.92,3.12" transform="translate(0 0)"/><path id="Path_43" data-name="Path 43" class="cls-4" d="M258.92,118.63a24.76,24.76,0,0,1-10.84-14.34l1-.29a23.82,23.82,0,0,0,10.38,13.75Z" transform="translate(0 0)"/><path id="Path_44" data-name="Path 44" class="cls-8" d="M263,61.39s7.44-3.15,14-.89a9.47,9.47,0,0,1,6.37,9v3.93L263,64.74s-3.21,1.51-3,1.05,2.91-4.4,2.91-4.4" transform="translate(0 0)"/><path id="Path_45" data-name="Path 45" class="cls-8" d="M283.36,69V85.62s.25,5.93-5,6.67l1,7.92a6.19,6.19,0,0,1-4.24,6.66,16.4,16.4,0,0,1-4.92.75c-6,0-9.18-4.45-9.68-6.67s1-12.86,1-12.86l-.18-5.22L262,62.63Z" transform="translate(0 0)"/><path id="Path_46" data-name="Path 46" class="cls-6" d="M269,76.84a.25.25,0,0,1-.25-.24.29.29,0,0,1,.07-.18s3.45-3.51,6.57-1a.25.25,0,0,1-.3.4h0c-2.77-2.22-5.77.84-5.9,1a.24.24,0,0,1-.18.07" transform="translate(0 0)"/><path id="Path_47" data-name="Path 47" class="cls-6" d="M279.21,75.36a.25.25,0,0,1-.19-.09.25.25,0,0,1,0-.34h0c.1-.09,2.47-2.1,4-.83a.24.24,0,0,1,.05.35.24.24,0,0,1-.34,0l0,0c-1.17-1-3.29.8-3.32.82a.23.23,0,0,1-.16.06" transform="translate(0 0)"/><path id="Path_48" data-name="Path 48" d="M274,77.84a.75.75,0,1,1-.75-.74h0a.74.74,0,0,1,.75.74h0" transform="translate(0 0)"/><path id="Path_49" data-name="Path 49" d="M281.92,77.1a.75.75,0,0,1-.75.75.75.75,0,0,1,0-1.49h0a.75.75,0,0,1,.75.74h0" transform="translate(0 0)"/><path id="Path_50" data-name="Path 50" class="cls-6" d="M263,61.13s-6.3-.3-7.9,5.19,1.12,8.4,1.18,10S255.18,89,263,88.22L265.06,70l-2.71-7.27Z" transform="translate(0 0)"/><path id="Path_51" data-name="Path 51" class="cls-8" d="M267.85,77.58a4.47,4.47,0,1,1-4.49-4.44h0a4.45,4.45,0,0,1,4.47,4.44h0" transform="translate(0 0)"/><path id="Path_52" data-name="Path 52" class="cls-11" d="M263.05,80.31a1.86,1.86,0,0,1-1.75-1.39,1.73,1.73,0,0,1,.71-2,2.1,2.1,0,0,1,2.34.08,2,2,0,0,0-.9-1.1,2.82,2.82,0,0,0-2-.13.12.12,0,0,1-.16-.07h0a.12.12,0,0,1,.08-.16h0a3,3,0,0,1,2.18.14,2.46,2.46,0,0,1,1.14,1.63l.11.43-.32-.32a2,2,0,0,0-2.36-.3,1.51,1.51,0,0,0-.6,1.76,1.59,1.59,0,0,0,1.51,1.21h0a.12.12,0,0,1,.11.13.14.14,0,0,1-.11.12h0" transform="translate(0 0)"/><path id="Path_53" data-name="Path 53" class="cls-11" d="M266.32,87.25s.34,9.93,12.79,10.88l-.71-5.84s-8.07,1.62-12.08-5" transform="translate(0 0)"/><path id="Path_54" data-name="Path 54" class="cls-6" d="M284.23,82.83s1.62,11.89-6.3,12.31c-11.34.6-12.44-5.84-13.11-11.12l-.12-10.88.37-3.16a5.63,5.63,0,0,1,1.4,3.23c.23,2.61.81,9.65,1.47,10,.92.44,14.53-1.49,16.3-.34" transform="translate(0 0)"/><path id="Path_55" data-name="Path 55" class="cls-11" d="M276.63,82.85a.12.12,0,0,1-.12-.13.13.13,0,0,1,.08-.12l2.49-.81L278.29,76a.13.13,0,0,1,.11-.14.12.12,0,0,1,.14.11l.81,6-2.68.88h0" transform="translate(0 0)"/><path id="Path_56" data-name="Path 56" class="cls-8" d="M261.34,89.47l.86-8.37,2.09.23v8.38Z" transform="translate(0 0)"/><path id="Path_57" data-name="Path 57" class="cls-6" d="M264.13,61s-1.46,3.47.93,9.26-6.15-2.15-6.15-2.15.6-8.49,5.22-7.11" transform="translate(0 0)"/><path id="Path_58" data-name="Path 58" class="cls-11" d="M273.74,85.38a4,4,0,0,0,4.77,1.35.17.17,0,0,0,.09-.23h0a.17.17,0,0,0-.23-.08A3.63,3.63,0,0,1,274,85.18l-.1-.14a.17.17,0,0,0-.24,0,.18.18,0,0,0,0,.24,1.13,1.13,0,0,1,.1.13" transform="translate(0 0)"/><path id="Path_59" data-name="Path 59" class="cls-6" d="M265.06,70.23s19-1.12,20.15-5.54-3.3-4.55-3.3-4.55.84-6.29-4.9-4.42-16.35,1.62-19.33,6.91,7.38,7.6,7.38,7.6" transform="translate(0 0)"/><rect id="Rectangle_10" data-name="Rectangle 10" class="cls-14" x="428.8" y="91.86" width="21.74" height="38.92"/><rect id="Rectangle_11" data-name="Rectangle 11" class="cls-3" x="449.96" y="91.86" width="21.74" height="38.92"/><rect id="Rectangle_12" data-name="Rectangle 12" class="cls-10" x="471.26" y="91.86" width="21.74" height="38.92"/><rect id="Rectangle_13" data-name="Rectangle 13" class="cls-5" x="381.68" y="177.89" width="73.91" height="14.94"/><rect id="Rectangle_14" data-name="Rectangle 14" class="cls-10" x="381.68" y="192.82" width="73.91" height="14.94"/><rect id="Rectangle_15" data-name="Rectangle 15" class="cls-15" x="381.68" y="207.76" width="73.91" height="14.94"/><rect id="Rectangle_16" data-name="Rectangle 16" class="cls-3" x="478.58" y="241.04" width="67.09" height="13.56"/><rect id="Rectangle_17" data-name="Rectangle 17" class="cls-12" x="478.58" y="254.6" width="67.09" height="13.56"/><rect id="Rectangle_18" data-name="Rectangle 18" class="cls-10" x="478.58" y="268.15" width="67.09" height="13.56"/><rect id="Rectangle_19" data-name="Rectangle 19" class="cls-10" x="356.57" y="271.24" width="62.06" height="37.56"/><rect id="Rectangle_20" data-name="Rectangle 20" class="cls-16" x="356.57" y="277.12" width="62.06" height="25.79"/><rect id="Rectangle_21" data-name="Rectangle 21" class="cls-3" x="504.43" y="157.48" width="67.34" height="40.82"/><rect id="Rectangle_22" data-name="Rectangle 22" class="cls-10" x="504.43" y="157.48" width="67.34" height="40.82"/><path id="Path_60" data-name="Path 60" class="cls-3" d="M571.76,157.47h-7.52l-26.14,15.6L512,157.47h-7.52v5.14L530,177.88l-25.6,15.27v5.14H512l26.15-15.6,26.14,15.6h7.52v-5.14l-25.6-15.27,25.6-15.27Z" transform="translate(0 0)"/><path id="Path_61" data-name="Path 61" class="cls-14" d="M571.76,157.47h-4L538.1,175.2l-29.72-17.72h-3.95v3l29.16,17.4-29.16,17.4v3h3.95l29.72-17.72,29.71,17.72h4v-3l-29.16-17.4,29.16-17.4Z" transform="translate(0 0)"/><path id="Path_62" data-name="Path 62" class="cls-3" d="M531.19,198.29V183.21H504.43V172.56h26.76V157.47H545v15.09h26.76v10.65H545v15.08Z" transform="translate(0 0)"/><path id="Path_63" data-name="Path 63" class="cls-14" d="M571.77,173.9H543.54V157.47H532.65V173.9H504.43v8h28.22v16.43h10.89V181.86h28.23Z" transform="translate(0 0)"/><path id="Path_64" data-name="Path 64" class="cls-6" d="M67.52,223.9S63.1,215,63.1,215a112,112,0,0,0,94.12,203.18q4.16-1.76,8.13-3.82ZM11,315.07A102,102,0,0,1,63.2,226.21l93.12,181.53a102,102,0,0,1-42.84,9.36c-56.48,0-102.43-45.77-102.43-102" transform="translate(0 0)"/><path id="Path_65" data-name="Path 65" d="M113.48,427.39a.4.4,0,0,1-.41-.4.41.41,0,0,1,.4-.41h0a111.67,111.67,0,0,0,43.58-8.76c2.7-1.14,5.42-2.42,8.11-3.81a.4.4,0,0,1,.55.17.42.42,0,0,1-.17.55c-2.7,1.4-5.46,2.69-8.17,3.83a112.39,112.39,0,0,1-43.9,8.83" transform="translate(0 0)"/><path id="Path_66" data-name="Path 66" d="M93.47,425.63H93.4a112.27,112.27,0,0,1-30.48-211l.36-.18.19.36L67,221.72l2.39,4.74c.32.65.6,1.19.78,1.57.37.75.48,1,.11,1.14a.41.41,0,0,1-.55-.18s0,0,0-.05c-.24-.53-4.77-9.49-6.74-13.38A111.47,111.47,0,0,0,93.54,424.82a.41.41,0,0,1,.33.47.4.4,0,0,1-.4.34" transform="translate(0 0)"/><rect id="Rectangle_23" data-name="Rectangle 23" class="cls-6" x="83.16" y="418.52" width="13.43" height="30.09"/><path id="Path_67" data-name="Path 67" class="cls-6" d="M135.33,441.17H53.82a11,11,0,0,0-11,11H146.35a11,11,0,0,0-11-11" transform="translate(0 0)"/><path id="Path_68" data-name="Path 68" d="M83.57,441.58h-29a.41.41,0,0,1-.41-.4.4.4,0,0,1,.4-.41H82.75v-17.9a.41.41,0,0,1,.82,0Z" transform="translate(0 0)"/><path id="Path_69" data-name="Path 69" class="cls-12" d="M205.44,345.47c-16.86,50.58-71.69,78-122.48,61.19A96.43,96.43,0,0,1,21.42,285a2.81,2.81,0,0,0,.1-.31c16.86-50.58,71.69-78,122.48-61.19a96.43,96.43,0,0,1,61.54,121.68c0,.11-.07.21-.1.31" transform="translate(0 0)"/><path id="Path_70" data-name="Path 70" class="cls-17" d="M122.12,218.93c3.75,2.41,9.29,3.09,13.52,4.43,3.13,1,23.06,6.22,13.36,9.28,2.91-.92,9.49,13.72,12.16,15.49,4.88,3.22,6.45,1.56,8.74,8.22.67,1.95-.65,8.92-1.33,7.63,1.55,2.93,7.41,2.42,7.45,6.54-2.83,4.5-4.12.51-2.28,6.5s10,7.19,9-.44c-.38-2.92-4.57-11.82,2-11.87,3.7,0,7.09.48,3.71-4.32-3.09-4.37-2.35-4.39-1.8-8.61A96.73,96.73,0,0,0,170,236.63a97.84,97.84,0,0,0-47.85-17.7c.4.25,7.3.66,0,0" transform="translate(0 0)"/><path id="Path_71" data-name="Path 71" class="cls-17" d="M210.38,313.36l0-1.36V312l-.06-1.29v-.13c0-.42,0-.84-.07-1.26v-.06a96.74,96.74,0,0,0-9.87-36.88l0,0-.61-1.21c-4.73,4.54-11.27,3.92-14.89,8.65-6.45,8.42-2.86,15.3-7.22,24.83-3.11,6.78,2.46,19.37,6.46,24.69,6.9,9.17,15.49-5.12,16.13-4.45,4,4.23,4.93-.35,4.45,8.94-.06,1.08-1,13.91-1.84,17.77a.49.49,0,0,0,.19.51c.88-2.14,1.7-4.32,2.44-6.55s1.46-4.67,2.05-7a227.34,227.34,0,0,0,2.9-25.08" transform="translate(0 0)"/><path id="Path_72" data-name="Path 72" class="cls-17" d="M154.35,361.45c.07-6-22-6.85-26-13.53C123.65,340,110.68,339,104,336c-4.62-2.07-9.93-6.18-14.45-2.66-3.78,2.94-10.92,3.18-13.22-2.47a16.32,16.32,0,0,0,.22-8.74,41.14,41.14,0,0,0-7-1.14A19.41,19.41,0,0,1,72,315.07c-2.16-4-8,5.28-10.76-1.77-1.43-3.74-.72-14.4,3.94-16.14,2.26-.84,10.74-.5,12.85.7,5.16,2.92,2.29,7.3,6,9.95-5-3.52,13.3-22,15.56-23.11,5.8-2.82,18.36-3.56,22-9.32,4.07-6.35-5.75-14-8.63-18.6a17.13,17.13,0,0,1-2.78,2.53c-2.2.09-2.43-5.86-4.89-6.34-5.16-1-3.1,6.82-3.76,7.67-3.91,5-21.6-6.23-7.42-10.46,1.24-.36,27.55,5,22.72-1.68-1-1.45-8.84-6.64-6.91-8.93,3.75-4.47,7.16-1.31,9.3,2.62,1.36,2.52,13.27,25.27,12.31,8.94-.21-3.55,5.56-4.72,6-8.15.35-2.55-6.6-8.78-7.79-10.27-2.51-3.11-20.87-1-23.84-1-7.16.08-10.72,1.49-17.36,2.63-7.14,1.22-1.79-3.45-3.9-6.07-.78-1-8.5.86-8.86,1-7.54,2.65-6.8,2.47-5.79,7.19.51,2.42-8.48,10.77-9.45,13-4.28,9.8-12.91,15.5-13.78,26.74-.61,7.89-3.39,13.18,1.78,20,5.77,7.58-2.52,15.91,8.54,21.69,8.51,4.44,33,19.55,24.1,29.27-6.62,7.23-.38,13.81,3.11,20.9,5.86,11.91,14,7.23,9.28,23.42-8.3,28.18,21.85,6.41,21.9,6.84-.23-1.78,19.25-13.6,24.06-15.44,4.64-1.78,14.76-21.32,14.76-21.37,0-2.78,0,2.91,0,0" transform="translate(0 0)"/><path id="Path_73" data-name="Path 73" d="M113.52,412a97.67,97.67,0,0,1-77.08-37.73.41.41,0,0,1,.07-.58h0a.41.41,0,0,1,.58.08,96.77,96.77,0,0,0,99.83,34.52.41.41,0,0,1,.5.3.42.42,0,0,1-.3.5,97.34,97.34,0,0,1-23.6,2.91" transform="translate(0 0)"/><path id="Path_74" data-name="Path 74" d="M205.44,345.88l-.13,0a.41.41,0,0,1-.27-.52h0c16.76-50.29-10.68-104.78-61.17-121.47S38.67,234.52,21.92,284.81a.41.41,0,0,1-.53.24.41.41,0,0,1-.26-.5,97.43,97.43,0,0,1,179.32-12.93,96.28,96.28,0,0,1,5.38,74,.42.42,0,0,1-.39.28" transform="translate(0 0)"/><path id="Path_75" data-name="Path 75" class="cls-3" d="M478.93,402.08s10.36,26,1.67,45.6l199.16,1.66,18.38-1.66,16.2-10v-15.3l-4.5-12.65-14.7-7.65Z" transform="translate(0 0)"/><path id="Path_76" data-name="Path 76" class="cls-5" d="M689.09,451.87H473.92a2.53,2.53,0,0,1,0-5.06H689.09c13,0,23.56-9.76,23.56-21.77s-10.57-21.76-23.56-21.76H473.92a2.53,2.53,0,0,1,0-5.06H689.09c15.79,0,28.63,12,28.63,26.82s-12.84,26.83-28.63,26.83" transform="translate(0 0)"/><path id="Path_77" data-name="Path 77" class="cls-18" d="M587.45,425.61H481.85a.56.56,0,0,1-.58-.54.57.57,0,0,1,.54-.59H587.45a.57.57,0,0,1,0,1.13h0" transform="translate(0 0)"/><path id="Path_78" data-name="Path 78" class="cls-18" d="M704.91,425.61H602.32a.57.57,0,0,1-.05-1.13H704.91a.56.56,0,0,1,.58.54.57.57,0,0,1-.54.59h0" transform="translate(0 0)"/><path id="Path_79" data-name="Path 79" class="cls-18" d="M702.15,435.67H649.52a.56.56,0,1,1,0-1.12h52.63a.56.56,0,1,1,0,1.12" transform="translate(0 0)"/><path id="Path_80" data-name="Path 80" class="cls-18" d="M641.79,435.67H481.85a.56.56,0,0,1,0-1.12H641.79a.56.56,0,1,1,0,1.12" transform="translate(0 0)"/><path id="Path_81" data-name="Path 81" class="cls-3" d="M712.26,348.92s-10.36,26-1.68,45.6l-199.16,1.66L493,394.52l-16.19-10v-15.3l4.5-12.65L496,348.92Z" transform="translate(0 0)"/><path id="Path_82" data-name="Path 82" class="cls-9" d="M502.1,398.71H717.27a2.53,2.53,0,0,0,.1-5.06H502.1c-13,0-23.56-9.76-23.56-21.77s10.57-21.76,23.56-21.76H717.27a2.53,2.53,0,0,0,0-5.06H502.1c-15.79,0-28.63,12-28.63,26.82s12.84,26.83,28.63,26.83" transform="translate(0 0)"/><path id="Path_83" data-name="Path 83" class="cls-18" d="M709.33,372.45H603.73a.57.57,0,0,1-.05-1.13H709.33a.57.57,0,0,1,0,1.13h0" transform="translate(0 0)"/><path id="Path_84" data-name="Path 84" class="cls-18" d="M588.87,372.45H486.28a.57.57,0,0,1,0-1.13H588.87a.56.56,0,0,1,.58.54.57.57,0,0,1-.54.59h0" transform="translate(0 0)"/><path id="Path_85" data-name="Path 85" class="cls-18" d="M541.67,382.51H489a.56.56,0,1,1-.05-1.12h52.68a.56.56,0,0,1,.59.53.57.57,0,0,1-.54.59h-.05" transform="translate(0 0)"/><path id="Path_86" data-name="Path 86" class="cls-18" d="M709.33,382.51H549.39a.56.56,0,0,1-.58-.54.55.55,0,0,1,.54-.58h160a.56.56,0,0,1,.59.53.57.57,0,0,1-.54.59h0" transform="translate(0 0)"/><path id="Path_87" data-name="Path 87" class="cls-3" d="M512.56,298.86s9.61,24.09,1.55,42.31l184.83,1.55L716,341.17l15-9.27V317.7L726.86,306l-13.65-7.1Z" transform="translate(0 0)"/><path id="Path_88" data-name="Path 88" class="cls-12" d="M707.6,345.06H507.9a2.35,2.35,0,1,1-.09-4.69H707.6c12.06,0,21.86-9.06,21.86-20.2S719.66,300,707.6,300H507.9a2.35,2.35,0,0,1-.09-4.69H707.6c14.65,0,26.57,11.17,26.57,24.9s-11.92,24.9-26.57,24.9" transform="translate(0 0)"/><path id="Path_89" data-name="Path 89" class="cls-18" d="M613.27,320.73h-98a.56.56,0,0,1-.58-.54.55.55,0,0,1,.53-.58h98a.56.56,0,0,1,.59.53.57.57,0,0,1-.54.59h-.05" transform="translate(0 0)"/><path id="Path_90" data-name="Path 90" class="cls-18" d="M722.28,320.73H627.07a.56.56,0,1,1,0-1.12h95.25a.56.56,0,0,1,.59.53.57.57,0,0,1-.54.59h-.05" transform="translate(0 0)"/><path id="Path_91" data-name="Path 91" class="cls-18" d="M719.72,330.07H670.87a.56.56,0,0,1-.58-.54.57.57,0,0,1,.54-.59h48.89a.57.57,0,0,1,.59.54.57.57,0,0,1-.54.59h0" transform="translate(0 0)"/><path id="Path_92" data-name="Path 92" class="cls-18" d="M719.72,311.38H515.27a.55.55,0,0,1-.58-.53.56.56,0,0,1,.54-.59H719.72a.57.57,0,0,1,.59.54.56.56,0,0,1-.54.58h0" transform="translate(0 0)"/><path id="Path_93" data-name="Path 93" class="cls-4" d="M717.27,399.27H502.09c-16.1,0-29.19-12.28-29.19-27.38S486,344.5,502.09,344.5H717.27a3.09,3.09,0,1,1,0,6.18.57.57,0,0,1-.59-.54.56.56,0,0,1,.54-.58h0a2,2,0,1,0,.08-3.93H502.09c-15.47,0-28.06,11.78-28.06,26.26s12.59,26.26,28.06,26.26H717.27a2,2,0,0,0,0-3.93.57.57,0,0,1-.59-.54.56.56,0,0,1,.54-.58,0,0,0,0,1,0,0,3.09,3.09,0,1,1,0,6.17h0" transform="translate(0 0)"/><path id="Path_94" data-name="Path 94" class="cls-4" d="M707.6,345.62H507.9a2.91,2.91,0,1,1-.1-5.81h.1a.56.56,0,1,1,.05,1.12h-.05a1.79,1.79,0,0,0,0,3.57H707.6c14.34,0,26-10.92,26-24.33s-11.67-24.34-26-24.34H507.9a1.79,1.79,0,0,0,0,3.57h0a.57.57,0,0,1,.59.54.56.56,0,0,1-.54.58h-.05a2.91,2.91,0,0,1,0-5.81H707.6c15,0,27.14,11.42,27.14,25.45s-12.17,25.46-27.14,25.46" transform="translate(0 0)"/><path id="Path_95" data-name="Path 95" class="cls-4" d="M689.09,452.43H473.92a3.09,3.09,0,0,1,0-6.18h0a.57.57,0,0,1,.05,1.13h-.05a2,2,0,1,0,0,3.93H689.09c15.48,0,28.07-11.78,28.07-26.26s-12.59-26.27-28.07-26.27H473.92a2,2,0,1,0-.09,3.93h.09a.57.57,0,0,1,.05,1.13h-.05a3.09,3.09,0,0,1,0-6.18H689.09c16.1,0,29.19,12.28,29.19,27.39s-13.1,27.38-29.19,27.38" transform="translate(0 0)"/><path id="Path_96" data-name="Path 96" class="cls-15" d="M538.74,415s-6.78,16.81-2.87,29.19l5.5-8.47a73.35,73.35,0,0,1,6.07,8.47s4.2-27.65,12.35-29.19Z" transform="translate(0 0)"/><path id="Path_97" data-name="Path 97" class="cls-12" d="M683.16,361.81s6.78,16.82,2.87,29.2l-5.5-8.48a73.47,73.47,0,0,0-6.07,8.48s-4.2-27.65-12.35-29.2Z" transform="translate(0 0)"/><path id="Path_98" data-name="Path 98" class="cls-10" d="M547.52,329.51s-6.78,16.81-2.87,29.19l5.51-8.47a72.42,72.42,0,0,1,6.06,8.47s4.2-27.65,12.36-29.19Z" transform="translate(0 0)"/><path id="Path_99" data-name="Path 99" class="cls-18" d="M702.15,415.54H481.85a.57.57,0,0,1-.05-1.13H702.15a.56.56,0,0,1,.58.54.55.55,0,0,1-.53.59h-.05" transform="translate(0 0)"/><path id="Path_100" data-name="Path 100" class="cls-18" d="M709.33,362.38H489a.55.55,0,0,1-.58-.54.55.55,0,0,1,.53-.58H709.33a.57.57,0,0,1,.59.54.56.56,0,0,1-.54.58h0" transform="translate(0 0)"/><path id="Path_101" data-name="Path 101" class="cls-18" d="M663.71,330.07H515.27a.56.56,0,0,1-.58-.54.57.57,0,0,1,.54-.59H663.71a.56.56,0,0,1,.58.54.57.57,0,0,1-.54.59h0" transform="translate(0 0)"/><path id="Path_102" data-name="Path 102" class="cls-8" d="M616,363.77l7.63,4.27,9.12-8.94.24-1.45-2.23-16.26L613,344.69Z" transform="translate(0 0)"/><path id="Path_103" data-name="Path 103" class="cls-19" d="M629.05,368.51l-24.47,3.32a3.39,3.39,0,0,1-.55,0c-2.4-.39-1.85-2-1.85-2L612.91,361l.08-1.09c.13-1.75,2.15-2.63,3.89-1.7l4.5,2.43s10.6.15,11.63-3l1,7.67s1.13,2.33-4.92,3.19" transform="translate(0 0)"/><path id="Path_104" data-name="Path 104" class="cls-8" d="M584.4,364.81l7.63,4.27,9.12-8.94.24-1.44-2.23-16.26-17.75,3.29Z" transform="translate(0 0)"/><path id="Path_105" data-name="Path 105" class="cls-19" d="M597.43,369.55,573,372.87a3.39,3.39,0,0,1-.55,0c-2.4-.39-1.84-1.94-1.84-1.94l10.72-8.84.08-1.09c.13-1.74,2.15-2.63,3.89-1.7l4.51,2.43s10.6.15,11.63-3l1,7.66s1.13,2.34-4.92,3.19" transform="translate(0 0)"/><path id="Path_106" data-name="Path 106" class="cls-5" d="M644.38,299.43s31.38,1.46,40.1-.46,10.86-29,1-45.62-44.51,34.36-44.51,34.36Z" transform="translate(0 0)"/><path id="Path_107" data-name="Path 107" class="cls-6" d="M625,259.19S581.27,266,580,271s-4.9,58.7-2.19,81.59c0,0,16.65,1.14,24.61-.78L604.37,296l13.14-1.5,30.1-36Z" transform="translate(0 0)"/><path id="Path_108" data-name="Path 108" class="cls-5" d="M646.23,262.34s-33.84,9.51-35.1,14.56-4.87,52.93-2.16,75.81c0,0,17.9,1,25.87-.9L637,299.16l7.72.27,18.73-32.81Z" transform="translate(0 0)"/><path id="Path_109" data-name="Path 109" class="cls-15" d="M667.21,198.13s15,.25,18.43,2.29,19.4,28.18,22.84,39.26c0,0-9,7.84-20.57,8.14l-2.78-5.22,1.59,10.7-30.33,9a50,50,0,0,1-31.37-1l-3.15-1.16s0-50.85,9.17-56.22c8.12-4.79,25.72-7.31,36.17-5.73" transform="translate(0 0)"/><path id="Path_110" data-name="Path 110" class="cls-8" d="M648.41,173.14v14.4s-.2,4.87,4.08,5.48l-.81,6.49a5.08,5.08,0,0,0,3.48,5.46,13.52,13.52,0,0,0,4,.62,8.17,8.17,0,0,0,7.94-5.48c.41-1.82-.81-10.54-.81-10.54l.15-4.28-.56-16.6Z" transform="translate(0 0)"/><path id="Path_111" data-name="Path 111" class="cls-6" d="M660.21,180.34a.21.21,0,0,0,.21-.19.18.18,0,0,0-.07-.15s-2.82-2.88-5.38-.83a.2.2,0,1,0,.25.31c2.27-1.81,4.74.69,4.84.8a.2.2,0,0,0,.15.06" transform="translate(0 0)"/><path id="Path_112" data-name="Path 112" class="cls-6" d="M651.82,179.12a.2.2,0,0,0,.21-.19.21.21,0,0,0-.08-.16c-.08-.07-2-1.73-3.25-.68a.2.2,0,0,0,0,.28h0a.19.19,0,0,0,.28,0h0c1-.82,2.7.66,2.72.68a.23.23,0,0,0,.14,0" transform="translate(0 0)"/><path id="Path_113" data-name="Path 113" d="M656.09,181.16a.61.61,0,0,0,.61.61.61.61,0,0,0,.61-.61.61.61,0,0,0-.61-.61h0a.61.61,0,0,0-.61.61" transform="translate(0 0)"/><path id="Path_114" data-name="Path 114" d="M649.6,180.55a.61.61,0,0,0,.61.61.6.6,0,0,0,.61-.6.61.61,0,0,0-.6-.62h0a.61.61,0,0,0-.61.61" transform="translate(0 0)"/><path id="Path_115" data-name="Path 115" class="cls-6" d="M665.35,169.49l-3.41,4.8s-10.32,4-15.61-.74-3.67-7-2.12-9.37c.77-1.17,4.42-3.54,8.9-1.56,2.44,1.08,4.25-2.15,7.1-.53s6.21,4.44,5.83,5.55-.69,1.84-.69,1.84" transform="translate(0 0)"/><path id="Path_116" data-name="Path 116" class="cls-6" d="M665.15,167.45s4.69-.22,6,4.28-.46,6.87-.5,8.21.87,10.4-5.52,9.73l-1.72-15,2.22-6Z" transform="translate(0 0)"/><path id="Path_117" data-name="Path 117" class="cls-8" d="M661.14,181a3.67,3.67,0,1,0,3.68-3.65h0a3.66,3.66,0,0,0-3.66,3.65" transform="translate(0 0)"/><path id="Path_118" data-name="Path 118" class="cls-11" d="M665.07,183.19a1.54,1.54,0,0,0,1.44-1.14,1.43,1.43,0,0,0-.58-1.67,1.72,1.72,0,0,0-1.92.07,1.65,1.65,0,0,1,.74-.9,2.27,2.27,0,0,1,1.62-.1.11.11,0,0,0,.13-.07.1.1,0,0,0-.06-.13,2.52,2.52,0,0,0-1.79.12,2,2,0,0,0-.94,1.33l-.09.36.26-.26a1.6,1.6,0,0,1,1.94-.25,1.25,1.25,0,0,1,.49,1.44,1.3,1.3,0,0,1-1.24,1h0a.1.1,0,1,0,0,.2h0" transform="translate(0 0)"/><path id="Path_119" data-name="Path 119" class="cls-11" d="M662.4,188.88s-.29,8.14-10.5,8.92l.58-4.79s6.63,1.33,9.92-4.13" transform="translate(0 0)"/><path id="Path_120" data-name="Path 120" class="cls-4" d="M685.54,243.25a38.73,38.73,0,0,0,20.19-9.56l-.44-.42a38.11,38.11,0,0,1-19.84,9.38Z" transform="translate(0 0)"/><path id="Path_121" data-name="Path 121" class="cls-4" d="M624.09,353.34c7.91,0,10.73-1.19,10.86-1.24l.18-.08,2.07-53-3.26,1.54.26.55,2.36-1.11-2,51.56c-.85.3-5,1.48-14.64,1l0,.61c1.55.07,2.95.1,4.23.1" transform="translate(0 0)"/><path id="Path_122" data-name="Path 122" class="cls-4" d="M631.51,341.92c.84-3.24,1.08-34.88,1.1-36.22H632c0,.33-.25,32.9-1.08,36.07Z" transform="translate(0 0)"/><path id="Path_123" data-name="Path 123" class="cls-4" d="M600.06,297.2a41.56,41.56,0,0,1,9.59-1.49l0-.61a43,43,0,0,0-9.76,1.52Z" transform="translate(0 0)"/><path id="Path_124" data-name="Path 124" class="cls-4" d="M591,353.23a54.64,54.64,0,0,0,11.48-1.12l.22-.05,2-56.44-2.5,2,.38.47,1.47-1.17-1.9,54.64a56.11,56.11,0,0,1-11.7,1.05v.61h.6" transform="translate(0 0)"/><path id="Path_125" data-name="Path 125" class="cls-4" d="M599.54,343.1c.84-4.9,0-38.06,0-39.47h-.61c0,.35.84,34.51,0,39.35Z" transform="translate(0 0)"/><path id="Path_126" data-name="Path 126" class="cls-6" d="M641.41,273l12.79-7-16.51-3Z" transform="translate(0 0)"/><path id="Path_127" data-name="Path 127" class="cls-3" d="M640.93,272.24c.21-.14,12.36-6.56,12.36-6.56l.19.75L641.41,273Z" transform="translate(0 0)"/><path id="Path_128" data-name="Path 128" class="cls-8" d="M629.73,265l3.46-5.36c1.91-3.06,5-7.08,8.18-7.44,5.24-.58,37.1-1.89,47.22-3.13,0,0-.7-1.21-.68-1.21s8.27-1.38,8.27-1.38l5.24-2.48,4.72-2c1.3,5.06,4.88,13.37,1.21,19.15-6.77,10.7-58.6,5.43-63.2,4l-4.23,4.57-.86,1.32a1.36,1.36,0,0,1-2.28-1.47l-.36.55a3.05,3.05,0,0,0-4.16-1.08,1.34,1.34,0,0,1-.4-1.86h0l.36-.55a1.37,1.37,0,0,1-1.88.4.18.18,0,0,0-.07-.05l0,0,0,0h0a1.26,1.26,0,0,1-.22-.24,1.48,1.48,0,0,1-.26-1.68" transform="translate(0 0)"/><path id="Path_129" data-name="Path 129" class="cls-4" d="M687.75,248.24h.2c10.3-.24,20.64-8.13,20.75-8.2l.19-.15-6.53-14.41-.56.25,6.33,14c-1.44,1.06-10.74,7.63-20,7.93l-2.8-5.68-.55.27Z" transform="translate(0 0)"/><path id="Path_130" data-name="Path 130" class="cls-11" d="M692.23,254a.19.19,0,0,0,.24-.14.2.2,0,0,0,0-.18l-3.71-4.75a.21.21,0,0,0-.29,0,.2.2,0,0,0,0,.28h0l3.71,4.76a.21.21,0,0,0,.11.08" transform="translate(0 0)"/><path id="Path_131" data-name="Path 131" class="cls-11" d="M631.63,267.35a.19.19,0,0,0,.2-.07l4.86-6.64a.21.21,0,0,0-.05-.29.21.21,0,0,0-.28,0L631.5,267a.21.21,0,0,0,0,.28s.05,0,.08,0" transform="translate(0 0)"/><path id="Path_132" data-name="Path 132" class="cls-11" d="M633.76,269.29a.2.2,0,0,0,.21-.08l4.64-6.85a.21.21,0,0,0-.06-.28.2.2,0,0,0-.28.06L633.63,269a.2.2,0,0,0,0,.28.13.13,0,0,0,.08,0" transform="translate(0 0)"/><path id="Path_133" data-name="Path 133" class="cls-11" d="M636.33,270.53a.21.21,0,0,0,.22-.08l3.85-5.8a.21.21,0,0,0-.34-.23l-3.85,5.8a.2.2,0,0,0,0,.28h0a.09.09,0,0,0,.06,0" transform="translate(0 0)"/><path id="Path_134" data-name="Path 134" class="cls-4" d="M657.82,300a247.67,247.67,0,0,1-25-1.05l.06-.6c.21,0,21.2,2.35,52.5,0l.05.61c-10.5.79-19.85,1.05-27.64,1.05" transform="translate(0 0)"/><path id="Path_141" data-name="Path 141" class="cls-4" d="M635.31,244.25l.83-25.82.6,0-.83,25.82Z" transform="translate(0 0)"/><path id="Path_135" data-name="Path 135" class="cls-3" d="M588.76,229.81l5.51,39.34L641.41,273l-1.6-42.81Z" transform="translate(0 0)"/><path id="Path_139" data-name="Path 139" class="cls-4" d="M675.54,220.56l.56-.24,12.12,27.79-.56.25Z" transform="translate(0 0)"/><path id="Path_140" data-name="Path 140" class="cls-4" d="M684.47,241l.6-.09,1.35,8.33-.6.1Z" transform="translate(0 0)"/><path id="Path_136" data-name="Path 136" class="cls-11" d="M653.94,185.26a.09.09,0,0,0,.11-.08.1.1,0,0,0-.08-.12l-2-.67.65-4.78c0-.06,0-.11-.09-.11h0a.11.11,0,0,0-.12.09h0l-.66,4.95,2.2.73h0" transform="translate(0 0)"/><path id="Path_137" data-name="Path 137" class="cls-20" d="M655.52,187.24l-4-.1s.5,1.63,2,1.67a2.36,2.36,0,0,0,2.06-1.57" transform="translate(0 0)"/><path id="Path_138" data-name="Path 138" class="cls-6" d="M615.19,248.24a1.81,1.81,0,0,1-1.79,1.81,1.8,1.8,0,1,1,0-3.6h0a1.79,1.79,0,0,1,1.8,1.78h0" transform="translate(0 0)"/></g></g></g></g></svg>